# Blender 4.4.3
# www.blender.org
mtllib Untitled.mtl
o board
v 0.000000 185.000000 -0.000014
v 0.000000 60.000000 -0.000005
v 0.000000 185.000000 87.499985
v 0.000000 185.000000 99.999985
v 0.000000 60.000008 99.999992
v 0.000000 0.000008 100.000000
v 0.000000 0.000007 87.500000
v 0.000000 60.000008 87.499992
v 7.500000 185.000000 -0.000014
v 7.500000 60.000000 -0.000005
v 7.500000 67.199997 -0.000005
v 7.500000 177.800003 -0.000013
v 5.716003 67.199997 -0.000005
v 5.716003 177.800003 -0.000013
v 7.500000 185.000000 99.999985
v 7.500000 60.000008 99.999992
v 7.500000 60.000008 87.499992
v 7.500000 185.000000 87.499985
v 7.500000 0.000008 100.000000
v 7.500000 0.000007 87.500000
v 7.500000 177.800003 80.299988
v 7.500000 67.200005 80.299995
v 5.716003 177.800003 80.299988
v 5.716003 67.200005 80.299995
v 0.000000 185.000000 -87.500015
v 0.000000 185.000000 -100.000015
v 0.000000 59.999992 -100.000008
v 0.000000 -0.000008 -100.000000
v 0.000000 -0.000007 -87.500000
v 0.000000 59.999992 -87.500008
v 7.500000 185.000000 -100.000015
v 7.500000 59.999992 -100.000008
v 7.500000 59.999992 -87.500008
v 7.500000 185.000000 -87.500015
v 7.500000 -0.000008 -100.000000
v 7.500000 -0.000007 -87.500000
v 7.500000 177.800003 -80.300018
v 7.500000 67.199989 -80.300011
v 5.716003 177.800003 -80.300018
v 5.716003 67.199989 -80.300011
v -7.500000 185.000000 -0.000014
v -7.500000 60.000000 -0.000005
v -7.500000 67.199997 -0.000005
v -7.500000 177.800003 -0.000013
v -5.716003 67.199997 -0.000005
v -5.716003 177.800003 -0.000013
v -7.500000 185.000000 99.999985
v -7.500000 60.000008 99.999992
v -7.500000 60.000008 87.499992
v -7.500000 185.000000 87.499985
v -7.500000 0.000008 100.000000
v -7.500000 0.000007 87.500000
v -7.500000 177.800003 80.299988
v -7.500000 67.200005 80.299995
v -5.716003 177.800003 80.299988
v -5.716003 67.200005 80.299995
v -7.500000 185.000000 -100.000015
v -7.500000 59.999992 -100.000008
v -7.500000 59.999992 -87.500008
v -7.500000 185.000000 -87.500015
v -7.500000 -0.000008 -100.000000
v -7.500000 -0.000007 -87.500000
v -7.500000 177.800003 -80.300018
v -7.500000 67.199989 -80.300011
v -5.716003 177.800003 -80.300018
v -5.716003 67.199989 -80.300011
v 0.000000 201.450775 -0.000015
v 0.000000 184.895920 -0.000014
v 0.000000 201.450790 113.098282
v 0.000000 176.450790 113.098282
v 0.000000 176.450790 107.898346
v 0.000000 184.895905 99.698357
v 12.500000 198.101410 -0.000015
v 21.650635 188.950775 -0.000014
v 25.000000 176.450775 -0.000013
v 19.799999 176.450775 -0.000013
v 11.599999 184.895905 -0.000014
v 12.500000 198.101425 113.098282
v 21.650635 188.950790 113.098282
v 25.000000 176.450790 113.098282
v 19.799999 176.450790 107.898346
v 11.599999 184.895905 99.698357
v 0.000000 201.450760 -113.098312
v 0.000000 176.450760 -113.098312
v 0.000000 176.450760 -107.898376
v 0.000000 184.895905 -99.698387
v 12.500000 198.101395 -113.098312
v 21.650635 188.950760 -113.098312
v 25.000000 176.450760 -113.098312
v 19.799999 176.450760 -107.898376
v 11.599999 184.895905 -99.698387
v -12.500000 198.101410 -0.000015
v -21.650635 188.950775 -0.000014
v -25.000000 176.450775 -0.000013
v -19.799999 176.450775 -0.000013
v -11.599999 184.895905 -0.000014
v -12.500000 198.101425 113.098282
v -21.650635 188.950790 113.098282
v -25.000000 176.450790 113.098282
v -19.799999 176.450790 107.898346
v -11.599999 184.895905 99.698357
v -12.500000 198.101395 -113.098312
v -21.650635 188.950760 -113.098312
v -25.000000 176.450760 -113.098312
v -19.799999 176.450760 -107.898376
v -11.599999 184.895905 -99.698387
vn -0.0000 1.0000 -0.0000
vn -0.0000 -0.0000 1.0000
vn -0.0000 -1.0000 -0.0000
vn 0.8541 -0.1188 0.5064
vn 0.9977 0.0477 -0.0478
vn 1.0000 -0.0000 -0.0001
vn 1.0000 -0.0000 -0.0000
vn -0.0000 -0.0000 -1.0000
vn 0.9985 -0.0385 -0.0385
vn 1.0000 0.0001 -0.0000
vn 0.7230 0.2410 -0.6475
vn 0.0020 -0.0020 -1.0000
vn 0.9987 0.0502 0.0105
vn 0.8151 0.5244 -0.2462
vn 0.9985 -0.0385 0.0385
vn 0.7342 0.2087 0.6461
vn -0.0061 -0.0102 0.9999
vn -0.8151 0.5244 0.2462
vn -0.9996 0.0268 -0.0001
vn -1.0000 -0.0000 -0.0000
vn -0.9985 -0.0385 -0.0385
vn -0.7342 0.2087 -0.6461
vn -0.5000 -0.4999 0.7072
vn 0.0061 -0.0102 -0.9999
vn -0.5245 0.5245 0.6707
vn -0.9977 0.0477 0.0478
vn -0.9985 -0.0385 0.0385
vn -0.7230 0.2410 0.6475
vn -0.0020 -0.0020 1.0000
vn 0.5000 0.8660 -0.0000
vn 0.8660 0.5000 -0.0000
vn 0.9659 0.2588 -0.0000
vn -0.0000 -0.6966 -0.7174
vn -0.7174 -0.6966 -0.0000
vn -0.0000 -0.6966 0.7174
vn -0.5000 0.8660 -0.0000
vn -0.8660 0.5000 -0.0000
vn -0.9659 0.2588 -0.0000
vn 0.7174 -0.6966 -0.0000
vt 5.266287 0.597637
vt 5.104430 0.583634
vt 5.266287 0.583634
vt 5.278420 0.567201
vt 5.292420 0.333817
vt 5.292423 0.567201
vt 5.266287 0.329588
vt 5.101409 0.343591
vt 5.101409 0.329588
vt 5.266287 0.566801
vt 5.116363 0.360305
vt 5.266287 0.360305
vt 5.031366 0.427683
vt 5.054707 0.441687
vt 5.031366 0.441687
vt 5.315762 0.581204
vt 5.315762 0.567201
vt 5.315758 0.333817
vt 5.017363 0.553721
vt 5.031366 0.553721
vt 5.068711 0.553721
vt 5.068711 0.441687
vt 5.054707 0.553721
vt 5.116363 0.570112
vt 5.266287 0.570112
vt 5.099589 0.347933
vt 5.113031 0.566801
vt 5.099589 0.581315
vt 5.266287 0.343591
vt 5.116363 0.356954
vt 5.113031 0.360305
vt 5.116363 0.566801
vt 5.266287 0.356954
vt 5.341335 0.574071
vt 5.335351 0.550663
vt 5.382022 0.551201
vt 5.358221 0.591350
vt 5.381484 0.597872
vt 5.350876 0.333156
vt 5.324783 0.539128
vt 5.326124 0.332995
vt 5.375631 0.333317
vt 5.349537 0.539289
vt 5.400384 0.333478
vt 5.374290 0.539450
vt 5.070464 0.225512
vt 5.048034 0.406802
vt 5.048034 0.225512
vt 5.070464 0.193843
vt 5.034224 0.203394
vt 5.024441 0.193843
vt 5.015800 0.406802
vt 5.025660 0.210025
vt 5.025660 0.406802
vt 5.070464 0.203394
vt 5.015800 0.200392
vt 5.104430 0.597637
vt 5.278418 0.333817
vt 5.054707 0.427683
vt 5.292423 0.581205
vt 5.017363 0.441687
vt 5.399044 0.539611
vt 5.070464 0.406802
s 1
usemtl aiStandardSurface7SG
f 1/1/1 18/2/1 9/3/1
f 4/4/2 16/5/2 15/6/2
f 2/7/3 17/8/3 8/9/3
f 14/10/4 24/11/5 13/12/6
f 6/13/3 20/14/3 19/15/3
f 3/16/1 15/6/1 18/17/1
f 17/18/7 15/6/7 16/5/7
f 5/19/2 19/15/2 16/20/2
f 8/21/8 20/14/8 7/22/8
f 16/20/7 20/14/7 17/23/7
f 9/3/7 21/24/9 12/25/10
f 17/26/7 21/27/9 18/28/7
f 10/29/7 22/30/11 17/8/7
f 21/24/9 14/10/4 12/25/10
f 22/31/11 23/32/12 21/27/9
f 11/33/13 24/11/5 22/30/11
f 34/2/1 1/1/1 9/3/1
f 32/5/8 26/4/8 31/6/8
f 33/8/3 2/7/3 30/9/3
f 40/11/14 14/10/4 13/12/6
f 36/14/3 28/13/3 35/15/3
f 31/6/1 25/16/1 34/17/1
f 31/6/7 33/18/7 32/5/7
f 35/15/8 27/19/8 32/20/8
f 36/14/2 30/21/2 29/22/2
f 36/14/7 32/20/7 33/23/7
f 9/3/7 37/24/15 34/2/7
f 37/27/15 33/26/7 34/28/7
f 38/30/16 10/29/7 33/8/7
f 14/10/4 37/24/15 12/25/10
f 39/32/17 38/31/16 37/27/15
f 40/11/14 11/33/13 38/30/16
f 50/2/1 1/1/1 41/3/1
f 48/5/2 4/4/2 47/6/2
f 49/8/3 2/7/3 8/9/3
f 56/11/18 46/10/19 45/12/20
f 52/14/3 6/13/3 51/15/3
f 47/6/1 3/16/1 50/17/1
f 47/6/20 49/18/20 48/5/20
f 51/15/2 5/19/2 48/20/2
f 52/14/8 8/21/8 7/22/8
f 52/14/20 48/20/20 49/23/20
f 41/3/20 53/24/21 50/2/20
f 53/27/21 49/26/20 50/28/20
f 54/30/22 42/29/20 49/8/20
f 46/10/19 53/24/21 44/25/23
f 55/32/24 54/31/22 53/27/21
f 56/11/18 43/33/25 54/30/22
f 1/1/1 60/2/1 41/3/1
f 26/4/8 58/5/8 57/6/8
f 2/7/3 59/8/3 30/9/3
f 46/10/19 66/11/26 45/12/20
f 28/13/3 62/14/3 61/15/3
f 25/16/1 57/6/1 60/17/1
f 59/18/20 57/6/20 58/5/20
f 27/19/8 61/15/8 58/20/8
f 30/21/2 62/14/2 29/22/2
f 58/20/20 62/14/20 59/23/20
f 41/3/20 63/24/27 44/25/23
f 59/26/20 63/27/27 60/28/20
f 42/29/20 64/30/28 59/8/20
f 63/24/27 46/10/19 44/25/23
f 64/31/28 65/32/29 63/27/27
f 43/33/25 66/11/26 64/30/28
f 78/34/2 69/35/2 70/36/2
f 79/37/2 78/34/2 70/36/2
f 80/38/2 79/37/2 70/36/2
f 78/39/30 67/40/1 69/41/1
f 79/42/31 73/43/30 78/39/30
f 80/44/32 74/45/31 79/42/31
f 72/46/3 77/47/3 82/48/3
f 70/49/3 81/50/3 80/51/3
f 75/52/3 81/53/3 76/54/3
f 71/55/33 82/48/33 81/50/33
f 76/54/34 82/48/34 77/47/34
f 87/34/8 84/36/8 83/35/8
f 88/37/8 84/36/8 87/34/8
f 89/38/8 84/36/8 88/37/8
f 67/40/1 87/39/30 83/41/1
f 73/43/30 88/42/31 87/39/30
f 74/45/31 89/44/32 88/42/31
f 77/47/3 86/46/3 91/48/3
f 90/50/3 84/49/3 89/51/3
f 75/52/3 90/53/3 89/56/3
f 91/48/35 85/55/35 90/50/35
f 76/54/34 91/48/34 90/53/34
f 97/34/2 70/36/2 69/35/2
f 98/37/2 70/36/2 97/34/2
f 99/38/2 70/36/2 98/37/2
f 67/40/1 97/39/36 69/41/1
f 92/43/36 98/42/37 97/39/36
f 93/45/37 99/44/38 98/42/37
f 96/47/3 72/46/3 101/48/3
f 100/50/3 70/49/3 99/51/3
f 94/52/3 100/53/3 99/56/3
f 101/48/33 71/55/33 100/50/33
f 95/54/39 101/48/39 100/53/39
f 102/34/8 83/35/8 84/36/8
f 103/37/8 102/34/8 84/36/8
f 104/38/8 103/37/8 84/36/8
f 102/39/36 67/40/1 83/41/1
f 103/42/37 92/43/36 102/39/36
f 104/44/38 93/45/37 103/42/37
f 86/46/3 96/47/3 106/48/3
f 84/49/3 105/50/3 104/51/3
f 94/52/3 105/53/3 95/54/3
f 85/55/35 106/48/35 105/50/35
f 95/54/39 106/48/39 96/47/39
f 1/1/1 3/57/1 18/2/1
f 4/4/2 5/58/2 16/5/2
f 2/7/3 10/29/3 17/8/3
f 14/10/4 23/32/12 24/11/5
f 6/13/3 7/59/3 20/14/3
f 3/16/1 4/60/1 15/6/1
f 17/18/7 18/17/7 15/6/7
f 5/19/2 6/61/2 19/15/2
f 8/21/8 17/23/8 20/14/8
f 16/20/7 19/15/7 20/14/7
f 9/3/7 18/2/7 21/24/9
f 17/26/7 22/31/11 21/27/9
f 10/29/7 11/33/13 22/30/11
f 21/24/9 23/32/12 14/10/4
f 22/31/11 24/11/5 23/32/12
f 11/33/13 13/12/6 24/11/5
f 34/2/1 25/57/1 1/1/1
f 32/5/8 27/58/8 26/4/8
f 33/8/3 10/29/3 2/7/3
f 40/11/14 39/32/17 14/10/4
f 36/14/3 29/59/3 28/13/3
f 31/6/1 26/60/1 25/16/1
f 31/6/7 34/17/7 33/18/7
f 35/15/8 28/61/8 27/19/8
f 36/14/2 33/23/2 30/21/2
f 36/14/7 35/15/7 32/20/7
f 9/3/7 12/25/10 37/24/15
f 37/27/15 38/31/16 33/26/7
f 38/30/16 11/33/13 10/29/7
f 14/10/4 39/32/17 37/24/15
f 39/32/17 40/11/14 38/31/16
f 40/11/14 13/12/6 11/33/13
f 50/2/1 3/57/1 1/1/1
f 48/5/2 5/58/2 4/4/2
f 49/8/3 42/29/3 2/7/3
f 56/11/18 55/32/24 46/10/19
f 52/14/3 7/59/3 6/13/3
f 47/6/1 4/60/1 3/16/1
f 47/6/20 50/17/20 49/18/20
f 51/15/2 6/61/2 5/19/2
f 52/14/8 49/23/8 8/21/8
f 52/14/20 51/15/20 48/20/20
f 41/3/20 44/25/23 53/24/21
f 53/27/21 54/31/22 49/26/20
f 54/30/22 43/33/25 42/29/20
f 46/10/19 55/32/24 53/24/21
f 55/32/24 56/11/18 54/31/22
f 56/11/18 45/12/20 43/33/25
f 1/1/1 25/57/1 60/2/1
f 26/4/8 27/58/8 58/5/8
f 2/7/3 42/29/3 59/8/3
f 46/10/19 65/32/29 66/11/26
f 28/13/3 29/59/3 62/14/3
f 25/16/1 26/60/1 57/6/1
f 59/18/20 60/17/20 57/6/20
f 27/19/8 28/61/8 61/15/8
f 30/21/2 59/23/2 62/14/2
f 58/20/20 61/15/20 62/14/20
f 41/3/20 60/2/20 63/24/27
f 59/26/20 64/31/28 63/27/27
f 42/29/20 43/33/25 64/30/28
f 63/24/27 65/32/29 46/10/19
f 64/31/28 66/11/26 65/32/29
f 43/33/25 45/12/20 66/11/26
f 78/39/30 73/43/30 67/40/1
f 79/42/31 74/45/31 73/43/30
f 80/44/32 75/62/32 74/45/31
f 72/46/3 68/63/3 77/47/3
f 70/49/3 71/55/3 81/50/3
f 75/52/3 80/56/3 81/53/3
f 71/55/33 72/46/33 82/48/33
f 76/54/34 81/53/34 82/48/34
f 67/40/1 73/43/30 87/39/30
f 73/43/30 74/45/31 88/42/31
f 74/45/31 75/62/32 89/44/32
f 77/47/3 68/63/3 86/46/3
f 90/50/3 85/55/3 84/49/3
f 75/52/3 76/54/3 90/53/3
f 91/48/35 86/46/35 85/55/35
f 76/54/34 77/47/34 91/48/34
f 67/40/1 92/43/36 97/39/36
f 92/43/36 93/45/37 98/42/37
f 93/45/37 94/62/38 99/44/38
f 96/47/3 68/63/3 72/46/3
f 100/50/3 71/55/3 70/49/3
f 94/52/3 95/54/3 100/53/3
f 101/48/33 72/46/33 71/55/33
f 95/54/39 96/47/39 101/48/39
f 102/39/36 92/43/36 67/40/1
f 103/42/37 93/45/37 92/43/36
f 104/44/38 94/62/38 93/45/37
f 86/46/3 68/63/3 96/47/3
f 84/49/3 85/55/3 105/50/3
f 94/52/3 104/56/3 105/53/3
f 85/55/35 86/46/35 106/48/35
f 95/54/39 105/53/39 106/48/39
