# Blender 5.0.0
# www.blender.org
mtllib bush.mtl
o stylized_bush
v -0.000008 0.210060 -0.591343
v 0.036103 0.474265 -0.144038
v 0.078829 0.418256 -0.314460
v 0.115668 0.326214 -0.461396
v 0.143195 0.210060 -0.571193
v 0.154970 0.118820 -0.618161
v 0.158668 0.002437 -0.632910
v 0.069754 0.474265 -0.129141
v 0.152295 0.418256 -0.281937
v 0.223460 0.326214 -0.413676
v 0.276639 0.210060 -0.512118
v 0.299387 0.118820 -0.554228
v 0.306530 0.002437 -0.567452
v -0.000008 0.503864 -0.000000
v 0.098650 0.474265 -0.105443
v 0.215381 0.418256 -0.230201
v 0.316024 0.326214 -0.337765
v 0.391230 0.210060 -0.418143
v 0.423400 0.118820 -0.452525
v 0.433503 0.002437 -0.463323
v 0.120823 0.474265 -0.074560
v 0.263788 0.418256 -0.162777
v 0.387051 0.326214 -0.238836
v 0.479158 0.210060 -0.295671
v 0.518559 0.118820 -0.319984
v 0.530932 0.002437 -0.327619
v 0.134762 0.474265 -0.038595
v 0.294219 0.418256 -0.084259
v 0.431700 0.326214 -0.123631
v 0.534433 0.210060 -0.153051
v 0.578378 0.118820 -0.165636
v 0.592179 0.002437 -0.169588
v 0.139516 0.474265 -0.000000
v 0.304598 0.418256 -0.000000
v 0.446929 0.326214 -0.000000
v 0.553286 0.210060 -0.000000
v 0.598782 0.118820 -0.000000
v 0.613069 0.002437 -0.000000
v 0.134762 0.474265 0.038595
v 0.294219 0.418256 0.084259
v 0.431700 0.326214 0.123631
v 0.534433 0.210060 0.153051
v 0.578378 0.118820 0.165636
v 0.592179 0.002437 0.169588
v 0.120823 0.474265 0.074560
v 0.263788 0.418256 0.162777
v 0.387051 0.326214 0.238836
v 0.479158 0.210060 0.295671
v 0.518559 0.118820 0.319984
v 0.530932 0.002437 0.327618
v 0.098650 0.474265 0.105443
v 0.215381 0.418256 0.230201
v 0.316024 0.326214 0.337765
v 0.391230 0.210060 0.418142
v 0.423400 0.118820 0.452525
v 0.433503 0.002437 0.463322
v 0.069754 0.474265 0.129141
v 0.152295 0.418256 0.281937
v 0.223460 0.326214 0.413676
v 0.276639 0.210060 0.512118
v 0.299387 0.118820 0.554228
v 0.306530 0.002437 0.567452
v 0.036103 0.474265 0.144038
v 0.078829 0.418256 0.314460
v 0.115667 0.326214 0.461396
v 0.143195 0.210060 0.571193
v 0.154970 0.118820 0.618161
v 0.158668 0.002437 0.632910
v -0.000008 0.474265 0.149119
v -0.000008 0.418256 0.325553
v -0.000008 0.326214 0.477672
v -0.000008 0.210060 0.591343
v -0.000008 0.118820 0.639967
v -0.000008 0.002437 0.655237
v -0.036120 0.474265 0.144038
v -0.078846 0.418256 0.314460
v -0.115684 0.326214 0.461396
v -0.143212 0.210060 0.571193
v -0.154987 0.118820 0.618161
v -0.158685 0.002437 0.632910
v -0.069771 0.474265 0.129141
v -0.152312 0.418256 0.281937
v -0.223477 0.326214 0.413676
v -0.276656 0.210060 0.512118
v -0.299403 0.118820 0.554228
v -0.306547 0.002437 0.567452
v -0.098667 0.474265 0.105443
v -0.215398 0.418256 0.230201
v -0.316041 0.326214 0.337765
v -0.391246 0.210060 0.418142
v -0.423417 0.118820 0.452525
v -0.433519 0.002437 0.463322
v -0.120840 0.474265 0.074560
v -0.263805 0.418256 0.162777
v -0.387068 0.326214 0.238836
v -0.479175 0.210060 0.295671
v -0.518576 0.118820 0.319984
v -0.530949 0.002437 0.327618
v -0.134779 0.474265 0.038595
v -0.294235 0.418256 0.084259
v -0.431717 0.326214 0.123631
v -0.534450 0.210060 0.153051
v -0.578395 0.118820 0.165636
v -0.592196 0.002437 0.169588
v -0.139533 0.474265 -0.000000
v -0.304615 0.418256 -0.000000
v -0.446946 0.326214 -0.000000
v -0.553303 0.210060 -0.000000
v -0.598798 0.118820 -0.000000
v -0.613086 0.002437 0.000000
v -0.134779 0.474265 -0.038595
v -0.294235 0.418256 -0.084259
v -0.431717 0.326214 -0.123631
v -0.534449 0.210060 -0.153051
v -0.578395 0.118820 -0.165636
v -0.592196 0.002437 -0.169588
v -0.120840 0.474265 -0.074560
v -0.263805 0.418256 -0.162777
v -0.387068 0.326214 -0.238836
v -0.479175 0.210060 -0.295671
v -0.518576 0.118820 -0.319984
v -0.530949 0.002437 -0.327618
v -0.098667 0.474265 -0.105443
v -0.215398 0.418256 -0.230201
v -0.316041 0.326214 -0.337765
v -0.391246 0.210060 -0.418142
v -0.423417 0.118820 -0.452525
v -0.433520 0.002437 -0.463322
v -0.069771 0.474265 -0.129141
v -0.152312 0.418256 -0.281937
v -0.223477 0.326214 -0.413676
v -0.276655 0.210060 -0.512118
v -0.299403 0.118820 -0.554228
v -0.306547 0.002437 -0.567452
v -0.036120 0.474265 -0.144038
v -0.078846 0.418256 -0.314460
v -0.115684 0.326214 -0.461396
v -0.143211 0.210060 -0.571193
v -0.154987 0.118820 -0.618161
v -0.158685 0.002437 -0.632910
v -0.000008 0.474265 -0.149119
v -0.000008 0.418256 -0.325553
v -0.000008 0.326214 -0.477672
v -0.000008 0.118820 -0.639967
v -0.000008 0.002437 -0.655237
v 0.024160 0.819232 -0.096403
v 0.059158 0.798224 -0.235996
v 0.090804 0.766773 -0.362222
v 0.109273 0.732583 -0.435891
v 0.125695 0.691657 -0.501392
v 0.140133 0.645767 -0.558981
v 0.152364 0.596043 -0.607765
v -0.000008 0.819759 -0.000000
v 0.066022 0.819232 -0.070572
v 0.161637 0.798224 -0.172761
v 0.248095 0.766773 -0.265165
v 0.298555 0.732583 -0.319095
v 0.343420 0.691657 -0.367045
v 0.382865 0.645767 -0.409203
v 0.416280 0.596043 -0.444915
v 0.090191 0.819232 -0.025831
v 0.220803 0.798224 -0.063235
v 0.338907 0.766773 -0.097057
v 0.407836 0.732583 -0.116797
v 0.469123 0.691657 -0.134348
v 0.523006 0.645767 -0.149779
v 0.568652 0.596043 -0.162850
v 0.090191 0.819232 0.025831
v 0.220803 0.798224 0.063235
v 0.338907 0.766773 0.097057
v 0.407836 0.732583 0.116797
v 0.469123 0.691657 0.134348
v 0.523006 0.645767 0.149778
v 0.568652 0.596043 0.162850
v 0.066022 0.819232 0.070571
v 0.161637 0.798224 0.172761
v 0.248095 0.766773 0.265164
v 0.298555 0.732583 0.319094
v 0.343419 0.691657 0.367044
v 0.382865 0.645767 0.409203
v 0.416280 0.596043 0.444915
v 0.024160 0.819232 0.096402
v 0.059158 0.798224 0.235996
v 0.090804 0.766773 0.362221
v 0.109273 0.732583 0.435891
v 0.125695 0.691657 0.501392
v 0.140133 0.645767 0.558981
v 0.152364 0.596043 0.607765
v -0.024177 0.819232 0.096402
v -0.059175 0.798224 0.235996
v -0.090820 0.766773 0.362221
v -0.109290 0.732583 0.435891
v -0.125712 0.691657 0.501392
v -0.140150 0.645767 0.558981
v -0.152380 0.596043 0.607765
v -0.066039 0.819232 0.070571
v -0.161654 0.798224 0.172761
v -0.248112 0.766773 0.265164
v -0.298571 0.732583 0.319094
v -0.343436 0.691657 0.367044
v -0.382882 0.645767 0.409202
v -0.416296 0.596043 0.444915
v -0.090208 0.819232 0.025831
v -0.220820 0.798224 0.063235
v -0.338924 0.766773 0.097057
v -0.407853 0.732583 0.116797
v -0.469140 0.691657 0.134347
v -0.523023 0.645767 0.149778
v -0.568668 0.596043 0.162850
v -0.090208 0.819232 -0.025831
v -0.220820 0.798224 -0.063235
v -0.338924 0.766773 -0.097057
v -0.407853 0.732583 -0.116797
v -0.469140 0.691657 -0.134348
v -0.523023 0.645767 -0.149779
v -0.568668 0.596043 -0.162850
v -0.066039 0.819232 -0.070572
v -0.161653 0.798224 -0.172761
v -0.248112 0.766773 -0.265165
v -0.298571 0.732583 -0.319094
v -0.343436 0.691657 -0.367045
v -0.382882 0.645767 -0.409203
v -0.416296 0.596043 -0.444915
v -0.024177 0.819232 -0.096403
v -0.059175 0.798224 -0.235996
v -0.090820 0.766773 -0.362221
v -0.109290 0.732583 -0.435891
v -0.125712 0.691657 -0.501392
v -0.140150 0.645767 -0.558981
v -0.152380 0.596043 -0.607765
v 0.034036 0.714641 -0.123917
v 0.085593 0.665323 -0.311580
v 0.126305 0.560321 -0.459768
v 0.145850 0.455988 -0.530907
v 0.152985 0.370986 -0.556879
v 0.149149 0.241413 -0.542917
v 0.130857 0.101692 -0.476334
v 0.107111 0.019961 -0.389901
v 0.075865 -0.025739 -0.276173
v 0.034036 -0.034763 -0.123917
v 0.091315 0.714641 -0.084574
v 0.229618 0.665323 -0.212656
v 0.338829 0.560321 -0.313795
v 0.391257 0.455988 -0.362348
v 0.410397 0.370986 -0.380074
v 0.400108 0.241413 -0.370544
v 0.351038 0.101692 -0.325101
v 0.287339 0.019961 -0.266110
v 0.203524 -0.025739 -0.188490
v 0.091315 -0.034763 -0.084574
v 0.119600 0.714641 -0.018380
v 0.300739 0.665323 -0.046215
v 0.443774 0.560321 -0.068194
v 0.512440 0.455988 -0.078746
v 0.537509 0.370986 -0.082598
v 0.524032 0.241413 -0.080527
v 0.459765 0.101692 -0.070651
v 0.376337 0.019961 -0.057831
v 0.266562 -0.025739 -0.040963
v 0.119600 -0.034763 -0.018380
v 0.109910 0.714641 0.053650
v 0.276374 0.665323 0.134899
v 0.407821 0.560321 0.199057
v 0.470925 0.455988 0.229858
v 0.493962 0.370986 0.241102
v 0.481578 0.241413 0.235057
v 0.422516 0.101692 0.206230
v 0.345848 0.019961 0.168809
v 0.244966 -0.025739 0.119570
v 0.109910 -0.034763 0.053650
v 0.065322 0.714641 0.108647
v 0.164260 0.665323 0.273184
v 0.242386 0.560321 0.403110
v 0.279891 0.455988 0.465483
v 0.293584 0.370986 0.488254
v 0.286223 0.241413 0.476012
v 0.251120 0.101692 0.417635
v 0.205551 0.019961 0.341853
v 0.145593 -0.025738 0.242140
v 0.065322 -0.034763 0.108647
v -0.000008 0.714641 0.129148
v -0.000008 0.665323 0.324734
v -0.000008 0.560321 0.479177
v -0.000008 0.455988 0.553321
v -0.000008 0.370986 0.580388
v -0.000008 0.241413 0.565837
v -0.000008 0.101692 0.496443
v -0.000008 0.019961 0.406362
v -0.000008 -0.025738 0.287832
v -0.000008 -0.034763 0.129149
v -0.000008 0.721718 -0.000000
v -0.065339 0.714641 0.108647
v -0.164277 0.665323 0.273184
v -0.242403 0.560321 0.403110
v -0.279908 0.455988 0.465483
v -0.293601 0.370986 0.488254
v -0.286240 0.241413 0.476012
v -0.251137 0.101692 0.417635
v -0.205568 0.019961 0.341853
v -0.145610 -0.025738 0.242140
v -0.065339 -0.034763 0.108647
v -0.109927 0.714641 0.053650
v -0.276391 0.665323 0.134899
v -0.407838 0.560321 0.199057
v -0.470942 0.455988 0.229858
v -0.493979 0.370986 0.241102
v -0.481595 0.241413 0.235057
v -0.422533 0.101692 0.206230
v -0.345865 0.019961 0.168809
v -0.244983 -0.025739 0.119570
v -0.109927 -0.034763 0.053650
v -0.000008 -0.024922 0.000000
v -0.119617 0.714641 -0.018380
v -0.300756 0.665323 -0.046215
v -0.443791 0.560321 -0.068194
v -0.512458 0.455988 -0.078746
v -0.537526 0.370986 -0.082598
v -0.524049 0.241413 -0.080527
v -0.459781 0.101692 -0.070651
v -0.376354 0.019961 -0.057831
v -0.266579 -0.025739 -0.040963
v -0.119617 -0.034763 -0.018380
v -0.091332 0.714641 -0.084574
v -0.229635 0.665323 -0.212656
v -0.338846 0.560321 -0.313795
v -0.391274 0.455988 -0.362348
v -0.410414 0.370986 -0.380074
v -0.400125 0.241413 -0.370544
v -0.351055 0.101692 -0.325101
v -0.287356 0.019961 -0.266110
v -0.203541 -0.025739 -0.188490
v -0.091332 -0.034763 -0.084574
v -0.034053 0.714641 -0.123917
v -0.085610 0.665323 -0.311580
v -0.126322 0.560321 -0.459768
v -0.145867 0.455988 -0.530908
v -0.153002 0.370986 -0.556879
v -0.149166 0.241413 -0.542917
v -0.130874 0.101692 -0.476334
v -0.107128 0.019961 -0.389901
v -0.075882 -0.025739 -0.276173
v -0.034053 -0.034763 -0.123917
v -0.000008 0.564153 -0.572423
v 0.067218 0.721105 -0.124447
v 0.177425 0.666263 -0.328457
v 0.267788 0.564153 -0.495733
v 0.304285 0.496097 -0.563297
v 0.331789 0.418556 -0.614210
v -0.000008 0.731895 -0.000000
v 0.116431 0.721105 -0.071849
v 0.307315 0.666263 -0.189635
v 0.463828 0.564153 -0.286212
v 0.527044 0.496098 -0.325219
v 0.574681 0.418556 -0.354614
v 0.134444 0.721105 -0.000000
v 0.354858 0.666263 -0.000000
v 0.535584 0.564153 -0.000000
v 0.608579 0.496098 -0.000000
v 0.663586 0.418556 -0.000000
v 0.116431 0.721105 0.071849
v 0.307315 0.666263 0.189635
v 0.463828 0.564153 0.286212
v 0.527044 0.496098 0.325219
v 0.574681 0.418556 0.354614
v 0.067218 0.721105 0.124447
v 0.177425 0.666263 0.328457
v 0.267788 0.564153 0.495733
v 0.304285 0.496098 0.563296
v 0.331789 0.418556 0.614210
v -0.000008 0.721105 0.143698
v -0.000008 0.666263 0.379270
v -0.000008 0.564153 0.572423
v -0.000008 0.496098 0.650439
v -0.000008 0.418556 0.709228
v -0.067235 0.721105 0.124447
v -0.177442 0.666263 0.328457
v -0.267805 0.564153 0.495733
v -0.304302 0.496098 0.563296
v -0.331806 0.418556 0.614210
v -0.116448 0.721105 0.071849
v -0.307332 0.666263 0.189635
v -0.463845 0.564153 0.286212
v -0.527061 0.496098 0.325219
v -0.574698 0.418556 0.354614
v -0.134461 0.721105 -0.000000
v -0.354875 0.666263 -0.000000
v -0.535601 0.564153 -0.000000
v -0.608596 0.496098 -0.000000
v -0.663603 0.418556 -0.000000
v -0.116448 0.721105 -0.071849
v -0.307332 0.666263 -0.189635
v -0.463845 0.564153 -0.286212
v -0.527061 0.496098 -0.325219
v -0.574698 0.418556 -0.354614
v -0.067235 0.721105 -0.124447
v -0.177442 0.666263 -0.328457
v -0.267804 0.564153 -0.495733
v -0.304302 0.496097 -0.563296
v -0.331806 0.418556 -0.614210
v -0.000008 0.721105 -0.143699
v -0.000008 0.666263 -0.379270
v -0.000008 0.496097 -0.650439
v -0.000008 0.418556 -0.709228
v 0.048573 0.524379 -0.193776
v 0.110756 0.463174 -0.441806
v 0.149162 0.378408 -0.594995
v 0.172648 0.289069 -0.688675
v 0.190352 0.190167 -0.759289
v -0.000008 0.533371 -0.000000
v 0.132718 0.524379 -0.141854
v 0.302606 0.463174 -0.323425
v 0.407533 0.378408 -0.435567
v 0.471699 0.289069 -0.504145
v 0.520065 0.190167 -0.555838
v 0.181299 0.524379 -0.051922
v 0.413371 0.463174 -0.118382
v 0.556703 0.378408 -0.159428
v 0.644355 0.289069 -0.184530
v 0.710425 0.190167 -0.203451
v 0.181299 0.524379 0.051922
v 0.413371 0.463175 0.118382
v 0.556703 0.378408 0.159428
v 0.644355 0.289069 0.184530
v 0.710425 0.190167 0.203451
v 0.132718 0.524379 0.141853
v 0.302606 0.463175 0.323425
v 0.407532 0.378408 0.435566
v 0.471699 0.289069 0.504145
v 0.520065 0.190167 0.555838
v 0.048573 0.524380 0.193775
v 0.110756 0.463175 0.441806
v 0.149162 0.378408 0.594995
v 0.172648 0.289069 0.688675
v 0.190352 0.190167 0.759288
v -0.048590 0.524380 0.193775
v -0.110773 0.463175 0.441806
v -0.149179 0.378408 0.594995
v -0.172665 0.289069 0.688675
v -0.190369 0.190167 0.759288
v -0.132735 0.524379 0.141853
v -0.302623 0.463175 0.323424
v -0.407549 0.378408 0.435566
v -0.471715 0.289069 0.504145
v -0.520082 0.190167 0.555838
v -0.181316 0.524379 0.051922
v -0.413388 0.463175 0.118382
v -0.556720 0.378408 0.159428
v -0.644372 0.289069 0.184530
v -0.710442 0.190167 0.203451
v -0.181316 0.524379 -0.051922
v -0.413388 0.463174 -0.118382
v -0.556720 0.378408 -0.159428
v -0.644372 0.289069 -0.184530
v -0.710442 0.190167 -0.203451
v -0.132735 0.524379 -0.141854
v -0.302623 0.463174 -0.323425
v -0.407549 0.378408 -0.435566
v -0.471715 0.289069 -0.504145
v -0.520082 0.190167 -0.555838
v -0.048590 0.524379 -0.193776
v -0.110773 0.463174 -0.441806
v -0.149179 0.378408 -0.594995
v -0.172665 0.289069 -0.688675
v -0.190369 0.190167 -0.759288
v -0.378452 0.803210 0.357448
v -0.255757 0.887102 0.067428
v -0.211890 0.775260 0.247554
v -0.188259 0.756671 0.376990
v -0.061772 0.838089 0.363420
v -0.114122 0.802747 0.179926
v -0.333115 0.781679 0.192164
v 0.017580 0.809408 0.414755
v 0.157208 0.898871 0.135667
v 0.182141 0.769576 0.305774
v 0.199950 0.738726 0.433482
v 0.335959 0.804812 0.429682
v 0.284300 0.789835 0.242682
v 0.064095 0.794819 0.248946
v 0.150806 0.882996 -0.021476
v 0.369965 0.826428 -0.247308
v 0.313789 0.774484 -0.040699
v 0.291848 0.794163 0.088885
v 0.438801 0.825892 0.110511
v 0.428265 0.748663 -0.065771
v 0.225946 0.796279 -0.143290
v -0.122967 0.871447 -0.203497
v -0.076195 0.809685 -0.523864
v 0.007166 0.775380 -0.323462
v 0.062437 0.806685 -0.208794
v 0.184223 0.852422 -0.291888
v 0.084835 0.756575 -0.418744
v -0.123218 0.778963 -0.345133
v -0.416700 0.824290 0.019787
v -0.370506 0.842215 -0.307083
v -0.278234 0.775336 -0.121450
v -0.224577 0.787002 -0.001653
v -0.111942 0.865086 -0.069471
v -0.201230 0.788428 -0.218467
v -0.408521 0.766874 -0.142158
v 0.128601 0.927620 0.133093
v -0.166470 0.908163 0.034299
v 0.020250 0.825025 -0.003967
v 0.139197 0.824538 -0.044467
v 0.093198 0.853888 -0.195764
v -0.057542 0.804421 -0.098691
v -0.019119 0.861305 0.124757
v -0.526384 0.605763 0.406518
v -0.673575 0.597525 0.110881
v -0.480273 0.586919 0.199421
v -0.379302 0.630073 0.265463
v -0.358008 0.732158 0.146911
v -0.478771 0.612340 0.072919
v -0.587088 0.534150 0.262903
v -0.387252 0.543921 0.260129
v -0.485808 0.484238 0.571424
v -0.487116 0.403293 0.364368
v -0.517821 0.398446 0.233550
v -0.665855 0.385320 0.274907
v -0.570894 0.354743 0.441547
v -0.382852 0.469828 0.416281
v -0.573012 0.433923 -0.159330
v -0.484396 0.527070 0.145559
v -0.595101 0.377958 0.044295
v -0.690566 0.331830 -0.028380
v -0.788942 0.375254 0.088466
v -0.620821 0.387378 0.170437
v -0.483511 0.428111 -0.011906
v -0.671336 0.367388 -0.265466
v -0.521609 0.354276 -0.559434
v -0.484502 0.383079 -0.340126
v -0.492117 0.442732 -0.222114
v -0.415458 0.558754 -0.287308
v -0.393480 0.421419 -0.414715
v -0.576369 0.298842 -0.388116
v -0.597712 0.654498 0.054473
v -0.574071 0.628837 -0.278407
v -0.456758 0.617576 -0.091905
v -0.401399 0.661728 0.019464
v -0.315743 0.753156 -0.073489
v -0.390048 0.632847 -0.198734
v -0.582694 0.574298 -0.097280
v -0.079459 0.712255 -0.425735
v -0.307482 0.628115 -0.560755
v -0.132156 0.579546 -0.530507
v -0.022361 0.589130 -0.539781
v -0.032369 0.573822 -0.682128
v -0.176142 0.529555 -0.618139
v -0.196605 0.631568 -0.443011
v 0.447772 0.616247 -0.395388
v 0.179832 0.712252 -0.370052
v 0.282469 0.581434 -0.469495
v 0.362693 0.544209 -0.548209
v 0.291441 0.600996 -0.661538
v 0.184923 0.600940 -0.521134
v 0.304918 0.612077 -0.345819
v 0.640401 0.600522 -0.119200
v 0.392178 0.738466 -0.094350
v 0.469985 0.589244 -0.188622
v 0.541378 0.536682 -0.266662
v 0.477857 0.599292 -0.381588
v 0.375778 0.621754 -0.239562
v 0.499819 0.620956 -0.067068
v 0.330012 0.407260 -0.605977
v 0.063552 0.539209 -0.503733
v 0.133035 0.374148 -0.616820
v 0.189700 0.315187 -0.718913
v 0.081691 0.366637 -0.821274
v 0.015911 0.396699 -0.639164
v 0.197217 0.423070 -0.503587
v 0.575830 0.352270 -0.525520
v 0.646055 0.421883 -0.207963
v 0.481123 0.376945 -0.339050
v 0.399175 0.396100 -0.439608
v 0.348459 0.519712 -0.363022
v 0.448548 0.429760 -0.228377
v 0.600373 0.319908 -0.355248
v -0.302337 0.475185 -0.415096
v -0.261799 0.380902 -0.731002
v -0.158109 0.396228 -0.535826
v -0.104779 0.456180 -0.432376
v -0.003516 0.517909 -0.535859
v -0.083733 0.383072 -0.637060
v -0.287700 0.365306 -0.542936
v 0.656114 0.422870 -0.061931
v 0.720143 0.385631 0.263491
v 0.556919 0.401214 0.122305
v 0.481824 0.458453 0.033498
v 0.441709 0.557423 0.149593
v 0.525680 0.421511 0.245467
v 0.669830 0.338973 0.087572
v 0.212424 0.528112 0.376509
v 0.515485 0.491172 0.451982
v 0.327434 0.404282 0.487968
v 0.209591 0.398939 0.536156
v 0.265086 0.405359 0.689061
v 0.410863 0.368903 0.573617
v 0.360710 0.459224 0.363390
v -0.249419 0.385260 0.714287
v -0.112502 0.562364 0.464272
v -0.072431 0.390630 0.597816
v -0.050841 0.328270 0.718310
v 0.083800 0.409979 0.739688
v 0.032300 0.438068 0.543901
v -0.198445 0.418482 0.543678
v 0.508705 0.547360 0.486344
v 0.322510 0.698931 0.322905
v 0.456935 0.565684 0.300109
v 0.563995 0.523708 0.302963
v 0.601990 0.613224 0.196624
v 0.432895 0.615969 0.198498
v 0.382249 0.569553 0.403051
v 0.379335 0.574557 0.538139
v 0.145395 0.604971 0.711286
v 0.197714 0.572519 0.516697
v 0.246108 0.597839 0.408269
v 0.152807 0.699163 0.389894
v 0.093040 0.606738 0.525724
v 0.258442 0.527340 0.618433
vn -0.0000 0.3027 -0.9531
vn 0.2234 0.5851 -0.7796
vn 0.2628 0.3013 -0.9166
vn -0.0000 0.9674 -0.2531
vn -0.0000 1.0000 -0.0000
vn 0.0700 0.9671 -0.2444
vn -0.0000 0.1301 -0.9915
vn 0.2733 0.1295 -0.9532
vn 0.1729 0.7783 -0.6037
vn 0.2237 0.9046 -0.3627
vn 0.3324 0.7743 -0.5386
vn 0.4279 0.5801 -0.6931
vn 0.1909 0.9652 -0.1787
vn 0.3155 0.9018 -0.2954
vn 0.4669 0.7689 -0.4368
vn 0.5984 0.5735 -0.5595
vn 0.5017 0.2978 -0.8122
vn 0.1351 0.9663 -0.2190
vn 0.5212 0.1279 -0.8438
vn 0.5681 0.7636 -0.3068
vn 0.7248 0.5671 -0.3913
vn 0.6985 0.2931 -0.6529
vn 0.7248 0.1258 -0.6774
vn 0.2336 0.9641 -0.1263
vn 0.3854 0.8989 -0.2083
vn 0.8426 0.2886 -0.4547
vn 0.8733 0.1238 -0.4713
vn 0.2604 0.9633 -0.0653
vn 0.4291 0.8968 -0.1076
vn 0.6306 0.7598 -0.1581
vn 0.8020 0.5625 -0.2009
vn 0.4439 0.8961 -0.0000
vn 0.6517 0.7584 -0.0000
vn 0.8279 0.5608 -0.0000
vn 0.9297 0.2855 -0.2328
vn 0.9628 0.1223 -0.2411
vn 0.2695 0.9630 -0.0000
vn 0.9587 0.2843 -0.0000
vn 0.9925 0.1218 -0.0000
vn 0.4291 0.8968 0.1076
vn 0.6306 0.7598 0.1581
vn 0.8020 0.5625 0.2009
vn 0.5681 0.7636 0.3068
vn 0.7248 0.5671 0.3913
vn 0.9297 0.2855 0.2328
vn 0.2604 0.9633 0.0653
vn 0.9628 0.1223 0.2411
vn 0.3854 0.8989 0.2083
vn 0.8426 0.2886 0.4547
vn 0.2336 0.9641 0.1263
vn 0.8733 0.1238 0.4713
vn 0.3155 0.9018 0.2954
vn 0.4669 0.7689 0.4368
vn 0.5984 0.5735 0.5595
vn 0.3324 0.7743 0.5386
vn 0.4279 0.5801 0.6931
vn 0.6985 0.2931 0.6529
vn 0.1909 0.9652 0.1787
vn 0.7248 0.1258 0.6774
vn 0.2237 0.9046 0.3627
vn 0.2234 0.5851 0.7796
vn 0.5017 0.2978 0.8122
vn 0.1351 0.9663 0.2190
vn 0.5212 0.1279 0.8438
vn 0.1160 0.9068 0.4054
vn 0.1729 0.7783 0.6037
vn 0.0700 0.9671 0.2444
vn -0.0000 0.9075 0.4200
vn -0.0000 0.7798 0.6261
vn -0.0000 0.5870 0.8096
vn 0.2628 0.3013 0.9166
vn 0.2733 0.1295 0.9532
vn -0.1729 0.7783 0.6037
vn -0.2234 0.5851 0.7796
vn -0.0000 0.3027 0.9531
vn -0.0000 0.9674 0.2531
vn -0.0000 0.1301 0.9915
vn -0.0700 0.9671 0.2444
vn -0.1160 0.9068 0.4054
vn -0.1351 0.9663 0.2190
vn -0.2237 0.9046 0.3627
vn -0.3324 0.7743 0.5385
vn -0.4279 0.5801 0.6931
vn -0.2628 0.3013 0.9166
vn -0.2733 0.1295 0.9532
vn -0.4669 0.7689 0.4368
vn -0.5984 0.5735 0.5595
vn -0.5017 0.2978 0.8122
vn -0.5212 0.1279 0.8438
vn -0.1909 0.9652 0.1787
vn -0.3155 0.9018 0.2954
vn -0.2336 0.9641 0.1263
vn -0.3854 0.8989 0.2083
vn -0.5681 0.7636 0.3068
vn -0.7248 0.5671 0.3913
vn -0.6985 0.2931 0.6529
vn -0.7248 0.1258 0.6774
vn -0.6306 0.7598 0.1581
vn -0.8020 0.5625 0.2009
vn -0.8426 0.2886 0.4547
vn -0.8733 0.1238 0.4713
vn -0.2604 0.9633 0.0653
vn -0.4291 0.8968 0.1076
vn -0.9297 0.2855 0.2328
vn -0.9628 0.1223 0.2411
vn -0.2695 0.9630 -0.0000
vn -0.4439 0.8961 -0.0000
vn -0.6517 0.7584 -0.0000
vn -0.8279 0.5608 -0.0000
vn -0.6306 0.7598 -0.1581
vn -0.8020 0.5625 -0.2009
vn -0.9587 0.2843 -0.0000
vn -0.9925 0.1218 -0.0000
vn -0.4291 0.8968 -0.1076
vn -0.9297 0.2855 -0.2328
vn -0.2604 0.9633 -0.0653
vn -0.9628 0.1223 -0.2411
vn -0.3854 0.8989 -0.2083
vn -0.5681 0.7636 -0.3068
vn -0.7248 0.5671 -0.3913
vn -0.4669 0.7689 -0.4368
vn -0.5984 0.5735 -0.5595
vn -0.8426 0.2886 -0.4547
vn -0.2336 0.9641 -0.1263
vn -0.8733 0.1238 -0.4713
vn -0.3155 0.9018 -0.2954
vn -0.6985 0.2931 -0.6529
vn -0.1909 0.9652 -0.1787
vn -0.7248 0.1258 -0.6774
vn -0.2237 0.9046 -0.3627
vn -0.3324 0.7743 -0.5386
vn -0.4279 0.5801 -0.6931
vn -0.1729 0.7783 -0.6037
vn -0.2234 0.5851 -0.7796
vn -0.5017 0.2978 -0.8122
vn -0.1351 0.9663 -0.2190
vn -0.5212 0.1279 -0.8438
vn -0.1160 0.9068 -0.4054
vn -0.0000 0.5870 -0.8096
vn -0.2628 0.3013 -0.9166
vn -0.0700 0.9671 -0.2444
vn -0.2733 0.1295 -0.9532
vn -0.0000 0.9075 -0.4200
vn -0.0000 0.7798 -0.6261
vn 0.1160 0.9068 -0.4054
vn 0.0649 0.9960 -0.0611
vn 0.0237 0.9963 -0.0831
vn -0.1830 0.7479 -0.6382
vn 0.1576 0.8203 -0.5498
vn 0.1830 0.7479 -0.6382
vn -0.1302 0.8812 -0.4545
vn 0.0928 0.9414 -0.3242
vn 0.1302 0.8812 -0.4545
vn -0.1576 0.8203 -0.5498
vn -0.0237 0.9963 -0.0831
vn 0.1947 0.7109 -0.6758
vn -0.1947 0.7109 -0.6758
vn 0.1481 0.9792 -0.1388
vn 0.0542 0.9804 -0.1896
vn 0.2528 0.9381 -0.2368
vn 0.3534 0.8751 -0.3306
vn 0.4262 0.8122 -0.3984
vn 0.4931 0.7379 -0.4608
vn 0.0891 0.9958 -0.0224
vn 0.2023 0.9780 -0.0508
vn 0.3446 0.9348 -0.0865
vn 0.4796 0.8692 -0.1202
vn 0.5765 0.8042 -0.1444
vn 0.6648 0.7283 -0.1664
vn 0.5227 0.7004 -0.4861
vn 0.2023 0.9780 0.0508
vn 0.0891 0.9958 0.0224
vn 0.3446 0.9348 0.0865
vn 0.0649 0.9960 0.0611
vn 0.4796 0.8692 0.1202
vn 0.5765 0.8042 0.1444
vn 0.7020 0.6904 0.1749
vn 0.7020 0.6904 -0.1749
vn 0.1481 0.9792 0.1388
vn 0.2528 0.9381 0.2368
vn 0.0542 0.9804 0.1896
vn 0.0237 0.9963 0.0831
vn 0.3534 0.8751 0.3306
vn 0.4262 0.8122 0.3984
vn 0.4931 0.7379 0.4608
vn 0.6648 0.7283 0.1664
vn 0.5227 0.7004 0.4861
vn 0.0928 0.9414 0.3242
vn 0.1947 0.7109 0.6758
vn -0.0542 0.9804 0.1896
vn -0.0237 0.9963 0.0831
vn 0.1302 0.8812 0.4545
vn 0.1576 0.8203 0.5498
vn 0.1830 0.7479 0.6382
vn -0.1947 0.7109 0.6758
vn -0.0649 0.9960 0.0611
vn -0.1302 0.8812 0.4545
vn -0.1830 0.7479 0.6382
vn -0.1481 0.9792 0.1388
vn -0.0928 0.9414 0.3242
vn -0.4262 0.8122 0.3984
vn -0.1576 0.8203 0.5498
vn -0.4931 0.7379 0.4608
vn -0.0891 0.9958 0.0224
vn -0.2528 0.9381 0.2368
vn -0.3534 0.8751 0.3306
vn -0.2023 0.9780 0.0508
vn -0.5765 0.8042 0.1444
vn -0.6648 0.7283 0.1664
vn -0.5227 0.7004 0.4861
vn -0.0891 0.9958 -0.0224
vn -0.3446 0.9348 0.0865
vn -0.4796 0.8692 0.1202
vn -0.3446 0.9348 -0.0865
vn -0.4796 0.8692 -0.1202
vn -0.5765 0.8042 -0.1444
vn -0.7020 0.6904 -0.1749
vn -0.7020 0.6904 0.1749
vn -0.1481 0.9792 -0.1388
vn -0.2023 0.9780 -0.0508
vn -0.0649 0.9960 -0.0611
vn -0.2528 0.9381 -0.2368
vn -0.3534 0.8751 -0.3306
vn -0.4262 0.8122 -0.3984
vn -0.4931 0.7379 -0.4608
vn -0.6648 0.7283 -0.1664
vn -0.5227 0.7004 -0.4861
vn -0.0542 0.9804 -0.1896
vn -0.0928 0.9414 -0.3242
vn 0.2889 -0.2749 -0.9171
vn -0.2427 -0.5886 -0.7711
vn -0.2889 -0.2749 -0.9171
vn -0.1300 0.9006 -0.4147
vn 0.2144 0.6995 -0.6817
vn -0.2144 0.6995 -0.6817
vn 0.2702 0.4361 -0.8583
vn -0.2702 0.4361 -0.8583
vn 0.5650 0.6869 -0.4572
vn 0.7044 0.4240 -0.5692
vn -0.0708 -0.9715 -0.2264
vn 0.0006 -1.0000 -0.0022
vn -0.0006 -1.0000 -0.0022
vn 0.1346 0.9848 -0.1095
vn 0.1300 0.9006 -0.4147
vn 0.0500 0.9859 -0.1600
vn -0.0000 -1.0000 -0.0000
vn -0.2992 0.0950 -0.9494
vn 0.0019 -1.0000 -0.0018
vn 0.2427 -0.5886 -0.7711
vn 0.4355 -0.8281 -0.3529
vn 0.1639 -0.8371 -0.5219
vn 0.3473 0.8944 -0.2817
vn 0.1903 -0.9694 -0.1548
vn 0.0708 -0.9715 -0.2264
vn 0.2992 0.0950 -0.9495
vn 0.1767 0.9840 -0.0238
vn 0.7499 -0.2661 -0.6057
vn 0.6361 -0.5751 -0.5143
vn 0.5662 -0.8208 -0.0761
vn 0.7295 0.6769 -0.0980
vn 0.9019 0.4147 -0.1209
vn 0.7748 0.0918 -0.6255
vn 0.4531 0.8894 -0.0610
vn 0.2498 -0.9677 -0.0337
vn 0.0028 -1.0000 -0.0004
vn 0.4170 0.8912 0.1783
vn 0.1622 0.9843 0.0695
vn 0.9572 -0.2595 -0.1283
vn 0.8180 -0.5646 -0.1097
vn 0.7569 -0.5685 0.3225
vn 0.8358 0.4181 0.3559
vn 0.9164 0.0902 0.3899
vn 0.9872 0.0893 -0.1322
vn 0.5218 -0.8235 0.2228
vn 0.2294 -0.9684 0.0983
vn 0.2491 0.8979 0.3629
vn 0.0961 0.9854 0.1404
vn 0.8880 -0.2619 0.3780
vn 0.0025 -1.0000 0.0012
vn 0.6740 0.6806 0.2874
vn 0.5121 0.4308 0.7431
vn 0.5653 0.0936 0.8196
vn 0.4610 -0.5827 0.6693
vn 0.1360 -0.9706 0.1987
vn -0.0000 0.9016 0.4325
vn -0.0000 0.9860 0.1667
vn 0.5464 -0.2710 0.7925
vn 0.0012 -1.0000 0.0021
vn 0.4082 0.6940 0.5931
vn 0.3132 -0.8332 0.4558
vn -0.0000 0.0956 0.9954
vn -0.0000 -0.5909 0.8068
vn -0.0000 0.4382 0.8989
vn -0.0961 0.9854 0.1404
vn -0.0000 -1.0000 0.0022
vn -0.0012 -1.0000 0.0021
vn -0.0000 -0.2763 0.9611
vn -0.0000 0.7016 0.7126
vn -0.0000 -0.8386 0.5448
vn -0.0000 -0.9718 0.2358
vn -0.3132 -0.8332 0.4558
vn -0.4082 0.6940 0.5931
vn -0.5121 0.4308 0.7431
vn -0.5464 -0.2710 0.7925
vn -0.4610 -0.5827 0.6693
vn -0.2491 0.8979 0.3629
vn -0.1360 -0.9706 0.1987
vn -0.1622 0.9843 0.0695
vn -0.5218 -0.8235 0.2228
vn -0.6740 0.6806 0.2874
vn -0.8358 0.4181 0.3559
vn -0.5653 0.0936 0.8196
vn -0.7569 -0.5685 0.3225
vn -0.0025 -1.0000 0.0012
vn -0.4170 0.8912 0.1783
vn -0.2294 -0.9684 0.0983
vn -0.1767 0.9840 -0.0238
vn -0.8880 -0.2619 0.3780
vn -0.5662 -0.8208 -0.0761
vn -0.7295 0.6769 -0.0980
vn -0.9019 0.4147 -0.1209
vn -0.9164 0.0902 0.3899
vn -0.4531 0.8894 -0.0610
vn -0.2498 -0.9677 -0.0337
vn -0.0028 -1.0000 -0.0004
vn -0.3473 0.8944 -0.2817
vn -0.1346 0.9848 -0.1095
vn -0.9572 -0.2595 -0.1283
vn -0.8180 -0.5646 -0.1097
vn -0.6361 -0.5751 -0.5143
vn -0.7044 0.4240 -0.5692
vn -0.7748 0.0918 -0.6255
vn -0.9872 0.0893 -0.1322
vn -0.4355 -0.8281 -0.3529
vn -0.1903 -0.9694 -0.1548
vn -0.0500 0.9859 -0.1600
vn -0.7499 -0.2661 -0.6057
vn -0.0019 -1.0000 -0.0018
vn -0.5650 0.6869 -0.4572
vn -0.1639 -0.8371 -0.5219
vn 0.3909 0.6687 -0.6325
vn -0.0000 0.6042 -0.7969
vn -0.0000 0.6753 -0.7376
vn 0.1747 0.9846 -0.0000
vn 0.1512 0.9851 -0.0819
vn 0.0871 0.9861 -0.1415
vn -0.0000 0.8165 -0.5774
vn 0.1956 0.9279 -0.3173
vn 0.3070 0.8115 -0.4971
vn 0.3378 0.9233 -0.1826
vn 0.5257 0.8019 -0.2838
vn 0.6643 0.6561 -0.3582
vn 0.4228 0.5974 -0.6814
vn 0.3378 0.9233 0.1826
vn 0.1512 0.9851 0.0819
vn 0.3894 0.9210 -0.0000
vn 0.6037 0.7972 -0.0000
vn 0.7599 0.6500 -0.0000
vn 0.7147 0.5846 -0.3839
vn 0.1956 0.9279 0.3173
vn 0.0871 0.9861 0.1415
vn 0.5257 0.8019 0.2838
vn 0.6643 0.6561 0.3582
vn 0.7147 0.5846 0.3839
vn 0.8156 0.5786 -0.0000
vn -0.0000 0.9302 0.3669
vn -0.0000 0.9866 0.1633
vn 0.3070 0.8115 0.4971
vn 0.3909 0.6687 0.6325
vn 0.4228 0.5974 0.6814
vn -0.0871 0.9861 0.1415
vn -0.0000 0.6753 0.7376
vn -0.0000 0.8165 0.5774
vn -0.0000 0.6042 0.7969
vn -0.1512 0.9851 0.0819
vn -0.1956 0.9279 0.3173
vn -0.3070 0.8115 0.4971
vn -0.3909 0.6687 0.6325
vn -0.1747 0.9846 -0.0000
vn -0.3378 0.9233 0.1826
vn -0.5257 0.8019 0.2838
vn -0.6643 0.6561 0.3582
vn -0.4228 0.5974 0.6814
vn -0.3378 0.9233 -0.1826
vn -0.1512 0.9851 -0.0819
vn -0.6037 0.7972 -0.0000
vn -0.3894 0.9210 -0.0000
vn -0.1956 0.9279 -0.3173
vn -0.0871 0.9861 -0.1415
vn -0.7599 0.6500 -0.0000
vn -0.7147 0.5846 0.3839
vn -0.5257 0.8019 -0.2838
vn -0.6643 0.6561 -0.3582
vn -0.7147 0.5846 -0.3839
vn -0.8156 0.5786 -0.0000
vn -0.0000 0.9302 -0.3669
vn -0.0000 0.9866 -0.1633
vn -0.3070 0.8115 -0.4971
vn -0.3909 0.6687 -0.6325
vn -0.4228 0.5974 -0.6814
vn 0.2795 0.9238 -0.2618
vn 0.1633 0.8053 -0.5699
vn 0.1026 0.9278 -0.3586
vn -0.2073 0.6595 -0.7225
vn -0.1633 0.8053 -0.5699
vn -0.0424 0.9880 -0.1486
vn 0.0424 0.9880 -0.1486
vn 0.2229 0.5926 -0.7741
vn -0.2229 0.5926 -0.7741
vn 0.1161 0.9872 -0.1090
vn 0.1590 0.9865 -0.0400
vn 0.4417 0.7965 -0.4129
vn 0.2073 0.6595 -0.7225
vn 0.5565 0.6482 -0.5198
vn 0.3808 0.9197 0.0956
vn 0.1590 0.9865 0.0400
vn 0.3808 0.9197 -0.0956
vn 0.2795 0.9238 0.2618
vn 0.1161 0.9872 0.1090
vn 0.5972 0.7880 -0.1496
vn 0.7474 0.6375 -0.1871
vn 0.5958 0.5811 -0.5544
vn 0.5972 0.7880 0.1496
vn 0.1026 0.9278 0.3586
vn 0.0424 0.9880 0.1486
vn 0.7474 0.6375 0.1871
vn 0.7970 0.5704 -0.1987
vn 0.5958 0.5811 0.5544
vn 0.7970 0.5704 0.1987
vn 0.4417 0.7965 0.4129
vn -0.1026 0.9278 0.3586
vn -0.0424 0.9880 0.1486
vn 0.5565 0.6482 0.5198
vn 0.2229 0.5926 0.7741
vn 0.1633 0.8053 0.5699
vn -0.1161 0.9872 0.1090
vn 0.2073 0.6595 0.7225
vn -0.2073 0.6595 0.7225
vn -0.1590 0.9865 0.0400
vn -0.2795 0.9238 0.2618
vn -0.4417 0.7965 0.4129
vn -0.1633 0.8053 0.5699
vn -0.5565 0.6482 0.5198
vn -0.2229 0.5926 0.7741
vn -0.3808 0.9197 -0.0956
vn -0.1590 0.9865 -0.0400
vn -0.5972 0.7880 0.1496
vn -0.7474 0.6375 0.1871
vn -0.5958 0.5811 0.5544
vn -0.3808 0.9197 0.0956
vn -0.2795 0.9238 -0.2618
vn -0.1161 0.9872 -0.1090
vn -0.7474 0.6375 -0.1871
vn -0.7970 0.5704 -0.1987
vn -0.7970 0.5704 0.1987
vn -0.1026 0.9278 -0.3586
vn -0.4417 0.7965 -0.4129
vn -0.5972 0.7880 -0.1496
vn -0.5565 0.6482 -0.5198
vn -0.5958 0.5811 -0.5544
vn -0.4292 0.9007 0.0677
vn -0.0890 0.9734 0.2109
vn -0.1982 0.9645 0.1747
vn 0.1597 0.9871 -0.0091
vn -0.0558 0.9705 0.2346
vn -0.1210 0.9683 0.2186
vn -0.0618 0.8411 0.5373
vn -0.3192 0.9388 0.1293
vn 0.0227 0.9585 0.2843
vn -0.0850 0.9658 0.2451
vn 0.2778 0.9581 0.0693
vn 0.0550 0.9499 0.3078
vn -0.0098 0.9566 0.2913
vn 0.0246 0.7976 0.6027
vn -0.0390 0.9554 -0.2926
vn 0.2394 0.9695 -0.0526
vn 0.1584 0.9798 -0.1220
vn 0.5344 0.8305 -0.1574
vn 0.2619 0.9649 -0.0193
vn 0.2087 0.9766 -0.0528
vn 0.1115 0.9562 0.2707
vn -0.3521 0.9058 -0.2356
vn 0.0226 0.9762 -0.2159
vn -0.0962 0.9710 -0.2187
vn 0.1998 0.8591 -0.4712
vn 0.0598 0.9783 -0.1982
vn -0.0072 0.9799 -0.1993
vn 0.1341 0.9845 0.1128
vn -0.4682 0.8832 -0.0271
vn -0.1063 0.9943 0.0093
vn -0.2232 0.9748 0.0051
vn 0.0753 0.9627 -0.2599
vn -0.0691 0.9972 0.0271
vn -0.1359 0.9904 0.0258
vn 0.0126 0.9427 0.3334
vn -0.1091 0.9882 0.1072
vn -0.0212 0.9717 -0.2353
vn -0.0422 0.9898 -0.1359
vn -0.2745 0.8612 -0.4277
vn 0.0109 0.9633 -0.2682
vn 0.0032 0.9766 -0.2150
vn 0.3425 0.8974 -0.2782
vn -0.6707 0.6754 0.3064
vn -0.4119 0.8999 0.1429
vn -0.4944 0.8450 0.2037
vn -0.4233 0.8889 -0.1751
vn -0.3690 0.9184 0.1426
vn -0.4170 0.8920 0.1743
vn -0.1039 0.9351 0.3389
vn -0.1700 0.9749 0.1437
vn -0.5133 0.8576 0.0340
vn -0.4141 0.9080 0.0636
vn -0.6864 0.6795 0.2591
vn -0.5417 0.8405 0.0106
vn -0.4861 0.8736 0.0219
vn -0.5180 0.7978 -0.3086
vn -0.0736 0.9617 -0.2640
vn -0.4176 0.9008 -0.1193
vn -0.3183 0.9320 -0.1734
vn -0.4141 0.8882 0.1992
vn -0.4572 0.8810 -0.1216
vn -0.4061 0.9014 -0.1501
vn -0.6335 0.6976 -0.3347
vn -0.7879 0.4394 -0.4315
vn -0.5630 0.7472 -0.3532
vn -0.6428 0.6661 -0.3782
vn -0.2865 0.7827 -0.5525
vn -0.5386 0.7753 -0.3299
vn -0.5887 0.7326 -0.3418
vn -0.5668 0.8238 -0.0123
vn -0.6809 0.7236 -0.1131
vn -0.3558 0.9259 -0.1271
vn -0.4645 0.8778 -0.1171
vn -0.1879 0.8941 -0.4065
vn -0.3187 0.9412 -0.1122
vn -0.3818 0.9180 -0.1072
vn -0.2063 0.9603 0.1878
vn -0.2432 0.9500 -0.1959
vn -0.0642 0.8626 -0.5017
vn -0.1137 0.9040 -0.4121
vn -0.2485 0.6591 -0.7098
vn -0.0211 0.8524 -0.5224
vn -0.0476 0.8777 -0.4768
vn 0.3095 0.8416 -0.4427
vn 0.3362 0.9352 0.1110
vn 0.2775 0.9309 -0.2374
vn 0.3010 0.9434 -0.1393
vn -0.0555 0.9457 -0.3204
vn 0.2833 0.9176 -0.2788
vn 0.3048 0.9251 -0.2264
vn 0.5421 0.7350 -0.4073
vn 0.4819 0.8738 0.0652
vn 0.4159 0.8642 -0.2833
vn 0.4436 0.8770 -0.1848
vn 0.0857 0.9285 -0.3612
vn 0.4185 0.8484 -0.3241
vn 0.4419 0.8550 -0.2715
vn 0.6439 0.6195 -0.4491
vn 0.3894 0.9117 -0.1313
vn 0.2210 0.8665 -0.4477
vn 0.2763 0.8907 -0.3610
vn -0.1266 0.8941 -0.4297
vn 0.2093 0.8489 -0.4854
vn 0.2501 0.8622 -0.4406
vn 0.4141 0.6266 -0.6602
vn 0.7250 0.6253 -0.2887
vn 0.4275 0.8684 -0.2513
vn 0.5262 0.8044 -0.2756
vn 0.3483 0.9359 0.0531
vn 0.3869 0.8837 -0.2634
vn 0.4443 0.8523 -0.2760
vn 0.1861 0.8337 -0.5199
vn -0.5884 0.7475 -0.3083
vn -0.2408 0.9110 -0.3349
vn -0.3553 0.8765 -0.3248
vn -0.0581 0.8023 -0.5941
vn -0.2031 0.9251 -0.3208
vn -0.2692 0.9098 -0.3160
vn -0.1084 0.9939 -0.0204
vn 0.7956 0.6006 -0.0793
vn 0.5258 0.8502 0.0264
vn 0.6170 0.7869 -0.0145
vn 0.4467 0.8284 0.3379
vn 0.4873 0.8730 0.0197
vn 0.5411 0.8410 -0.0014
vn 0.2916 0.9273 -0.2348
vn 0.1211 0.9921 0.0322
vn 0.0549 0.9254 0.3751
vn 0.0701 0.9581 0.2778
vn 0.3205 0.7806 0.5366
vn 0.0252 0.9122 0.4090
vn 0.0293 0.9336 0.3571
vn -0.3100 0.8486 0.4288
vn -0.4206 0.8375 0.3490
vn -0.0801 0.8514 0.5183
vn -0.1900 0.8576 0.4779
vn 0.1774 0.9332 0.3126
vn -0.0468 0.8398 0.5409
vn -0.1129 0.8444 0.5236
vn -0.0631 0.6034 0.7949
vn 0.1437 0.8073 0.5723
vn 0.3913 0.8698 0.3006
vn 0.3268 0.8602 0.3915
vn 0.2453 0.9691 0.0272
vn 0.4322 0.8568 0.2814
vn 0.4002 0.8555 0.3287
vn 0.6925 0.6426 0.3278
vn 0.4732 0.7014 0.5330
vn 0.2916 0.9135 0.2838
vn 0.3510 0.8649 0.3587
vn -0.0497 0.9420 0.3319
vn 0.2780 0.9285 0.2464
vn 0.3200 0.9036 0.2848
vn 0.4538 0.8907 -0.0265
vt 0.432731 0.444478
vt 0.487123 0.431183
vt 0.481163 0.460977
vt 0.504279 0.301018
vt 0.520281 0.269014
vt 0.513096 0.304087
vt 0.415610 0.479265
vt 0.474241 0.498100
vt 0.495550 0.389296
vt 0.524956 0.348267
vt 0.527391 0.391256
vt 0.530047 0.434000
vt 0.531576 0.302971
vt 0.545246 0.344311
vt 0.558756 0.385431
vt 0.572139 0.425720
vt 0.531806 0.464465
vt 0.522413 0.304743
vt 0.534263 0.501248
vt 0.587399 0.371319
vt 0.610751 0.407076
vt 0.581512 0.454616
vt 0.592981 0.490055
vt 0.539967 0.298899
vt 0.563770 0.335245
vt 0.627164 0.432659
vt 0.647336 0.464200
vt 0.547029 0.292796
vt 0.579483 0.321851
vt 0.611831 0.350704
vt 0.643329 0.379162
vt 0.591219 0.304772
vt 0.629837 0.324227
vt 0.667684 0.343849
vt 0.665778 0.399743
vt 0.693424 0.425157
vt 0.552274 0.285071
vt 0.694721 0.357993
vt 0.728048 0.375510
vt 0.598167 0.285176
vt 0.640437 0.294087
vt 0.682164 0.303351
vt 0.642902 0.262207
vt 0.685718 0.260373
vt 0.712011 0.310077
vt 0.555338 0.276244
vt 0.748839 0.318464
vt 0.599667 0.264428
vt 0.716389 0.259161
vt 0.556041 0.266921
vt 0.754277 0.257766
vt 0.595770 0.244022
vt 0.637020 0.230710
vt 0.678009 0.217806
vt 0.623137 0.201791
vt 0.659450 0.178572
vt 0.707427 0.208657
vt 0.554299 0.257728
vt 0.743826 0.197457
vt 0.586721 0.225326
vt 0.631191 0.145405
vt 0.685571 0.162015
vt 0.550208 0.249313
vt 0.717981 0.141625
vt 0.573155 0.209601
vt 0.602175 0.177553
vt 0.544100 0.242221
vt 0.555967 0.197915
vt 0.575803 0.159152
vt 0.595160 0.120861
vt 0.652121 0.122532
vt 0.678238 0.094142
vt 0.545394 0.148791
vt 0.554110 0.106454
vt 0.609286 0.093412
vt 0.536343 0.236977
vt 0.626924 0.058421
vt 0.527502 0.233889
vt 0.536351 0.191094
vt 0.518158 0.233225
vt 0.515645 0.189577
vt 0.513433 0.146199
vt 0.510827 0.103247
vt 0.560579 0.076241
vt 0.567860 0.038759
vt 0.481753 0.152016
vt 0.468381 0.111386
vt 0.509274 0.072400
vt 0.507014 0.035150
vt 0.508964 0.235000
vt 0.495257 0.193496
vt 0.500546 0.239089
vt 0.476633 0.202601
vt 0.452777 0.166187
vt 0.429450 0.130150
vt 0.458998 0.082137
vt 0.447516 0.046211
vt 0.428455 0.187258
vt 0.396699 0.158445
vt 0.412791 0.104241
vt 0.392360 0.072235
vt 0.493468 0.245219
vt 0.460850 0.216087
vt 0.373603 0.137636
vt 0.345492 0.111905
vt 0.488219 0.252978
vt 0.449068 0.233259
vt 0.410514 0.213787
vt 0.371817 0.194103
vt 0.399656 0.244015
vt 0.357592 0.235269
vt 0.344483 0.180175
vt 0.310542 0.162563
vt 0.442286 0.252971
vt 0.327358 0.228783
vt 0.485165 0.261831
vt 0.289791 0.220585
vt 0.440848 0.273736
vt 0.397600 0.276114
vt 0.354512 0.278688
vt 0.403430 0.307771
vt 0.362768 0.321365
vt 0.323758 0.280297
vt 0.484512 0.271169
vt 0.284749 0.282642
vt 0.444827 0.294154
vt 0.333398 0.330969
vt 0.486302 0.280353
vt 0.297321 0.343475
vt 0.453972 0.312796
vt 0.417705 0.336605
vt 0.381753 0.360294
vt 0.438890 0.360578
vt 0.410349 0.392919
vt 0.355853 0.377266
vt 0.490406 0.288754
vt 0.324652 0.398015
vt 0.467603 0.328404
vt 0.446472 0.416858
vt 0.389822 0.415951
vt 0.496538 0.295800
vt 0.364385 0.444338
vt 0.484783 0.339947
vt 0.465321 0.378629
vt 0.504298 0.346866
vt 0.242709 0.679492
vt 0.213739 0.691606
vt 0.211566 0.675497
vt 0.081889 0.556900
vt 0.068846 0.657175
vt 0.042364 0.653832
vt 0.124868 0.589691
vt 0.123043 0.664098
vt 0.095681 0.660592
vt 0.103385 0.573231
vt 0.217738 0.660463
vt 0.016345 0.650598
vt 0.060769 0.540714
vt 0.171207 0.709362
vt 0.165799 0.669613
vt 0.131481 0.725933
vt 0.106004 0.736448
vt 0.081097 0.746901
vt 0.056388 0.757056
vt 0.223682 0.704463
vt 0.195708 0.741114
vt 0.169585 0.775313
vt 0.152783 0.797195
vt 0.136291 0.818627
vt 0.119907 0.839831
vt 0.031992 0.767070
vt 0.232805 0.756354
vt 0.238716 0.710628
vt 0.227311 0.798992
vt 0.254818 0.708452
vt 0.223719 0.826349
vt 0.220168 0.853227
vt 0.213241 0.905980
vt 0.103671 0.860787
vt 0.272563 0.751024
vt 0.289101 0.790770
vt 0.304313 0.726495
vt 0.267673 0.698516
vt 0.299634 0.816170
vt 0.310089 0.841076
vt 0.320422 0.865930
vt 0.216613 0.879872
vt 0.330516 0.890419
vt 0.338482 0.752650
vt 0.424081 0.818226
vt 0.319596 0.689409
vt 0.273850 0.683489
vt 0.360340 0.769461
vt 0.381897 0.785786
vt 0.403123 0.802098
vt 0.469059 0.709068
vt 0.271675 0.667384
vt 0.389658 0.698616
vt 0.442881 0.705554
vt 0.314237 0.649650
vt 0.362266 0.694967
vt 0.404459 0.612241
vt 0.416447 0.702102
vt 0.429235 0.602108
vt 0.261740 0.654524
vt 0.353991 0.633151
vt 0.379503 0.622668
vt 0.289750 0.617855
vt 0.349275 0.540358
vt 0.365697 0.519125
vt 0.453709 0.592108
vt 0.246705 0.648347
vt 0.315912 0.583677
vt 0.332750 0.561811
vt 0.258197 0.559880
vt 0.261858 0.532429
vt 0.265383 0.505547
vt 0.272432 0.452701
vt 0.381948 0.498171
vt 0.212828 0.607975
vt 0.252603 0.602604
vt 0.230600 0.650530
vt 0.196336 0.568243
vt 0.185663 0.542633
vt 0.175292 0.517701
vt 0.164925 0.492773
vt 0.268873 0.479005
vt 0.154814 0.468198
vt 0.181072 0.632505
vt 0.146877 0.606340
vt 0.596526 0.394723
vt 0.604619 0.311919
vt 0.650055 0.332598
vt 0.757935 0.792452
vt 0.803630 0.794190
vt 0.770792 0.821795
vt 0.844954 0.821861
vt 0.790308 0.866788
vt 0.816416 0.753081
vt 0.865935 0.754095
vt 0.552067 0.288544
vt 0.523890 0.283608
vt 0.528548 0.278107
vt 0.756384 0.752219
vt 0.776851 0.776351
vt 0.753696 0.761116
vt 0.516847 0.272935
vt 0.739909 0.752094
vt 0.698555 0.354824
vt 0.517004 0.285718
vt 0.569349 0.352862
vt 0.517593 0.338081
vt 0.552627 0.327359
vt 0.784290 0.752566
vt 0.517304 0.311372
vt 0.537984 0.305039
vt 0.914896 0.868740
vt 0.753823 0.743291
vt 0.625167 0.439317
vt 0.518149 0.418038
vt 0.517891 0.368589
vt 0.482280 0.328199
vt 0.804905 0.711521
vt 0.846938 0.685513
vt 0.950953 0.755731
vt 0.777396 0.728501
vt 0.496455 0.305541
vt 0.510071 0.283774
vt 0.758597 0.711994
vt 0.746847 0.737174
vt 0.518314 0.470382
vt 0.439953 0.395682
vt 0.466194 0.354073
vt 0.430278 0.313819
vt 0.793222 0.638824
vt 0.830095 0.559070
vt 0.919798 0.640355
vt 0.457919 0.300707
vt 0.482087 0.289327
vt 0.733918 0.708349
vt 0.737683 0.735801
vt 0.337399 0.357182
vt 0.411085 0.441969
vt 0.385541 0.334856
vt 0.505290 0.278391
vt 0.772303 0.683021
vt 0.723057 0.627948
vt 0.710629 0.541751
vt 0.421998 0.260601
vt 0.478763 0.267958
vt 0.711261 0.718544
vt 0.729238 0.739596
vt 0.320648 0.247132
vt 0.373058 0.254211
vt 0.504175 0.271280
vt 0.729681 0.676647
vt 0.452306 0.264491
vt 0.601993 0.591776
vt 0.443787 0.211384
vt 0.658615 0.656915
vt 0.724167 0.747334
vt 0.507077 0.264693
vt 0.513079 0.260713
vt 0.365379 0.145452
vt 0.405774 0.179607
vt 0.690572 0.694238
vt 0.467109 0.230988
vt 0.487482 0.248177
vt 0.497607 0.210804
vt 0.667054 0.729913
vt 0.619966 0.715527
vt 0.473686 0.134002
vt 0.488559 0.181736
vt 0.697700 0.739326
vt 0.505492 0.236227
vt 0.724093 0.756592
vt 0.534273 0.209966
vt 0.666679 0.772502
vt 0.618895 0.785426
vt 0.538743 0.691268
vt 0.542280 0.180471
vt 0.520288 0.260609
vt 0.697454 0.764125
vt 0.527168 0.235800
vt 0.729034 0.764422
vt 0.458192 0.083747
vt 0.555520 0.132667
vt 0.565715 0.229368
vt 0.688986 0.809132
vt 0.656238 0.845105
vt 0.536554 0.807280
vt 0.710629 0.785231
vt 0.545656 0.247280
vt 0.526412 0.264427
vt 0.733222 0.795832
vt 0.737427 0.768361
vt 0.569661 0.080144
vt 0.625782 0.175608
vt 0.588575 0.208770
vt 0.611821 0.258106
vt 0.720102 0.875660
vt 0.706429 0.962436
vt 0.597041 0.909360
vt 0.581468 0.262876
vt 0.554938 0.266989
vt 0.746619 0.767126
vt 0.715143 0.242651
vt 0.666997 0.138544
vt 0.661786 0.250487
vt 0.529492 0.270955
vt 0.728128 0.827438
vt 0.825274 0.945641
vt 0.576569 0.299449
vt 0.538765 0.717019
vt 0.545135 0.594587
vt 0.577748 0.618129
vt 0.742960 0.741584
vt 0.720546 0.771404
vt 0.708633 0.756215
vt 0.705907 0.737092
vt 0.607565 0.640326
vt 0.641158 0.729212
vt 0.575171 0.721412
vt 0.648614 0.781602
vt 0.587443 0.807567
vt 0.554010 0.821739
vt 0.500141 0.712613
vt 0.730276 0.843226
vt 0.738447 0.778609
vt 0.681121 0.823458
vt 0.641067 0.876209
vt 0.618747 0.905259
vt 0.517411 0.836928
vt 0.782793 0.836002
vt 0.757552 0.775904
vt 0.721709 0.909157
vt 0.716718 0.945472
vt 0.711158 0.984761
vt 0.595202 0.936343
vt 0.824884 0.803528
vt 0.772768 0.764025
vt 0.808486 0.897529
vt 0.822455 0.931667
vt 0.837536 0.968929
vt 0.780037 0.746116
vt 0.907282 0.866370
vt 0.877914 0.843830
vt 0.938901 0.890262
vt 0.777331 0.726968
vt 0.844865 0.754300
vt 0.910991 0.762619
vt 0.947558 0.767496
vt 0.765410 0.711729
vt 0.837527 0.701649
vt 0.899169 0.675864
vt 0.933270 0.661941
vt 0.986526 0.772379
vt 0.755470 0.639464
vt 0.747452 0.704512
vt 0.845446 0.606272
vt 0.804904 0.659588
vt 0.702738 0.647131
vt 0.728318 0.707259
vt 0.868108 0.576948
vt 0.970242 0.647010
vt 0.763823 0.573108
vt 0.768563 0.536285
vt 0.773112 0.496265
vt 0.892968 0.545073
vt 0.660955 0.679975
vt 0.713135 0.719183
vt 0.676611 0.585340
vt 0.662119 0.551430
vt 0.646598 0.514268
vt 0.621372 0.284218
vt 0.637571 0.360874
vt 0.601608 0.333709
vt 0.592453 0.444016
vt 0.577299 0.408132
vt 0.536376 0.312000
vt 0.519217 0.271819
vt 0.554178 0.298066
vt 0.702040 0.408603
vt 0.608860 0.483164
vt 0.562606 0.277079
vt 0.559436 0.254685
vt 0.666079 0.290058
vt 0.668727 0.384032
vt 0.704197 0.295043
vt 0.581185 0.189626
vt 0.545477 0.236884
vt 0.613920 0.231574
vt 0.531723 0.169572
vt 0.524499 0.228422
vt 0.655634 0.214440
vt 0.691427 0.199890
vt 0.745431 0.300534
vt 0.608880 0.153839
vt 0.478801 0.177052
vt 0.502094 0.231593
vt 0.632783 0.123236
vt 0.730272 0.184198
vt 0.549160 0.043866
vt 0.658817 0.090064
vt 0.537807 0.124591
vt 0.436937 0.210005
vt 0.484248 0.245531
vt 0.543187 0.085934
vt 0.429798 0.059156
vt 0.461417 0.135109
vt 0.475786 0.266550
vt 0.446602 0.099092
vt 0.369882 0.158996
vt 0.479003 0.288973
vt 0.416992 0.259289
vt 0.371965 0.253743
vt 0.400706 0.182587
vt 0.333459 0.248684
vt 0.335631 0.133345
vt 0.457203 0.354032
vt 0.492969 0.306783
vt 0.382621 0.329710
vt 0.346643 0.344573
vt 0.291916 0.243215
vt 0.424389 0.312121
vt 0.506655 0.374159
vt 0.513973 0.315232
vt 0.406347 0.421428
vt 0.380343 0.455243
vt 0.307514 0.360597
vt 0.559608 0.366537
vt 0.501454 0.419207
vt 0.430084 0.390432
vt 0.496487 0.457991
vt 0.491607 0.499448
vt 0.817105 0.304213
vt 0.861392 0.364997
vt 0.810591 0.360964
vt 0.831514 0.434897
vt 0.888493 0.411662
vt 0.884228 0.321611
vt 0.941756 0.370032
vt 0.810879 0.066061
vt 0.856202 0.128267
vt 0.804212 0.124140
vt 0.825625 0.199803
vt 0.883937 0.176024
vt 0.879572 0.083867
vt 0.938445 0.133420
s 1
usemtl stylized_bush
f 144/1/1 5/2/2 6/3/3
f 141/4/4 14/5/5 2/6/6
f 145/7/7 6/3/3 7/8/8
f 4/9/9 9/10/10 10/11/11
f 5/2/2 10/11/11 11/12/12
f 9/10/10 15/13/13 16/14/14
f 10/11/11 16/14/14 17/15/15
f 11/12/12 17/15/15 18/16/16
f 6/3/3 11/12/12 12/17/17
f 2/6/6 14/5/5 8/18/18
f 7/8/8 12/17/17 13/19/19
f 18/16/16 23/20/20 24/21/21
f 12/17/17 18/16/16 19/22/22
f 8/18/18 14/5/5 15/13/13
f 13/19/19 19/22/22 20/23/23
f 16/14/14 21/24/24 22/25/25
f 17/15/15 22/25/25 23/20/20
f 20/23/23 25/26/26 26/27/27
f 22/25/25 27/28/28 28/29/29
f 28/29/29 23/20/20 22/25/25
f 24/21/21 29/30/30 30/31/31
f 19/22/22 24/21/21 25/26/26
f 15/13/13 14/5/5 21/24/24
f 29/30/30 34/32/32 35/33/33
f 30/31/31 35/33/33 36/34/34
f 25/26/26 30/31/31 31/35/35
f 21/24/24 14/5/5 27/28/28
f 26/27/27 31/35/35 32/36/36
f 28/29/29 33/37/37 34/32/32
f 27/28/28 14/5/5 33/37/37
f 32/36/36 37/38/38 38/39/39
f 33/37/37 40/40/40 34/32/32
f 34/32/32 41/41/41 35/33/33
f 35/33/33 42/42/42 36/34/34
f 31/35/35 36/34/34 37/38/38
f 40/40/40 47/43/43 41/41/41
f 41/41/41 48/44/44 42/42/42
f 36/34/34 43/45/45 37/38/38
f 33/37/37 14/5/5 39/46/46
f 37/38/38 44/47/47 38/39/39
f 39/46/46 46/48/48 40/40/40
f 42/42/42 49/49/49 43/45/45
f 39/46/46 14/5/5 45/50/50
f 43/45/45 50/51/51 44/47/47
f 45/50/50 52/52/52 46/48/48
f 46/48/48 53/53/53 47/43/43
f 47/43/43 54/54/54 48/44/44
f 52/52/52 59/55/55 53/53/53
f 53/53/53 60/56/56 54/54/54
f 48/44/44 55/57/57 49/49/49
f 45/50/50 14/5/5 51/58/58
f 49/49/49 56/59/59 50/51/51
f 51/58/58 58/60/60 52/52/52
f 59/55/55 66/61/61 60/56/56
f 54/54/54 61/62/62 55/57/57
f 51/58/58 14/5/5 57/63/63
f 55/57/57 62/64/64 56/59/59
f 57/63/63 64/65/65 58/60/60
f 58/60/60 65/66/66 59/55/55
f 63/67/67 70/68/68 64/65/65
f 64/65/65 71/69/69 65/66/66
f 65/66/66 72/70/70 66/61/61
f 60/56/56 67/71/71 61/62/62
f 57/63/63 14/5/5 63/67/67
f 61/62/62 68/72/72 62/64/64
f 72/70/70 77/73/73 78/74/74
f 66/61/61 73/75/75 67/71/71
f 63/67/67 14/5/5 69/76/76
f 67/71/71 74/77/77 68/72/72
f 75/78/78 70/68/68 69/76/76
f 71/69/69 76/79/79 77/73/73
f 76/79/79 81/80/80 82/81/81
f 77/73/73 82/81/81 83/82/82
f 78/74/74 83/82/82 84/83/83
f 73/75/75 78/74/74 79/84/84
f 69/76/76 14/5/5 75/78/78
f 74/77/77 79/84/84 80/85/85
f 84/83/83 89/86/86 90/87/87
f 79/84/84 84/83/83 85/88/88
f 75/78/78 14/5/5 81/80/80
f 80/85/85 85/88/88 86/89/89
f 82/81/81 87/90/90 88/91/91
f 83/82/82 88/91/91 89/86/86
f 88/91/91 93/92/92 94/93/93
f 89/86/86 94/93/93 95/94/94
f 90/87/87 95/94/94 96/95/95
f 85/88/88 90/87/87 91/96/96
f 81/80/80 14/5/5 87/90/90
f 86/89/89 91/96/96 92/97/97
f 96/95/95 101/98/98 102/99/99
f 91/96/96 96/95/95 97/100/100
f 87/90/90 14/5/5 93/92/92
f 92/97/97 97/100/100 98/101/101
f 94/93/93 99/102/102 100/103/103
f 95/94/94 100/103/103 101/98/98
f 98/101/101 103/104/104 104/105/105
f 100/103/103 105/106/106 106/107/107
f 106/107/107 101/98/98 100/103/103
f 102/99/99 107/108/108 108/109/109
f 97/100/100 102/99/99 103/104/104
f 93/92/92 14/5/5 99/102/102
f 106/107/107 113/110/110 107/108/108
f 107/108/108 114/111/111 108/109/109
f 103/104/104 108/109/109 109/112/112
f 99/102/102 14/5/5 105/106/106
f 104/105/105 109/112/112 110/113/113
f 105/106/106 112/114/114 106/107/107
f 108/109/109 115/115/115 109/112/112
f 105/106/106 14/5/5 111/116/116
f 109/112/112 116/117/117 110/113/113
f 111/116/116 118/118/118 112/114/114
f 112/114/114 119/119/119 113/110/110
f 113/110/110 120/120/120 114/111/111
f 118/118/118 125/121/121 119/119/119
f 119/119/119 126/122/122 120/120/120
f 114/111/111 121/123/123 115/115/115
f 111/116/116 14/5/5 117/124/124
f 115/115/115 122/125/125 116/117/117
f 117/124/124 124/126/126 118/118/118
f 120/120/120 127/127/127 121/123/123
f 117/124/124 14/5/5 123/128/128
f 121/123/123 128/129/129 122/125/125
f 123/128/128 130/130/130 124/126/126
f 124/126/126 131/131/131 125/121/121
f 125/121/121 132/132/132 126/122/122
f 130/130/130 137/133/133 131/131/131
f 131/131/131 138/134/134 132/132/132
f 126/122/122 133/135/135 127/127/127
f 123/128/128 14/5/5 129/136/136
f 127/127/127 134/137/137 128/129/129
f 129/136/136 136/138/138 130/130/130
f 137/133/133 1/139/139 138/134/134
f 132/132/132 139/140/140 133/135/135
f 129/136/136 14/5/5 135/141/141
f 133/135/135 140/142/142 134/137/137
f 135/141/141 142/143/143 136/138/138
f 136/138/138 143/144/144 137/133/133
f 142/143/143 2/6/6 3/145/145
f 143/144/144 3/145/145 4/9/9
f 1/139/139 4/9/9 5/2/2
f 138/134/134 144/1/1 139/140/140
f 135/141/141 14/5/5 141/4/4
f 139/140/140 145/7/7 140/142/142
f 3/145/145 8/18/18 9/10/10
f 153/146/5 154/147/146 146/148/147
f 229/149/148 150/150/149 151/151/150
f 227/152/151 148/153/152 149/154/153
f 228/155/154 149/154/153 150/150/149
f 224/156/155 153/146/5 146/148/147
f 229/149/148 152/157/156 230/158/157
f 155/159/158 148/153/152 147/160/159
f 156/161/160 149/154/153 148/153/152
f 157/162/161 150/150/149 149/154/153
f 158/163/162 151/151/150 150/150/149
f 159/164/163 152/157/156 151/151/150
f 161/165/164 155/159/158 154/147/146
f 153/146/5 161/165/164 154/147/146
f 162/166/165 156/161/160 155/159/158
f 163/167/166 157/162/161 156/161/160
f 164/168/167 158/163/162 157/162/161
f 165/169/168 159/164/163 158/163/162
f 166/170/169 160/171/170 159/164/163
f 161/165/164 169/172/171 162/166/165
f 153/146/5 168/173/172 161/165/164
f 162/166/165 170/174/173 163/167/166
f 153/146/5 175/175/174 168/173/172
f 163/167/166 171/176/175 164/168/167
f 164/168/167 172/177/176 165/169/168
f 172/177/176 166/170/169 165/169/168
f 166/170/169 174/178/177 167/179/178
f 168/173/172 176/180/179 169/172/171
f 169/172/171 177/181/180 170/174/173
f 175/175/174 183/182/181 176/180/179
f 153/146/5 182/183/182 175/175/174
f 170/174/173 178/184/183 171/176/175
f 171/176/175 179/185/184 172/177/176
f 172/177/176 180/186/185 173/187/186
f 173/187/186 181/188/187 174/178/177
f 176/180/179 184/189/188 177/181/180
f 180/186/185 188/190/189 181/188/187
f 182/183/182 190/191/190 183/182/181
f 153/146/5 189/192/191 182/183/182
f 177/181/180 185/193/192 178/184/183
f 178/184/183 186/194/193 179/185/184
f 179/185/184 187/195/194 180/186/185
f 190/191/190 184/189/188 183/182/181
f 187/195/194 195/196/195 188/190/189
f 196/197/196 190/191/190 189/192/191
f 153/146/5 196/197/196 189/192/191
f 184/189/188 192/198/197 185/193/192
f 192/198/197 186/194/193 185/193/192
f 186/194/193 194/199/198 187/195/194
f 197/200/199 191/201/200 190/191/190
f 200/202/201 194/199/198 193/203/202
f 201/204/203 195/196/195 194/199/198
f 203/205/204 197/200/199 196/197/196
f 153/146/5 203/205/204 196/197/196
f 198/206/205 192/198/197 191/201/200
f 199/207/206 193/203/202 192/198/197
f 204/208/207 198/206/205 197/200/199
f 207/209/208 201/204/203 200/202/201
f 208/210/209 202/211/210 201/204/203
f 210/212/211 204/208/207 203/205/204
f 153/146/5 210/212/211 203/205/204
f 205/213/212 199/207/206 198/206/205
f 206/214/213 200/202/201 199/207/206
f 204/208/207 212/215/214 205/213/212
f 213/216/215 207/209/208 206/214/213
f 214/217/216 208/210/209 207/209/208
f 208/210/209 216/218/217 209/219/218
f 210/212/211 218/220/219 211/221/220
f 153/146/5 217/222/221 210/212/211
f 212/215/214 206/214/213 205/213/212
f 211/221/220 219/223/222 212/215/214
f 212/215/214 220/224/223 213/216/215
f 213/216/215 221/225/224 214/217/216
f 214/217/216 222/226/225 215/227/226
f 215/227/226 223/228/227 216/218/217
f 217/222/221 225/229/228 218/220/219
f 153/146/5 224/156/155 217/222/221
f 218/220/219 226/230/229 219/223/222
f 219/223/222 227/152/151 220/224/223
f 220/224/223 228/155/154 221/225/224
f 221/225/224 229/149/148 222/226/225
f 222/226/225 230/158/157 223/228/227
f 146/148/147 225/229/228 224/156/155
f 226/230/229 147/160/159 148/153/152
f 236/231/230 339/232/231 338/233/232
f 334/234/233 233/235/234 335/236/235
f 335/236/235 234/237/236 336/238/237
f 234/237/236 243/239/238 244/240/239
f 341/241/240 240/242/241 342/243/242
f 241/244/243 232/245/244 231/246/245
f 312/247/246 342/243/242 240/242/241
f 291/248/5 241/244/243 231/246/245
f 337/249/247 236/231/230 338/233/232
f 240/242/241 250/250/248 312/247/246
f 237/251/249 248/252/250 238/253/251
f 242/254/252 233/235/234 232/245/244
f 238/253/251 249/255/253 239/256/254
f 239/256/254 250/250/248 240/242/241
f 244/240/239 235/257/255 234/237/236
f 251/258/256 242/254/252 241/244/243
f 291/248/5 251/258/256 241/244/243
f 235/259/255 246/260/257 236/231/230
f 236/231/230 247/261/258 237/251/249
f 247/261/258 258/262/259 248/252/250
f 253/263/260 244/240/239 243/239/238
f 254/264/261 245/265/262 244/240/239
f 252/266/263 243/239/238 242/254/252
f 248/252/250 259/267/264 249/255/253
f 249/255/253 260/268/265 250/250/248
f 251/258/256 262/269/266 252/266/263
f 291/248/5 261/270/267 251/258/256
f 245/271/262 256/272/268 246/260/257
f 246/260/257 257/273/269 247/261/258
f 250/250/248 260/268/265 312/247/246
f 267/274/270 258/262/259 257/273/269
f 253/263/260 264/275/271 254/264/261
f 254/264/261 265/276/272 255/277/273
f 268/278/274 259/267/264 258/262/259
f 269/279/275 260/268/265 259/267/264
f 261/270/267 272/280/276 262/269/266
f 291/248/5 271/281/277 261/270/267
f 265/282/272 256/272/268 255/283/273
f 266/284/278 257/273/269 256/272/268
f 260/268/265 270/285/279 312/247/246
f 252/266/263 263/286/280 253/263/260
f 263/286/280 274/287/281 264/275/271
f 264/275/271 275/288/282 265/276/272
f 277/289/283 268/278/274 267/274/270
f 279/290/284 270/285/279 269/279/275
f 271/281/277 282/291/285 272/280/276
f 291/248/5 281/292/286 271/281/277
f 275/293/282 266/284/278 265/282/272
f 276/294/287 267/274/270 266/284/278
f 270/285/279 280/295/288 312/247/246
f 262/269/266 273/296/289 263/286/280
f 278/297/290 269/279/275 268/278/274
f 274/287/281 285/298/291 275/288/282
f 287/299/292 278/297/290 277/289/283
f 273/296/289 284/300/293 274/287/281
f 291/248/5 292/301/294 281/292/286
f 290/302/295 301/303/296 312/247/246
f 285/304/291 276/294/287 275/293/282
f 286/305/297 277/289/283 276/294/287
f 280/295/288 290/302/295 312/247/246
f 272/280/276 283/306/298 273/296/289
f 288/307/299 279/290/284 278/297/290
f 289/308/300 280/295/288 279/290/284
f 287/299/292 299/309/301 288/307/299
f 294/310/302 284/300/293 283/306/298
f 295/311/303 285/298/291 284/300/293
f 285/304/291 297/312/304 286/305/297
f 286/305/297 298/313/305 287/299/292
f 292/301/294 282/291/285 281/292/286
f 293/314/306 283/306/298 282/291/285
f 288/307/299 300/315/307 289/308/300
f 289/308/300 301/303/296 290/302/295
f 302/316/308 293/314/306 292/301/294
f 291/248/5 302/316/308 292/301/294
f 298/313/305 309/317/309 299/309/301
f 304/318/310 295/311/303 294/310/302
f 305/319/311 296/320/312 295/311/303
f 297/312/304 308/321/313 298/313/305
f 301/303/296 311/322/314 312/247/246
f 303/323/315 294/310/302 293/314/306
f 299/309/301 310/324/316 300/315/307
f 300/315/307 311/322/314 301/303/296
f 313/325/317 303/323/315 302/316/308
f 291/248/5 313/325/317 302/316/308
f 296/326/312 307/327/318 297/312/304
f 308/321/313 320/328/319 309/317/309
f 315/329/320 305/319/311 304/318/310
f 316/330/321 306/331/322 305/319/311
f 314/332/323 304/318/310 303/323/315
f 309/317/309 321/333/324 310/324/316
f 310/324/316 322/334/325 311/322/314
f 313/325/317 324/335/326 314/332/323
f 291/248/5 323/336/327 313/325/317
f 306/337/322 318/338/328 307/327/318
f 307/327/318 319/339/329 308/321/313
f 311/322/314 322/334/325 312/247/246
f 329/340/330 320/328/319 319/339/329
f 315/329/320 326/341/331 316/330/321
f 316/330/321 327/342/332 317/343/333
f 330/344/334 321/333/324 320/328/319
f 331/345/335 322/334/325 321/333/324
f 323/336/327 334/234/233 324/335/326
f 291/248/5 333/346/336 323/336/327
f 327/347/332 318/338/328 317/348/333
f 328/349/337 319/339/329 318/338/328
f 322/334/325 332/350/338 312/247/246
f 314/332/323 325/351/339 315/329/320
f 325/351/339 336/238/237 326/341/331
f 326/341/331 337/352/247 327/342/332
f 339/232/231 330/344/334 329/340/330
f 341/241/240 332/350/338 331/345/335
f 333/346/336 232/245/244 334/234/233
f 337/249/247 328/349/337 327/347/332
f 338/233/232 329/340/330 328/349/337
f 332/350/338 342/243/242 312/247/246
f 324/335/326 335/236/235 325/351/339
f 340/353/340 331/345/335 330/344/334
f 337/352/247 234/237/236 235/257/255
f 333/346/336 291/248/5 231/246/245
f 340/353/340 237/251/249 238/253/251
f 347/354/341 403/355/342 402/356/343
f 349/357/5 355/358/344 350/359/345
f 349/357/5 350/359/345 344/360/346
f 343/361/347 345/362/348 346/363/349
f 346/363/349 402/356/343 343/361/347
f 355/358/344 351/364/350 350/359/345
f 351/364/350 346/363/349 345/362/348
f 352/365/351 347/354/341 346/363/349
f 353/366/352 348/367/353 347/354/341
f 361/368/354 355/358/344 360/369/355
f 356/370/356 352/365/351 351/364/350
f 357/371/357 353/366/352 352/365/351
f 358/372/358 354/373/359 353/366/352
f 349/357/5 360/369/355 355/358/344
f 366/374/360 360/369/355 365/375/361
f 356/370/356 362/376/362 357/371/357
f 357/371/357 363/377/363 358/372/358
f 358/372/358 364/378/364 359/379/365
f 349/357/5 365/375/361 360/369/355
f 371/380/366 365/375/361 370/381/367
f 361/368/354 367/382/368 362/376/362
f 362/376/362 368/383/369 363/377/363
f 363/377/363 369/384/370 364/378/364
f 349/357/5 370/381/367 365/375/361
f 375/385/371 371/380/366 370/381/367
f 367/382/368 373/386/372 368/383/369
f 366/374/360 372/387/373 367/382/368
f 368/383/369 374/388/374 369/384/370
f 349/357/5 375/385/371 370/381/367
f 380/389/375 376/390/376 375/385/371
f 377/391/377 373/386/372 372/387/373
f 376/390/376 372/387/373 371/380/366
f 378/392/378 374/388/374 373/386/372
f 349/357/5 380/389/375 375/385/371
f 385/393/379 381/394/380 380/389/375
f 382/395/381 378/392/378 377/391/377
f 381/394/380 377/391/377 376/390/376
f 383/396/382 379/397/383 378/392/378
f 349/357/5 385/393/379 380/389/375
f 391/398/384 385/393/379 390/399/385
f 387/400/386 383/396/382 382/395/381
f 386/401/387 382/395/381 381/394/380
f 396/402/388 390/399/385 395/403/389
f 388/404/390 384/405/391 383/396/382
f 349/357/5 390/399/385 385/393/379
f 386/401/387 392/406/392 387/400/386
f 387/400/386 393/407/393 388/404/390
f 388/404/390 394/408/394 389/409/395
f 349/357/5 395/403/389 390/399/385
f 401/410/396 395/403/389 400/411/397
f 391/398/384 397/412/398 392/406/392
f 392/406/392 398/413/399 393/407/393
f 393/407/393 399/414/400 394/408/394
f 349/357/5 400/411/397 395/403/389
f 344/360/346 401/410/396 400/411/397
f 396/402/388 343/361/347 397/412/398
f 397/412/398 402/356/343 398/413/399
f 398/413/399 403/355/342 399/414/400
f 349/357/5 344/360/346 400/411/397
f 411/415/401 406/416/402 405/417/403
f 406/416/402 463/418/404 462/419/405
f 460/420/406 409/421/5 404/422/407
f 463/418/404 408/423/408 464/424/409
f 409/421/5 410/425/410 404/422/407
f 415/426/411 411/415/401 410/425/410
f 412/427/412 407/428/413 406/416/402
f 413/429/414 408/423/408 407/428/413
f 409/421/5 415/426/411 410/425/410
f 421/430/415 415/426/411 420/431/416
f 416/432/417 412/427/412 411/415/401
f 426/433/418 420/431/416 425/434/419
f 417/435/420 413/429/414 412/427/412
f 418/436/421 414/437/422 413/429/414
f 409/421/5 420/431/416 415/426/411
f 416/432/417 422/438/423 417/435/420
f 409/421/5 425/434/419 420/431/416
f 431/439/424 425/434/419 430/440/425
f 417/435/420 423/441/426 418/436/421
f 423/441/426 419/442/427 418/436/421
f 423/441/426 429/443/428 424/444/429
f 421/430/415 427/445/430 422/438/423
f 409/421/5 430/440/425 425/434/419
f 436/446/431 430/440/425 435/447/432
f 422/438/423 428/448/433 423/441/426
f 428/448/433 434/449/434 429/443/428
f 426/433/418 432/450/435 427/445/430
f 409/421/5 435/447/432 430/440/425
f 440/451/436 436/446/431 435/447/432
f 427/445/430 433/452/437 428/448/433
f 438/453/438 434/449/434 433/452/437
f 436/446/431 432/450/435 431/439/424
f 409/421/5 440/451/436 435/447/432
f 445/454/439 441/455/440 440/451/436
f 432/450/435 438/453/438 433/452/437
f 442/456/441 438/453/438 437/457/442
f 443/458/443 439/459/444 438/453/438
f 441/455/440 437/457/442 436/446/431
f 409/421/5 445/454/439 440/451/436
f 451/460/445 445/454/439 450/461/446
f 447/462/447 443/458/443 442/456/441
f 448/463/448 444/464/449 443/458/443
f 446/465/450 442/456/441 441/455/440
f 409/421/5 450/461/446 445/454/439
f 456/466/451 450/461/446 455/467/452
f 447/462/447 453/468/453 448/463/448
f 448/463/448 454/469/454 449/470/455
f 451/460/445 447/462/447 446/465/450
f 409/421/5 455/467/452 450/461/446
f 461/471/456 455/467/452 460/420/406
f 451/460/445 457/472/457 452/473/458
f 452/473/458 458/474/459 453/468/453
f 453/468/453 459/475/460 454/469/454
f 409/421/5 460/420/406 455/467/452
f 404/422/407 461/471/456 460/420/406
f 456/466/451 462/419/405 457/472/457
f 457/472/457 463/418/404 458/474/459
f 458/474/459 464/424/409 459/475/460
f 462/419/405 405/417/403 406/416/402
f 469/476/461 467/477/462 468/478/463
f 465/479/464 467/477/462 471/480/465
f 468/478/463 467/477/462 465/479/464
f 470/481/466 467/477/462 469/476/461
f 471/480/465 467/477/462 466/482/467
f 467/477/462 470/481/466 466/482/467
f 476/476/468 474/477/469 475/478/470
f 472/479/471 474/477/469 478/480/472
f 475/478/470 474/477/469 472/479/471
f 477/481/473 474/477/469 476/476/468
f 478/480/472 474/477/469 473/482/474
f 474/477/469 477/481/473 473/482/474
f 483/476/475 481/477/476 482/478/477
f 479/479/478 481/477/476 485/480/479
f 482/478/477 481/477/476 479/479/478
f 484/481/480 481/477/476 483/476/475
f 485/480/479 481/477/476 480/482/481
f 481/477/476 484/481/480 480/482/481
f 490/476/482 488/477/483 489/478/484
f 486/479/485 488/477/483 492/480/486
f 489/478/484 488/477/483 486/479/485
f 491/481/487 488/477/483 490/476/482
f 492/480/486 488/477/483 487/482/488
f 488/477/483 491/481/487 487/482/488
f 497/476/489 495/477/490 496/478/491
f 493/479/492 495/477/490 499/480/493
f 496/478/491 495/477/490 493/479/492
f 498/481/494 495/477/490 497/476/489
f 499/480/493 495/477/490 494/482/495
f 495/477/490 498/481/494 494/482/495
f 504/476/496 502/477/497 503/478/498
f 500/479/499 502/477/497 506/480/500
f 503/478/498 502/477/497 500/479/499
f 505/481/501 502/477/497 504/476/496
f 506/480/500 502/477/497 501/482/502
f 502/477/497 505/481/501 501/482/502
f 511/483/503 509/484/504 510/485/505
f 507/486/506 509/484/504 513/487/507
f 510/485/505 509/484/504 507/486/506
f 512/488/508 509/484/504 511/483/503
f 513/487/507 509/484/504 508/489/509
f 509/484/504 512/488/508 508/489/509
f 518/483/510 516/484/511 517/485/512
f 514/486/513 516/484/511 520/487/514
f 517/485/512 516/484/511 514/486/513
f 519/488/515 516/484/511 518/483/510
f 520/487/514 516/484/511 515/489/516
f 516/484/511 519/488/515 515/489/516
f 525/483/517 523/484/518 524/485/519
f 521/486/520 523/484/518 527/487/521
f 524/485/519 523/484/518 521/486/520
f 526/488/522 523/484/518 525/483/517
f 527/487/521 523/484/518 522/489/523
f 523/484/518 526/488/522 522/489/523
f 532/483/524 530/484/525 531/485/526
f 528/486/527 530/484/525 534/487/528
f 531/485/526 530/484/525 528/486/527
f 533/488/529 530/484/525 532/483/524
f 534/487/528 530/484/525 529/489/530
f 530/484/525 533/488/529 529/489/530
f 539/483/531 537/484/532 538/485/533
f 535/486/534 537/484/532 541/487/535
f 538/485/533 537/484/532 535/486/534
f 540/488/536 537/484/532 539/483/531
f 541/487/535 537/484/532 536/489/537
f 537/484/532 540/488/536 536/489/537
f 546/483/538 544/484/539 545/485/540
f 542/486/541 544/484/539 548/487/542
f 545/485/540 544/484/539 542/486/541
f 547/488/543 544/484/539 546/483/538
f 548/487/542 544/484/539 543/489/544
f 544/484/539 547/488/543 543/489/544
f 553/483/545 551/484/546 552/485/547
f 549/486/548 551/484/546 555/487/549
f 552/485/547 551/484/546 549/486/548
f 554/488/550 551/484/546 553/483/545
f 555/487/549 551/484/546 550/489/551
f 551/484/546 554/488/550 550/489/551
f 560/483/552 558/484/553 559/485/554
f 556/486/555 558/484/553 562/487/556
f 559/485/554 558/484/553 556/486/555
f 561/488/557 558/484/553 560/483/552
f 562/487/556 558/484/553 557/489/558
f 558/484/553 561/488/557 557/489/558
f 567/483/559 565/484/560 566/485/561
f 563/486/562 565/484/560 569/487/563
f 566/485/561 565/484/560 563/486/562
f 568/488/564 565/484/560 567/483/559
f 569/487/563 565/484/560 564/489/565
f 565/484/560 568/488/564 564/489/565
f 574/483/566 572/484/567 573/485/568
f 570/486/569 572/484/567 576/487/570
f 573/485/568 572/484/567 570/486/569
f 575/488/571 572/484/567 574/483/566
f 576/487/570 572/484/567 571/489/572
f 572/484/567 575/488/571 571/489/572
f 581/483/573 579/484/574 580/485/575
f 577/486/576 579/484/574 583/487/577
f 580/485/575 579/484/574 577/486/576
f 582/488/578 579/484/574 581/483/573
f 583/487/577 579/484/574 578/489/579
f 579/484/574 582/488/578 578/489/579
f 588/483/580 586/484/581 587/485/582
f 584/486/583 586/484/581 590/487/584
f 587/485/582 586/484/581 584/486/583
f 589/488/585 586/484/581 588/483/580
f 590/487/584 586/484/581 585/489/586
f 586/484/581 589/488/585 585/489/586
f 595/483/587 593/484/588 594/485/589
f 591/486/590 593/484/588 597/487/591
f 594/485/589 593/484/588 591/486/590
f 596/488/592 593/484/588 595/483/587
f 597/487/591 593/484/588 592/489/593
f 593/484/588 596/488/592 592/489/593
f 602/483/594 600/484/595 601/485/596
f 598/486/597 600/484/595 604/487/598
f 601/485/596 600/484/595 598/486/597
f 603/488/599 600/484/595 602/483/594
f 604/487/598 600/484/595 599/489/600
f 600/484/595 603/488/599 599/489/600
f 609/483/601 607/484/602 608/485/603
f 605/486/604 607/484/602 611/487/605
f 608/485/603 607/484/602 605/486/604
f 610/488/606 607/484/602 609/483/601
f 611/487/605 607/484/602 606/489/607
f 607/484/602 610/488/606 606/489/607
f 616/483/608 614/484/609 615/485/610
f 612/486/611 614/484/609 618/487/612
f 615/485/610 614/484/609 612/486/611
f 617/488/613 614/484/609 616/483/608
f 618/487/612 614/484/609 613/489/614
f 614/484/609 617/488/613 613/489/614
f 147/160/159 154/147/146 155/159/158
f 350/359/345 345/362/348 344/360/346
f 410/425/410 405/417/403 404/422/407
f 341/241/240 238/253/251 239/256/254
f 144/1/1 1/139/139 5/2/2
f 145/7/7 144/1/1 6/3/3
f 4/9/9 3/145/145 9/10/10
f 5/2/2 4/9/9 10/11/11
f 9/10/10 8/18/18 15/13/13
f 10/11/11 9/10/10 16/14/14
f 11/12/12 10/11/11 17/15/15
f 6/3/3 5/2/2 11/12/12
f 7/8/8 6/3/3 12/17/17
f 18/16/16 17/15/15 23/20/20
f 12/17/17 11/12/12 18/16/16
f 13/19/19 12/17/17 19/22/22
f 16/14/14 15/13/13 21/24/24
f 17/15/15 16/14/14 22/25/25
f 20/23/23 19/22/22 25/26/26
f 22/25/25 21/24/24 27/28/28
f 28/29/29 29/30/30 23/20/20
f 24/21/21 23/20/20 29/30/30
f 19/22/22 18/16/16 24/21/21
f 29/30/30 28/29/29 34/32/32
f 30/31/31 29/30/30 35/33/33
f 25/26/26 24/21/21 30/31/31
f 26/27/27 25/26/26 31/35/35
f 28/29/29 27/28/28 33/37/37
f 32/36/36 31/35/35 37/38/38
f 33/37/37 39/46/46 40/40/40
f 34/32/32 40/40/40 41/41/41
f 35/33/33 41/41/41 42/42/42
f 31/35/35 30/31/31 36/34/34
f 40/40/40 46/48/48 47/43/43
f 41/41/41 47/43/43 48/44/44
f 36/34/34 42/42/42 43/45/45
f 37/38/38 43/45/45 44/47/47
f 39/46/46 45/50/50 46/48/48
f 42/42/42 48/44/44 49/49/49
f 43/45/45 49/49/49 50/51/51
f 45/50/50 51/58/58 52/52/52
f 46/48/48 52/52/52 53/53/53
f 47/43/43 53/53/53 54/54/54
f 52/52/52 58/60/60 59/55/55
f 53/53/53 59/55/55 60/56/56
f 48/44/44 54/54/54 55/57/57
f 49/49/49 55/57/57 56/59/59
f 51/58/58 57/63/63 58/60/60
f 59/55/55 65/66/66 66/61/61
f 54/54/54 60/56/56 61/62/62
f 55/57/57 61/62/62 62/64/64
f 57/63/63 63/67/67 64/65/65
f 58/60/60 64/65/65 65/66/66
f 63/67/67 69/76/76 70/68/68
f 64/65/65 70/68/68 71/69/69
f 65/66/66 71/69/69 72/70/70
f 60/56/56 66/61/61 67/71/71
f 61/62/62 67/71/71 68/72/72
f 72/70/70 71/69/69 77/73/73
f 66/61/61 72/70/70 73/75/75
f 67/71/71 73/75/75 74/77/77
f 75/78/78 76/79/79 70/68/68
f 71/69/69 70/68/68 76/79/79
f 76/79/79 75/78/78 81/80/80
f 77/73/73 76/79/79 82/81/81
f 78/74/74 77/73/73 83/82/82
f 73/75/75 72/70/70 78/74/74
f 74/77/77 73/75/75 79/84/84
f 84/83/83 83/82/82 89/86/86
f 79/84/84 78/74/74 84/83/83
f 80/85/85 79/84/84 85/88/88
f 82/81/81 81/80/80 87/90/90
f 83/82/82 82/81/81 88/91/91
f 88/91/91 87/90/90 93/92/92
f 89/86/86 88/91/91 94/93/93
f 90/87/87 89/86/86 95/94/94
f 85/88/88 84/83/83 90/87/87
f 86/89/89 85/88/88 91/96/96
f 96/95/95 95/94/94 101/98/98
f 91/96/96 90/87/87 96/95/95
f 92/97/97 91/96/96 97/100/100
f 94/93/93 93/92/92 99/102/102
f 95/94/94 94/93/93 100/103/103
f 98/101/101 97/100/100 103/104/104
f 100/103/103 99/102/102 105/106/106
f 106/107/107 107/108/108 101/98/98
f 102/99/99 101/98/98 107/108/108
f 97/100/100 96/95/95 102/99/99
f 106/107/107 112/114/114 113/110/110
f 107/108/108 113/110/110 114/111/111
f 103/104/104 102/99/99 108/109/109
f 104/105/105 103/104/104 109/112/112
f 105/106/106 111/116/116 112/114/114
f 108/109/109 114/111/111 115/115/115
f 109/112/112 115/115/115 116/117/117
f 111/116/116 117/124/124 118/118/118
f 112/114/114 118/118/118 119/119/119
f 113/110/110 119/119/119 120/120/120
f 118/118/118 124/126/126 125/121/121
f 119/119/119 125/121/121 126/122/122
f 114/111/111 120/120/120 121/123/123
f 115/115/115 121/123/123 122/125/125
f 117/124/124 123/128/128 124/126/126
f 120/120/120 126/122/122 127/127/127
f 121/123/123 127/127/127 128/129/129
f 123/128/128 129/136/136 130/130/130
f 124/126/126 130/130/130 131/131/131
f 125/121/121 131/131/131 132/132/132
f 130/130/130 136/138/138 137/133/133
f 131/131/131 137/133/133 138/134/134
f 126/122/122 132/132/132 133/135/135
f 127/127/127 133/135/135 134/137/137
f 129/136/136 135/141/141 136/138/138
f 137/133/133 143/144/144 1/139/139
f 132/132/132 138/134/134 139/140/140
f 133/135/135 139/140/140 140/142/142
f 135/141/141 141/4/4 142/143/143
f 136/138/138 142/143/143 143/144/144
f 142/143/143 141/4/4 2/6/6
f 143/144/144 142/143/143 3/145/145
f 1/139/139 143/144/144 4/9/9
f 138/134/134 1/139/139 144/1/1
f 139/140/140 144/1/1 145/7/7
f 3/145/145 2/6/6 8/18/18
f 229/149/148 228/155/154 150/150/149
f 227/152/151 226/230/229 148/153/152
f 228/155/154 227/152/151 149/154/153
f 229/149/148 151/151/150 152/157/156
f 155/159/158 156/161/160 148/153/152
f 156/161/160 157/162/161 149/154/153
f 157/162/161 158/163/162 150/150/149
f 158/163/162 159/164/163 151/151/150
f 159/164/163 160/171/170 152/157/156
f 161/165/164 162/166/165 155/159/158
f 162/166/165 163/167/166 156/161/160
f 163/167/166 164/168/167 157/162/161
f 164/168/167 165/169/168 158/163/162
f 165/169/168 166/170/169 159/164/163
f 166/170/169 167/179/178 160/171/170
f 161/165/164 168/173/172 169/172/171
f 162/166/165 169/172/171 170/174/173
f 163/167/166 170/174/173 171/176/175
f 164/168/167 171/176/175 172/177/176
f 172/177/176 173/187/186 166/170/169
f 166/170/169 173/187/186 174/178/177
f 168/173/172 175/175/174 176/180/179
f 169/172/171 176/180/179 177/181/180
f 175/175/174 182/183/182 183/182/181
f 170/174/173 177/181/180 178/184/183
f 171/176/175 178/184/183 179/185/184
f 172/177/176 179/185/184 180/186/185
f 173/187/186 180/186/185 181/188/187
f 176/180/179 183/182/181 184/189/188
f 180/186/185 187/195/194 188/190/189
f 182/183/182 189/192/191 190/191/190
f 177/181/180 184/189/188 185/193/192
f 178/184/183 185/193/192 186/194/193
f 179/185/184 186/194/193 187/195/194
f 190/191/190 191/201/200 184/189/188
f 187/195/194 194/199/198 195/196/195
f 196/197/196 197/200/199 190/191/190
f 184/189/188 191/201/200 192/198/197
f 192/198/197 193/203/202 186/194/193
f 186/194/193 193/203/202 194/199/198
f 197/200/199 198/206/205 191/201/200
f 200/202/201 201/204/203 194/199/198
f 201/204/203 202/211/210 195/196/195
f 203/205/204 204/208/207 197/200/199
f 198/206/205 199/207/206 192/198/197
f 199/207/206 200/202/201 193/203/202
f 204/208/207 205/213/212 198/206/205
f 207/209/208 208/210/209 201/204/203
f 208/210/209 209/219/218 202/211/210
f 210/212/211 211/221/220 204/208/207
f 205/213/212 206/214/213 199/207/206
f 206/214/213 207/209/208 200/202/201
f 204/208/207 211/221/220 212/215/214
f 213/216/215 214/217/216 207/209/208
f 214/217/216 215/227/226 208/210/209
f 208/210/209 215/227/226 216/218/217
f 210/212/211 217/222/221 218/220/219
f 212/215/214 213/216/215 206/214/213
f 211/221/220 218/220/219 219/223/222
f 212/215/214 219/223/222 220/224/223
f 213/216/215 220/224/223 221/225/224
f 214/217/216 221/225/224 222/226/225
f 215/227/226 222/226/225 223/228/227
f 217/222/221 224/156/155 225/229/228
f 218/220/219 225/229/228 226/230/229
f 219/223/222 226/230/229 227/152/151
f 220/224/223 227/152/151 228/155/154
f 221/225/224 228/155/154 229/149/148
f 222/226/225 229/149/148 230/158/157
f 146/148/147 147/160/159 225/229/228
f 226/230/229 225/229/228 147/160/159
f 236/231/230 237/251/249 339/232/231
f 334/234/233 232/245/244 233/235/234
f 335/236/235 233/235/234 234/237/236
f 234/237/236 233/235/234 243/239/238
f 341/241/240 239/256/254 240/242/241
f 241/244/243 242/254/252 232/245/244
f 337/249/247 235/259/255 236/231/230
f 237/251/249 247/261/258 248/252/250
f 242/254/252 243/239/238 233/235/234
f 238/253/251 248/252/250 249/255/253
f 239/256/254 249/255/253 250/250/248
f 244/240/239 245/265/262 235/257/255
f 251/258/256 252/266/263 242/254/252
f 235/259/255 245/271/262 246/260/257
f 236/231/230 246/260/257 247/261/258
f 247/261/258 257/273/269 258/262/259
f 253/263/260 254/264/261 244/240/239
f 254/264/261 255/277/273 245/265/262
f 252/266/263 253/263/260 243/239/238
f 248/252/250 258/262/259 259/267/264
f 249/255/253 259/267/264 260/268/265
f 251/258/256 261/270/267 262/269/266
f 245/271/262 255/283/273 256/272/268
f 246/260/257 256/272/268 257/273/269
f 267/274/270 268/278/274 258/262/259
f 253/263/260 263/286/280 264/275/271
f 254/264/261 264/275/271 265/276/272
f 268/278/274 269/279/275 259/267/264
f 269/279/275 270/285/279 260/268/265
f 261/270/267 271/281/277 272/280/276
f 265/282/272 266/284/278 256/272/268
f 266/284/278 267/274/270 257/273/269
f 252/266/263 262/269/266 263/286/280
f 263/286/280 273/296/289 274/287/281
f 264/275/271 274/287/281 275/288/282
f 277/289/283 278/297/290 268/278/274
f 279/290/284 280/295/288 270/285/279
f 271/281/277 281/292/286 282/291/285
f 275/293/282 276/294/287 266/284/278
f 276/294/287 277/289/283 267/274/270
f 262/269/266 272/280/276 273/296/289
f 278/297/290 279/290/284 269/279/275
f 274/287/281 284/300/293 285/298/291
f 287/299/292 288/307/299 278/297/290
f 273/296/289 283/306/298 284/300/293
f 285/304/291 286/305/297 276/294/287
f 286/305/297 287/299/292 277/289/283
f 272/280/276 282/291/285 283/306/298
f 288/307/299 289/308/300 279/290/284
f 289/308/300 290/302/295 280/295/288
f 287/299/292 298/313/305 299/309/301
f 294/310/302 295/311/303 284/300/293
f 295/311/303 296/320/312 285/298/291
f 285/304/291 296/326/312 297/312/304
f 286/305/297 297/312/304 298/313/305
f 292/301/294 293/314/306 282/291/285
f 293/314/306 294/310/302 283/306/298
f 288/307/299 299/309/301 300/315/307
f 289/308/300 300/315/307 301/303/296
f 302/316/308 303/323/315 293/314/306
f 298/313/305 308/321/313 309/317/309
f 304/318/310 305/319/311 295/311/303
f 305/319/311 306/331/322 296/320/312
f 297/312/304 307/327/318 308/321/313
f 303/323/315 304/318/310 294/310/302
f 299/309/301 309/317/309 310/324/316
f 300/315/307 310/324/316 311/322/314
f 313/325/317 314/332/323 303/323/315
f 296/326/312 306/337/322 307/327/318
f 308/321/313 319/339/329 320/328/319
f 315/329/320 316/330/321 305/319/311
f 316/330/321 317/343/333 306/331/322
f 314/332/323 315/329/320 304/318/310
f 309/317/309 320/328/319 321/333/324
f 310/324/316 321/333/324 322/334/325
f 313/325/317 323/336/327 324/335/326
f 306/337/322 317/348/333 318/338/328
f 307/327/318 318/338/328 319/339/329
f 329/340/330 330/344/334 320/328/319
f 315/329/320 325/351/339 326/341/331
f 316/330/321 326/341/331 327/342/332
f 330/344/334 331/345/335 321/333/324
f 331/345/335 332/350/338 322/334/325
f 323/336/327 333/346/336 334/234/233
f 327/347/332 328/349/337 318/338/328
f 328/349/337 329/340/330 319/339/329
f 314/332/323 324/335/326 325/351/339
f 325/351/339 335/236/235 336/238/237
f 326/341/331 336/238/237 337/352/247
f 339/232/231 340/353/340 330/344/334
f 341/241/240 342/243/242 332/350/338
f 333/346/336 231/246/245 232/245/244
f 337/249/247 338/233/232 328/349/337
f 338/233/232 339/232/231 329/340/330
f 324/335/326 334/234/233 335/236/235
f 340/353/340 341/241/240 331/345/335
f 337/352/247 336/238/237 234/237/236
f 340/353/340 339/232/231 237/251/249
f 347/354/341 348/367/353 403/355/342
f 343/361/347 401/410/396 345/362/348
f 346/363/349 347/354/341 402/356/343
f 355/358/344 356/370/356 351/364/350
f 351/364/350 352/365/351 346/363/349
f 352/365/351 353/366/352 347/354/341
f 353/366/352 354/373/359 348/367/353
f 361/368/354 356/370/356 355/358/344
f 356/370/356 357/371/357 352/365/351
f 357/371/357 358/372/358 353/366/352
f 358/372/358 359/379/365 354/373/359
f 366/374/360 361/368/354 360/369/355
f 356/370/356 361/368/354 362/376/362
f 357/371/357 362/376/362 363/377/363
f 358/372/358 363/377/363 364/378/364
f 371/380/366 366/374/360 365/375/361
f 361/368/354 366/374/360 367/382/368
f 362/376/362 367/382/368 368/383/369
f 363/377/363 368/383/369 369/384/370
f 375/385/371 376/390/376 371/380/366
f 367/382/368 372/387/373 373/386/372
f 366/374/360 371/380/366 372/387/373
f 368/383/369 373/386/372 374/388/374
f 380/389/375 381/394/380 376/390/376
f 377/391/377 378/392/378 373/386/372
f 376/390/376 377/391/377 372/387/373
f 378/392/378 379/397/383 374/388/374
f 385/393/379 386/401/387 381/394/380
f 382/395/381 383/396/382 378/392/378
f 381/394/380 382/395/381 377/391/377
f 383/396/382 384/405/391 379/397/383
f 391/398/384 386/401/387 385/393/379
f 387/400/386 388/404/390 383/396/382
f 386/401/387 387/400/386 382/395/381
f 396/402/388 391/398/384 390/399/385
f 388/404/390 389/409/395 384/405/391
f 386/401/387 391/398/384 392/406/392
f 387/400/386 392/406/392 393/407/393
f 388/404/390 393/407/393 394/408/394
f 401/410/396 396/402/388 395/403/389
f 391/398/384 396/402/388 397/412/398
f 392/406/392 397/412/398 398/413/399
f 393/407/393 398/413/399 399/414/400
f 344/360/346 345/362/348 401/410/396
f 396/402/388 401/410/396 343/361/347
f 397/412/398 343/361/347 402/356/343
f 398/413/399 402/356/343 403/355/342
f 411/415/401 412/427/412 406/416/402
f 406/416/402 407/428/413 463/418/404
f 463/418/404 407/428/413 408/423/408
f 415/426/411 416/432/417 411/415/401
f 412/427/412 413/429/414 407/428/413
f 413/429/414 414/437/422 408/423/408
f 421/430/415 416/432/417 415/426/411
f 416/432/417 417/435/420 412/427/412
f 426/433/418 421/430/415 420/431/416
f 417/435/420 418/436/421 413/429/414
f 418/436/421 419/442/427 414/437/422
f 416/432/417 421/430/415 422/438/423
f 431/439/424 426/433/418 425/434/419
f 417/435/420 422/438/423 423/441/426
f 423/441/426 424/444/429 419/442/427
f 423/441/426 428/448/433 429/443/428
f 421/430/415 426/433/418 427/445/430
f 436/446/431 431/439/424 430/440/425
f 422/438/423 427/445/430 428/448/433
f 428/448/433 433/452/437 434/449/434
f 426/433/418 431/439/424 432/450/435
f 440/451/436 441/455/440 436/446/431
f 427/445/430 432/450/435 433/452/437
f 438/453/438 439/459/444 434/449/434
f 436/446/431 437/457/442 432/450/435
f 445/454/439 446/465/450 441/455/440
f 432/450/435 437/457/442 438/453/438
f 442/456/441 443/458/443 438/453/438
f 443/458/443 444/464/449 439/459/444
f 441/455/440 442/456/441 437/457/442
f 451/460/445 446/465/450 445/454/439
f 447/462/447 448/463/448 443/458/443
f 448/463/448 449/470/455 444/464/449
f 446/465/450 447/462/447 442/456/441
f 456/466/451 451/460/445 450/461/446
f 447/462/447 452/473/458 453/468/453
f 448/463/448 453/468/453 454/469/454
f 451/460/445 452/473/458 447/462/447
f 461/471/456 456/466/451 455/467/452
f 451/460/445 456/466/451 457/472/457
f 452/473/458 457/472/457 458/474/459
f 453/468/453 458/474/459 459/475/460
f 404/422/407 405/417/403 461/471/456
f 456/466/451 461/471/456 462/419/405
f 457/472/457 462/419/405 463/418/404
f 458/474/459 463/418/404 464/424/409
f 462/419/405 461/471/456 405/417/403
f 147/160/159 146/148/147 154/147/146
f 350/359/345 351/364/350 345/362/348
f 410/425/410 411/415/401 405/417/403
f 341/241/240 340/353/340 238/253/251
