# Blender 4.3.0
# www.blender.org
mtllib firecamp.mtl
o pCube5474
v -0.500000 -0.145777 0.045765
v 0.500000 -0.145777 0.045765
v -0.500000 -0.058553 0.045765
v 0.500000 -0.058553 0.045765
v -0.500000 -0.058553 -0.041459
v 0.500000 -0.058553 -0.041459
v -0.500000 -0.145777 -0.041459
v 0.500000 -0.145777 -0.041459
v -0.001891 -0.067979 0.036338
v -0.001891 -0.067979 -0.032034
v -0.001891 -0.136352 -0.032034
v -0.001891 -0.136352 0.036339
v -0.407175 -0.145777 -0.291293
v 0.352310 -0.167281 0.275092
v -0.407175 -0.058553 -0.291293
v 0.352310 -0.037050 0.275092
v -0.350222 -0.058553 -0.357357
v 0.424761 -0.037050 0.166874
v -0.350222 -0.145777 -0.357357
v 0.424761 -0.167281 0.166874
v -0.023755 -0.089343 0.026810
v 0.020890 -0.089343 -0.024975
v 0.020890 -0.136352 -0.024975
v -0.023755 -0.136352 0.026810
v 0.308051 -0.145777 -0.394089
v -0.439985 -0.169251 0.195081
v 0.308051 -0.058553 -0.394089
v -0.439985 -0.035080 0.195081
v 0.372000 -0.058553 -0.334771
v -0.341615 -0.035080 0.286325
v 0.372000 -0.145777 -0.334771
v -0.341615 -0.169251 0.286325
v -0.023777 -0.089343 -0.022484
v 0.026351 -0.089343 0.024014
v 0.026351 -0.136352 0.024014
v -0.023777 -0.136352 -0.022484
v -0.157064 -0.146363 -0.481070
v 0.025908 -0.151982 0.502803
v -0.133035 -0.006090 -0.480754
v 0.040635 -0.066010 0.502997
v 0.005573 -0.029784 -0.502681
v 0.125585 -0.080532 0.489559
v -0.018456 -0.170057 -0.502997
v 0.110858 -0.166504 0.489365
v -0.031417 -0.083782 0.005579
v 0.035174 -0.095166 -0.004955
v 0.027237 -0.141499 -0.005059
v -0.039354 -0.130116 0.005474
v 0.062407 0.059632 -0.126485
v 0.102621 0.037596 -0.215161
v 0.086036 0.023350 -0.074909
v 0.047189 0.025965 -0.207073
v 0.000320 0.127211 -0.168472
v -0.010021 0.104335 -0.223231
v 0.074558 0.171666 -0.248170
v 0.048035 0.289227 -0.212440
v -0.022820 0.082532 -0.085396
v 0.029152 0.015810 -0.011795
v 0.058443 0.089940 -0.144595
v 0.119837 0.030551 -0.089770
v -0.017908 0.041640 -0.252723
v 0.068939 -0.040778 -0.161851
v 0.091447 -0.034741 0.076425
v -0.108600 0.028268 -0.206874
v 0.060259 -0.093373 0.032255
v -0.028032 -0.064327 -0.092776
v -0.105272 0.148188 -0.232656
v -0.118055 0.207778 -0.123254
v -0.176345 0.170905 -0.205800
v -0.095131 0.346175 -0.243481
v -0.098838 0.269776 -0.235297
v -0.030161 0.278842 -0.283681
v -0.126095 0.096572 -0.057791
v -0.270119 0.060194 -0.090679
v -0.133470 -0.034077 -0.054597
v -0.092701 -0.013127 0.040594
v 0.035607 -0.007756 -0.127858
v -0.247486 0.048298 -0.005191
v -0.052548 0.037215 -0.089659
v -0.203438 0.161772 -0.020449
v -0.285925 0.128970 0.015294
v -0.303268 0.284892 -0.060682
v -0.296879 0.216927 -0.056107
v -0.325855 0.224992 -0.123185
v -0.017428 0.088165 0.090661
v -0.079462 0.036184 -0.037877
v 0.068195 0.095572 0.143359
v 0.000486 0.047274 0.257097
v -0.022048 -0.058694 0.098423
v -0.124599 -0.035146 0.037946
v -0.077222 0.351809 0.253892
v 0.056248 -0.087741 -0.033098
v -0.093497 0.033902 0.218444
v 0.028662 0.021442 0.013239
v 0.083906 -0.029108 -0.079559
v -0.088174 0.153821 0.243887
v -0.109431 0.213410 0.135812
v -0.161121 0.176538 0.222642
v -0.081553 0.275408 0.246021
v -0.009320 0.284475 0.288917
v -0.003451 0.225107 -0.134406
v 0.003451 0.162004 -0.106822
v 0.049072 0.120150 -0.196776
v 0.028172 0.198078 -0.235406
v -0.031818 0.183652 -0.233852
v -0.019999 0.095429 -0.187534
v -0.012507 0.291288 -0.207495
v -0.035016 0.338052 -0.132620
v -0.054291 0.309883 -0.200196
v 0.082892 0.587359 -0.142694
v 0.046152 0.448580 -0.195272
v 0.026750 0.074144 0.131265
v -0.013991 0.052108 0.219702
v 0.003427 0.037862 0.079550
v 0.041488 0.040477 0.211942
v 0.088586 0.141723 0.173622
v 0.098601 0.118847 0.228442
v 0.013876 0.186176 0.252878
v 0.040612 0.303738 0.217305
v 0.134510 0.082532 0.082680
v 0.082975 0.015810 0.008771
v 0.052896 0.089940 0.141396
v -0.008170 0.030551 0.086205
v 0.128604 0.041640 0.249974
v 0.042299 -0.040778 0.158587
v 0.021206 -0.034741 -0.079816
v 0.219567 0.028268 0.204666
v 0.052131 -0.093373 -0.035464
v 0.139677 -0.064327 0.090090
v 0.216085 0.148188 0.230425
v 0.229519 0.207778 0.121102
v 0.287316 0.170905 0.203994
v 0.205880 0.346175 0.241192
v 0.209635 0.269776 0.233030
v 0.140671 0.278842 0.281005
v 0.131068 0.088165 -0.093403
v 0.192338 0.036184 0.035500
v 0.045760 0.095572 -0.146610
v 0.114144 0.047274 -0.259944
v 0.135735 -0.058694 -0.101140
v 0.237925 -0.035146 -0.040054
v 0.191832 0.351807 -0.256276
v 0.056660 -0.087741 0.029915
v 0.207896 0.033902 -0.220733
v 0.084519 0.021442 -0.016257
v 0.028726 -0.029108 0.076210
v 0.202725 0.153821 -0.246205
v 0.223338 0.213410 -0.138005
v 0.275544 0.176537 -0.224529
v 0.196116 0.275408 -0.248381
v 0.124139 0.284474 -0.291704
v 0.233101 0.259904 -0.029495
v 0.098256 0.144224 -0.047122
v 0.068176 0.259903 0.085502
v 0.007110 0.167227 0.030312
v 0.143884 0.184532 0.194081
v 0.057579 0.055919 0.102695
v 0.308809 0.184532 0.079085
v 0.252896 0.055917 -0.033492
v 0.221160 0.659761 0.185300
v 0.143798 0.015573 -0.123511
v 0.036486 0.065339 -0.135711
v 0.067411 -0.026158 -0.091358
v 0.234847 0.163666 0.148771
v 0.149790 0.248344 0.026785
v 0.154957 0.019171 0.034197
v 0.231365 0.350801 0.174532
v 0.179921 0.402017 0.100751
v 0.244799 0.443790 0.065209
v 0.352025 0.350801 0.090401
v 0.302597 0.386249 0.148101
v 0.155952 0.554687 0.225112
v 0.153063 0.615174 0.181507
v 0.224915 0.540539 0.177136
v 0.197231 0.571203 0.244850
v -0.020957 0.290814 0.069461
v 0.030770 0.193196 0.041588
v -0.158406 0.292852 -0.077227
v -0.132009 0.195611 -0.132132
v -0.269255 0.227315 0.023421
v -0.218307 0.091390 -0.056389
v -0.131807 0.225277 0.170109
v -0.055529 0.088975 0.117332
v -0.152667 0.700275 0.031176
v 0.014858 0.085125 -0.111992
v -0.102183 0.041564 -0.115552
v -0.215496 0.206643 0.109821
v -0.090958 0.280272 -0.003255
v -0.047072 0.170811 -0.049755
v -0.042755 -0.001824 -0.062281
v -0.144026 0.053720 0.035341
v -0.203326 0.393652 0.083495
v -0.128001 0.438185 0.015104
v -0.074977 0.479400 0.068254
v -0.102768 0.392160 0.190815
v -0.159604 0.429367 0.145091
v -0.222794 0.596568 -0.012735
v -0.168069 0.653705 -0.030269
v -0.168303 0.581697 0.050623
v -0.232739 0.615472 0.028450
vn 0.0001 -0.0000 1.0000
vn 0.0189 -0.0000 0.9998
vn 0.0001 1.0000 -0.0000
vn 0.0189 0.9998 -0.0000
vn 0.0001 -0.0000 -1.0000
vn 0.0189 -0.0000 -0.9998
vn 0.0189 -0.9998 -0.0000
vn 0.0001 -1.0000 -0.0000
vn 1.0000 -0.0000 -0.0000
vn -1.0000 -0.0000 -0.0000
vn -0.0188 0.9998 -0.0000
vn -0.0188 -0.0000 -0.9998
vn -0.0188 -0.9998 -0.0000
vn -0.0188 -0.0000 0.9998
vn -0.6385 -0.0000 0.7696
vn -0.5910 -0.0000 0.8067
vn -0.0222 0.9996 -0.0187
vn 0.0467 0.9981 0.0403
vn 0.5417 -0.0000 -0.8405
vn 0.6672 -0.0000 -0.7449
vn 0.0143 -0.9998 0.0124
vn -0.0197 -0.9997 -0.0167
vn 0.8310 -0.0000 0.5563
vn -0.7574 -0.0000 -0.6530
vn -0.0966 0.9931 -0.0663
vn -0.0311 0.9992 -0.0248
vn 0.4291 -0.0000 -0.9033
vn 0.5417 -0.0000 -0.8406
vn -0.0242 -0.9995 -0.0197
vn -0.0574 -0.9976 -0.0394
vn -0.5510 -0.0000 0.8345
vn -0.7459 -0.0000 -0.6661
vn -0.5952 -0.0000 -0.8036
vn 0.0308 0.9990 -0.0332
vn -0.0420 0.9981 0.0452
vn 0.6447 -0.0000 0.7644
vn 0.7202 -0.0000 0.6938
vn -0.0129 -0.9998 0.0139
vn 0.0240 -0.9994 -0.0259
vn -0.6801 -0.0000 0.7332
vn 0.6801 -0.0000 -0.7332
vn 0.0828 0.9926 -0.0892
vn 0.0205 0.9995 -0.0221
vn 0.5805 -0.0000 0.8143
vn 0.6448 -0.0000 0.7643
vn 0.0504 -0.9972 -0.0544
vn -0.4633 -0.0000 -0.8862
vn -0.9600 0.1639 0.2268
vn -0.9678 0.1654 0.1897
vn 0.1853 0.9757 0.1171
vn 0.1751 0.9836 0.0440
vn 0.9788 -0.1674 -0.1183
vn 0.9825 -0.1681 -0.0805
vn -0.1572 -0.9850 0.0709
vn -0.1634 -0.9860 0.0326
vn 0.1515 -0.0282 0.9881
vn -0.1515 0.0282 -0.9881
vn 0.1592 0.9855 -0.0583
vn 0.1751 0.9836 0.0441
vn 0.9709 -0.1659 -0.1726
vn 0.9788 -0.1674 -0.1182
vn -0.1717 -0.9849 -0.0208
vn -0.9766 0.1670 0.1355
vn 0.7136 0.6834 0.1538
vn 0.1941 -0.9780 -0.0764
vn -0.9360 -0.2248 0.2707
vn -0.7877 -0.5012 0.3581
vn -0.7877 -0.5012 0.3582
vn 0.6869 0.7143 0.1340
vn -0.0855 -0.2606 -0.9617
vn -0.0856 -0.2607 -0.9616
vn -0.0848 -0.2595 -0.9620
vn 0.6047 0.3075 0.7347
vn 0.7413 -0.0364 0.6702
vn -0.9535 0.2961 0.0564
vn -0.0817 -0.2544 -0.9637
vn -0.4074 0.1802 -0.8953
vn 0.3082 0.8029 0.5102
vn 0.3075 0.8005 0.5144
vn 0.3075 0.8007 0.5142
vn 0.3064 0.7971 0.5203
vn 0.7544 0.2040 -0.6239
vn 0.7609 0.1390 -0.6338
vn 0.7610 0.1383 -0.6339
vn 0.7632 0.1004 -0.6383
vn -0.1688 -0.8050 -0.5688
vn -0.1793 -0.8177 -0.5469
vn -0.1763 -0.8141 -0.5533
vn -0.1835 -0.8227 -0.5381
vn -0.8169 -0.0000 0.5768
vn 0.9026 -0.4240 -0.0745
vn 0.8579 -0.5093 -0.0681
vn 0.8803 -0.4689 -0.0713
vn 0.8426 -0.5345 -0.0661
vn -0.6932 -0.3340 0.6387
vn 0.4555 0.5564 0.6949
vn 0.5381 0.5599 -0.6301
vn 0.5074 0.7271 -0.4624
vn 0.5192 0.6833 -0.5134
vn 0.4831 0.7914 -0.3746
vn -0.4227 -0.1793 -0.8884
vn -0.4169 -0.1800 -0.8910
vn -0.4070 -0.1812 -0.8953
vn -0.3980 -0.1823 -0.8991
vn 0.0496 -0.9646 -0.2591
vn 0.1856 0.9034 0.3866
vn 0.8717 -0.3804 0.3091
vn 0.7353 0.3709 0.5672
vn -0.9879 0.0317 -0.1519
vn -0.7315 0.6420 0.2298
vn -0.5810 0.2218 -0.7831
vn -0.3874 -0.1336 -0.9122
vn -0.5696 -0.0602 -0.8197
vn 0.0598 0.5287 -0.8467
vn -0.0054 -0.0955 -0.9954
vn -0.0049 -0.0909 -0.9958
vn -0.0385 -0.4054 -0.9133
vn -0.5743 -0.8178 0.0382
vn 0.2284 0.8823 0.4114
vn 0.2958 0.7564 0.5834
vn 0.2886 0.7734 0.5645
vn 0.3976 -0.0000 0.9176
vn 0.4095 -0.0364 0.9116
vn 0.0539 0.5437 -0.8376
vn -0.8729 -0.4584 0.1673
vn -0.3976 -0.0000 -0.9176
vn 0.5523 0.7061 0.4432
vn 0.2055 -0.9706 0.1256
vn -0.4349 -0.8222 0.3672
vn 0.6642 0.0780 -0.7435
vn 0.7019 0.3703 -0.6085
vn -0.3402 0.0313 0.9398
vn 0.0810 0.6342 0.7689
vn -0.8852 0.2218 0.4090
vn -0.9491 -0.3093 0.0592
vn -0.9190 -0.0602 0.3897
vn 0.2607 0.8026 -0.5365
vn 0.7328 -0.6626 0.1549
vn 0.8272 -0.5406 0.1529
vn 0.8506 -0.5034 0.1516
vn 0.8991 -0.4121 0.1475
vn -0.1151 -0.8185 0.5629
vn -0.6094 0.7924 -0.0263
vn -0.7645 0.6436 -0.0361
vn -0.7270 0.6858 -0.0337
vn -0.8642 0.5013 -0.0429
vn -0.7408 -0.3340 -0.5828
vn 0.4001 0.5564 -0.7282
vn 0.5107 0.7914 0.3359
vn 0.5419 0.7271 0.4215
vn 0.5576 0.6833 0.4714
vn 0.5855 0.5599 0.5863
vn -0.3523 -0.1793 0.9186
vn -0.3362 -0.1812 0.9242
vn -0.3463 -0.1800 0.9207
vn -0.3268 -0.1822 0.9273
vn 0.8593 -0.0000 0.5115
vn 0.3407 0.8029 -0.4891
vn 0.2777 0.9034 -0.3268
vn -0.4031 -0.5345 -0.7428
vn -0.4233 -0.4690 -0.7752
vn -0.4113 -0.5093 -0.7559
vn -0.4353 -0.4240 -0.7942
vn -0.2569 -0.9646 0.0601
vn -0.4169 -0.8227 0.3865
vn 0.8450 -0.3804 -0.3759
vn 0.6890 0.3709 -0.6227
vn -0.9731 0.0316 0.2283
vn -0.7471 0.6420 -0.1722
vn -0.5183 0.2218 0.8259
vn -0.3152 -0.1336 0.9396
vn -0.5041 -0.0602 0.8616
vn 0.9056 0.2491 0.3434
vn 0.9188 0.3427 0.1959
vn 0.9186 0.3434 0.1957
vn 0.9188 0.3425 0.1960
vn 0.0790 -0.4257 -0.9014
vn 0.0556 -0.4496 -0.8915
vn 0.0626 -0.4425 -0.8946
vn 0.0458 -0.4595 -0.8870
vn -0.9629 0.0125 0.2695
vn -0.8961 -0.2562 0.3624
vn 0.9564 0.2654 0.1218
vn 0.9189 0.3423 0.1961
vn -0.0854 0.2514 -0.9641
vn -0.0804 0.2507 -0.9647
vn -0.0664 0.2485 -0.9663
vn -0.0588 0.2474 -0.9671
vn 0.3473 -0.7705 0.5346
vn 0.8198 -0.3415 0.4597
vn -0.1184 0.1208 -0.9856
vn -0.5434 0.4194 -0.7272
vn 0.8300 -0.3759 0.4122
vn -0.9000 0.4288 0.0780
vn -0.7127 0.6834 -0.1580
vn -0.1945 -0.9780 0.0752
vn 0.9376 -0.2249 -0.2651
vn 0.7899 -0.5012 -0.3534
vn -0.6861 0.7143 -0.1381
vn 0.0798 -0.2606 0.9621
vn 0.0799 -0.2608 0.9621
vn 0.0791 -0.2596 0.9625
vn -0.6003 0.3075 -0.7383
vn -0.7373 -0.0364 -0.6746
vn 0.9538 0.2961 -0.0507
vn 0.0759 -0.2544 0.9641
vn 0.4021 0.1802 0.8977
vn -0.3052 0.8029 -0.5121
vn -0.3044 0.8006 -0.5160
vn -0.3044 0.8006 -0.5161
vn -0.3033 0.7971 -0.5221
vn -0.7581 0.2040 0.6194
vn -0.7647 0.1390 0.6292
vn -0.7647 0.1382 0.6293
vn -0.7670 0.1004 0.6338
vn 0.1654 -0.8050 0.5697
vn 0.1761 -0.8178 0.5480
vn 0.1730 -0.8141 0.5543
vn 0.1803 -0.8227 0.5391
vn 0.8203 -0.0000 -0.5720
vn -0.9030 -0.4240 0.0692
vn -0.8583 -0.5093 0.0630
vn -0.8807 -0.4690 0.0660
vn -0.8430 -0.5345 0.0610
vn 0.6970 -0.3340 -0.6346
vn -0.4514 0.5564 -0.6976
vn -0.5418 0.5599 0.6269
vn -0.5102 0.7271 0.4594
vn -0.5223 0.6833 0.5103
vn -0.4853 0.7914 0.3717
vn 0.4174 -0.1792 0.8909
vn 0.4116 -0.1800 0.8934
vn 0.4017 -0.1812 0.8977
vn 0.3926 -0.1822 0.9015
vn -0.0512 -0.9646 0.2588
vn -0.1833 0.9034 -0.3877
vn -0.8698 -0.3804 -0.3142
vn -0.7320 0.3709 -0.5715
vn 0.9870 0.0316 0.1578
vn 0.7328 0.6420 -0.2254
vn 0.5763 0.2218 0.7865
vn 0.3819 -0.1336 0.9145
vn 0.5647 -0.0602 0.8231
vn -0.2639 0.8026 0.5349
vn -0.7319 -0.6626 -0.1592
vn -0.8263 -0.5406 -0.1578
vn -0.8497 -0.5034 -0.1567
vn -0.8982 -0.4121 -0.1529
vn 0.1184 -0.8185 -0.5622
vn 0.6093 0.7924 0.0299
vn 0.7643 0.6436 0.0407
vn 0.7268 0.6858 0.0380
vn 0.8639 0.5013 0.0480
vn 0.7373 -0.3340 0.5872
vn 0.7373 -0.3341 0.5872
vn -0.4044 0.5564 0.7259
vn -0.5087 0.7914 -0.3389
vn -0.5393 0.7271 -0.4247
vn -0.5548 0.6833 -0.4747
vn -0.5820 0.5599 -0.5898
vn 0.3577 -0.1792 -0.9165
vn 0.3416 -0.1812 -0.9222
vn 0.3518 -0.1800 -0.9186
vn 0.3323 -0.1822 -0.9254
vn -0.8562 -0.0000 -0.5166
vn -0.3436 0.8029 0.4871
vn -0.2796 0.9034 0.3252
vn 0.3987 -0.5345 0.7452
vn 0.4187 -0.4689 0.7777
vn 0.4068 -0.5094 0.7584
vn 0.4306 -0.4240 0.7968
vn 0.2573 -0.9646 -0.0586
vn 0.4192 -0.8227 -0.3841
vn -0.8472 -0.3804 0.3709
vn -0.6927 0.3709 0.6186
vn 0.9744 0.0316 -0.2225
vn 0.7461 0.6420 0.1766
vn 0.5232 0.2218 -0.8228
vn 0.3208 -0.1336 -0.9377
vn 0.5092 -0.0602 -0.8586
vn -0.3876 0.6534 -0.6503
vn -0.3861 0.6507 -0.6538
vn -0.3857 0.6500 -0.6547
vn -0.3835 0.6458 -0.6602
vn -0.7676 0.1323 0.6271
vn -0.7691 0.0893 0.6329
vn -0.7691 0.0905 0.6327
vn -0.7693 0.0646 0.6356
vn 0.2105 -0.6562 0.7247
vn 0.2271 -0.6741 0.7028
vn 0.2203 -0.6668 0.7119
vn 0.2325 -0.6800 0.6954
vn 0.3643 0.5186 -0.7735
vn 0.4921 0.1263 -0.8613
vn 0.5032 0.0686 -0.8614
vn 0.5148 -0.4932 -0.7013
vn 0.7573 -0.1536 -0.6347
vn 0.6781 0.0770 -0.7309
vn 0.6279 0.1780 -0.7577
vn 0.5041 0.3699 -0.7804
vn -0.4765 0.4554 -0.7520
vn -0.5916 0.4409 -0.6750
vn -0.5048 0.4527 -0.7350
vn -0.6313 0.4333 -0.6431
vn -0.6001 0.3974 0.6943
vn 0.4214 -0.1160 0.8994
vn 0.4171 -0.1163 0.9014
vn 0.4032 -0.1174 0.9076
vn 0.3965 -0.1179 0.9104
vn 0.3773 0.5452 -0.7486
vn 0.3730 0.5627 -0.7377
vn 0.3733 0.5613 -0.7386
vn 0.3613 0.6053 -0.7092
vn -0.0762 -0.9197 0.3851
vn -0.9244 -0.3756 0.0669
vn -0.9430 -0.3251 0.0706
vn -0.9336 -0.3515 0.0687
vn -0.9550 -0.2873 0.0731
vn -0.2544 0.8035 -0.5381
vn 0.7010 -0.2282 0.6757
vn 0.6830 -0.2094 0.6997
vn 0.6933 -0.2201 0.6862
vn 0.6779 -0.2042 0.7062
vn -0.5489 0.4100 -0.7284
vn -0.4841 0.6530 -0.5824
vn -0.1157 -0.4647 -0.8779
vn 0.3493 -0.9370 -0.0033
vn 0.3892 -0.9211 -0.0065
vn 0.4202 -0.9074 -0.0090
vn 0.4750 -0.8799 -0.0135
vn 0.5721 -0.6800 0.4586
vn 0.5809 -0.6742 0.4561
vn 0.5918 -0.6668 0.4528
vn 0.6072 -0.6562 0.4480
vn -0.8589 -0.3977 0.3227
vn -0.6304 0.4283 -0.6474
vn -0.9020 -0.1285 -0.4121
vn -0.7318 0.2976 -0.6131
vn -0.9088 -0.2716 -0.3166
vn 0.6348 0.6368 -0.4376
vn 0.6471 0.6299 -0.4295
vn 0.8077 0.3126 0.4999
vn 0.8892 0.4092 0.2047
vn 0.8216 0.3256 0.4679
vn 0.8921 0.4160 0.1763
vn 0.3839 -0.0861 0.9193
vn 0.3394 -0.1304 0.9316
vn -0.0142 -0.4259 0.9046
vn -0.1807 -0.5348 0.8254
vn -0.3872 0.5269 0.7566
vn 0.0106 0.0686 -0.9976
vn 0.9262 0.0033 0.3771
vn -0.5288 0.5674 0.6312
vn 0.6735 0.5009 -0.5436
vn 0.6773 0.4971 -0.5423
vn 0.6779 0.4966 -0.5421
vn 0.6838 0.4906 -0.5401
vn -0.7181 0.1840 -0.6711
vn -0.7268 0.1465 -0.6711
vn -0.7279 0.1413 -0.6710
vn -0.7323 0.1192 -0.6704
vn -0.7811 -0.5069 0.3647
vn -0.7581 -0.5298 0.3802
vn -0.7664 -0.5217 0.3747
vn -0.7494 -0.5381 0.3858
vn 0.6253 0.0483 0.7789
vn 0.6276 0.0761 0.7748
vn 0.6271 0.0706 0.7757
vn 0.6299 0.1144 0.7682
vn 0.2460 -0.5988 -0.7622
vn 0.7220 -0.2075 0.6600
vn 0.8302 0.0027 0.5574
vn 0.8502 0.0601 0.5230
vn 0.8871 0.2566 0.3838
vn 0.7367 0.2460 -0.6299
vn 0.6365 0.2347 -0.7347
vn 0.7133 0.2437 -0.6571
vn 0.5945 0.2291 -0.7708
vn -0.7294 0.4690 -0.4980
vn -0.8274 0.1307 0.5461
vn -0.8301 0.1303 0.5422
vn -0.8384 0.1291 0.5296
vn -0.8423 0.1285 0.5234
vn 0.8283 -0.4950 0.2625
vn 0.8406 -0.4719 0.2659
vn 0.8493 -0.4547 0.2683
vn 0.8664 -0.4180 0.2730
vn -0.4114 -0.9105 -0.0407
vn -0.4808 -0.8746 -0.0629
vn -0.4536 -0.8896 -0.0541
vn -0.5388 -0.8385 -0.0819
vn -0.2187 -0.4487 -0.8665
vn -0.2314 -0.2371 -0.9435
vn -0.2292 -0.2929 -0.9283
vn -0.1798 0.5497 -0.8158
vn 0.5868 0.7086 -0.3917
vn -0.5847 0.0011 0.8113
vn -0.6084 0.0234 0.7933
vn -0.5953 0.0110 0.8034
vn -0.6148 0.0295 0.7882
vn 0.6926 0.1939 -0.6948
vn 0.5892 0.4946 -0.6389
vn 0.5911 0.5008 -0.6323
vn 0.5910 0.5003 -0.6328
vn 0.5923 0.5044 -0.6283
vn 0.4372 0.7136 -0.5474
vn -0.0586 -0.8926 0.4471
vn -0.4385 -0.5508 0.7101
vn -0.4333 -0.5431 0.7192
vn -0.4283 -0.5358 0.7277
vn -0.4189 -0.5221 0.7429
vn -0.4645 -0.4155 -0.7821
vn 0.5983 0.2228 -0.7697
vn 0.2610 -0.3041 -0.9162
vn 0.5170 0.0621 -0.8537
vn 0.1547 -0.4222 -0.8932
vn 0.5689 0.6134 0.5477
vn 0.5614 0.6088 0.5606
vn -0.3350 0.4827 0.8092
vn -0.0459 0.5246 0.8501
vn -0.3011 0.4901 0.8180
vn -0.0167 0.5263 0.8502
vn -0.8463 0.1598 0.5081
vn -0.8729 0.1172 0.4736
vn -0.9629 -0.2281 0.1439
vn -0.9202 -0.3890 -0.0437
vn -0.7346 0.6166 -0.2832
vn 0.9798 -0.1507 -0.1314
vn -0.2306 0.1870 0.9549
vn -0.6451 0.6233 -0.4419
vn -0.5910 -0.0000 0.8066
vn -0.0976 0.9931 -0.0653
vn -0.0580 -0.9976 -0.0388
vn -0.5949 -0.0000 -0.8038
vn 0.0188 -0.9996 -0.0202
vt 0.273114 0.033415
vt 0.188041 0.204207
vt 0.188041 0.033415
vt 0.273114 0.204207
vt 0.188041 0.375000
vt 0.273114 0.375000
vt 0.188041 0.545793
vt 0.273114 0.716585
vt 0.188041 0.716585
vt 0.529627 0.033415
vt 0.358834 0.204207
vt 0.358834 0.033415
vt 0.017249 0.204207
vt 0.017249 0.033415
vt 0.358834 0.375000
vt 0.273114 0.545793
vt 0.358834 0.545793
vt 0.358834 0.716585
vt 0.779995 0.886519
vt 0.575019 0.887260
vt 0.778885 0.579055
vt 0.778515 0.476567
vt 0.777405 0.169102
vt 0.984972 0.885779
vt 0.984602 0.783291
vt 0.574649 0.784771
vt 0.779625 0.784031
vt 0.573909 0.579795
vt 0.573539 0.477307
vt 0.572429 0.169842
vt 0.370043 0.888000
vt 0.369673 0.785511
vt 0.780365 0.989008
vt 0.985342 0.988268
vt 0.573169 0.374818
vt 0.370413 0.990488
vt 0.575389 0.989748
vt 0.778145 0.374078
vt 0.529627 0.204207
s 1
usemtl firecamp
f 12/1/1 3/2/2 1/3/2
f 9/4/3 5/5/4 3/2/4
f 10/6/5 7/7/6 5/5/6
f 7/7/7 12/8/8 1/9/7
f 8/10/9 4/11/9 2/12/9
f 1/3/10 5/13/10 7/14/10
f 9/4/3 6/15/11 10/6/3
f 11/16/5 6/15/12 8/17/12
f 11/16/8 2/18/13 12/8/8
f 12/1/1 4/11/14 9/4/1
f 13/3/15 21/4/16 15/2/15
f 21/4/17 17/5/18 15/2/18
f 22/6/19 19/7/20 17/5/20
f 19/7/21 24/8/22 13/9/21
f 20/10/23 16/11/23 14/12/23
f 13/3/24 17/13/24 19/14/24
f 16/11/25 22/6/26 21/4/17
f 22/6/19 20/17/27 23/16/28
f 23/16/29 14/18/30 24/8/22
f 21/4/16 14/12/31 16/11/31
f 25/3/32 33/4/33 27/2/32
f 33/4/34 29/5/35 27/2/35
f 34/6/36 31/7/37 29/5/37
f 31/7/38 36/8/39 25/9/38
f 32/10/40 28/11/40 26/12/40
f 25/3/41 29/13/41 31/14/41
f 33/4/34 30/15/42 34/6/43
f 34/6/36 32/17/44 35/16/45
f 36/8/39 32/17/46 26/18/46
f 33/4/33 26/12/47 28/11/47
f 37/3/48 45/4/49 39/2/48
f 39/2/50 46/6/51 41/5/50
f 46/6/52 43/7/53 41/5/53
f 43/7/54 48/8/55 37/9/54
f 44/10/56 40/11/56 38/12/56
f 43/14/57 39/2/57 41/13/57
f 40/11/58 46/6/51 45/4/59
f 46/6/52 44/17/60 47/16/61
f 47/16/55 38/18/62 48/8/55
f 45/4/49 38/12/63 40/11/63
f 49/19/64 51/20/64 50/21/64
f 50/21/65 51/20/65 52/22/65
f 52/22/66 51/20/66 49/23/66
f 52/24/67 49/19/67 54/24/67
f 54/24/67 49/19/67 53/19/68
f 49/19/69 50/25/69 53/19/69
f 50/25/70 52/24/71 54/24/72
f 50/25/73 55/25/73 53/19/73
f 53/19/74 55/25/74 56/19/74
f 54/24/75 53/19/75 56/19/75
f 50/25/70 54/24/72 55/25/76
f 54/24/77 56/19/77 55/25/77
f 58/20/78 60/26/79 57/19/80
f 57/19/80 60/26/79 59/27/81
f 59/27/82 60/26/83 61/21/84
f 61/21/84 60/26/83 62/28/85
f 61/21/86 62/28/87 64/22/88
f 64/22/88 62/28/87 66/29/89
f 66/29/90 58/30/90 64/22/90
f 64/22/90 58/30/90 57/23/90
f 65/31/91 62/32/92 63/20/93
f 63/20/93 62/32/92 60/26/94
f 64/24/95 57/19/95 69/24/95
f 69/24/95 57/19/95 68/19/95
f 59/27/96 68/19/96 57/19/96
f 61/25/97 67/25/98 59/27/99
f 59/27/99 67/25/98 68/19/100
f 61/25/101 64/24/102 67/25/103
f 67/25/103 64/24/102 69/24/104
f 58/20/90 66/31/90 63/20/90
f 63/20/90 66/31/90 65/31/90
f 66/31/105 62/32/105 65/31/105
f 60/26/106 58/20/106 63/20/106
f 67/25/107 72/25/107 68/19/107
f 68/19/108 72/25/108 70/33/108
f 71/34/109 68/19/109 70/33/109
f 69/24/110 68/19/110 71/34/110
f 69/24/111 71/34/111 72/25/111
f 67/25/112 69/24/112 72/25/112
f 71/34/113 70/33/113 72/25/113
f 73/19/114 79/20/115 74/21/116
f 74/21/116 79/20/115 75/29/117
f 74/21/118 75/29/118 78/22/118
f 76/35/119 79/30/120 78/22/121
f 78/22/121 79/30/120 73/23/122
f 78/24/123 73/19/123 81/24/123
f 81/24/123 73/19/123 80/19/123
f 73/19/124 74/25/124 80/19/124
f 74/25/125 78/24/125 81/24/125
f 79/20/126 77/20/126 75/31/126
f 79/20/127 76/36/127 77/20/127
f 76/36/128 75/31/128 77/20/128
f 75/29/129 76/35/129 78/22/129
f 74/25/130 84/25/130 80/19/130
f 80/19/131 84/25/131 82/33/131
f 83/34/132 80/19/132 82/33/132
f 81/24/133 80/19/133 83/34/133
f 81/24/134 83/34/134 84/25/134
f 74/25/135 81/24/135 84/25/135
f 83/34/136 82/33/136 84/25/136
f 87/27/137 94/20/137 85/19/137
f 87/27/138 88/21/139 94/20/140
f 94/20/140 88/21/139 89/29/141
f 88/21/142 93/22/142 89/29/142
f 85/23/143 86/30/144 93/22/145
f 93/22/145 86/30/144 90/35/146
f 93/24/147 98/24/147 85/19/147
f 85/19/147 98/24/147 97/19/147
f 85/19/148 97/19/148 87/27/148
f 97/19/149 96/25/150 87/27/151
f 87/27/151 96/25/150 88/25/152
f 88/25/153 96/25/154 93/24/155
f 93/24/155 96/25/154 98/24/156
f 92/31/157 95/20/157 89/31/157
f 89/31/157 95/20/157 94/20/157
f 86/37/158 85/19/158 94/20/158
f 95/20/159 86/37/159 94/20/159
f 86/37/160 95/20/161 90/36/162
f 90/36/162 95/20/161 92/31/163
f 89/31/164 90/36/164 92/31/164
f 93/22/165 90/35/165 89/29/165
f 97/19/166 100/25/166 96/25/166
f 91/33/167 100/25/167 97/19/167
f 97/19/168 99/34/168 91/33/168
f 98/24/169 99/34/169 97/19/169
f 100/25/170 99/34/170 98/24/170
f 96/25/171 100/25/171 98/24/171
f 99/34/172 100/25/172 91/33/172
f 102/20/173 103/32/173 101/19/173
f 101/19/174 103/32/175 104/21/176
f 104/21/177 103/32/178 105/22/179
f 105/22/179 103/32/178 106/29/180
f 106/29/181 102/30/181 105/22/181
f 105/22/181 102/30/181 101/23/181
f 105/24/182 101/19/182 109/24/182
f 109/24/182 101/19/182 108/19/182
f 101/19/183 107/25/183 108/19/183
f 104/25/176 107/25/184 101/19/174
f 104/25/185 105/24/186 107/25/187
f 107/25/187 105/24/186 109/24/188
f 103/32/189 102/20/189 106/31/189
f 107/25/190 111/19/190 108/19/190
f 107/25/191 109/24/191 111/19/191
f 109/24/192 110/19/192 111/19/192
f 108/19/193 111/19/193 110/19/193
f 109/24/194 108/19/194 110/19/194
f 112/19/195 114/20/195 113/21/195
f 113/21/196 114/20/196 115/22/196
f 115/22/197 114/20/197 112/23/197
f 115/24/198 112/19/198 117/24/198
f 117/24/198 112/19/198 116/19/198
f 112/19/199 113/25/199 116/19/199
f 113/25/200 115/24/201 117/24/202
f 113/25/203 118/25/203 116/19/203
f 116/19/204 118/25/204 119/19/204
f 117/24/205 116/19/205 119/19/205
f 113/25/200 117/24/202 118/25/206
f 117/24/207 119/19/207 118/25/207
f 121/20/208 123/26/209 120/19/210
f 120/19/210 123/26/209 122/27/211
f 122/27/212 123/26/213 124/21/214
f 124/21/214 123/26/213 125/28/215
f 124/21/216 125/28/217 127/22/218
f 127/22/218 125/28/217 129/29/219
f 129/29/220 121/30/220 127/22/220
f 127/22/220 121/30/220 120/23/220
f 128/31/221 125/32/222 126/20/223
f 126/20/223 125/32/222 123/26/224
f 127/24/225 120/19/225 132/24/225
f 132/24/225 120/19/225 131/19/225
f 122/27/226 131/19/226 120/19/226
f 124/25/227 130/25/228 122/27/229
f 122/27/229 130/25/228 131/19/230
f 124/25/231 127/24/232 130/25/233
f 130/25/233 127/24/232 132/24/234
f 121/20/220 129/31/220 126/20/220
f 126/20/220 129/31/220 128/31/220
f 129/31/235 125/32/235 128/31/235
f 123/26/236 121/20/236 126/20/236
f 130/25/237 135/25/237 131/19/237
f 131/19/238 135/25/238 133/33/238
f 134/34/239 131/19/239 133/33/239
f 132/24/240 131/19/240 134/34/240
f 132/24/241 134/34/241 135/25/241
f 130/25/242 132/24/242 135/25/242
f 134/34/243 133/33/243 135/25/243
f 138/27/244 145/20/244 136/19/244
f 138/27/245 139/21/246 145/20/247
f 145/20/247 139/21/246 140/29/248
f 139/21/249 144/22/249 140/29/249
f 136/23/250 137/30/251 144/22/252
f 144/22/252 137/30/251 141/35/253
f 144/24/254 149/24/254 136/19/254
f 136/19/254 149/24/254 148/19/255
f 136/19/256 148/19/256 138/27/256
f 148/19/257 147/25/258 138/27/259
f 138/27/259 147/25/258 139/25/260
f 139/25/261 147/25/262 144/24/263
f 144/24/263 147/25/262 149/24/264
f 143/31/265 146/20/265 140/31/265
f 140/31/265 146/20/265 145/20/265
f 137/37/266 136/19/266 145/20/266
f 146/20/267 137/37/267 145/20/267
f 137/37/268 146/20/269 141/36/270
f 141/36/270 146/20/269 143/31/271
f 140/31/272 141/36/272 143/31/272
f 144/22/273 141/35/273 140/29/273
f 148/19/274 151/25/274 147/25/274
f 142/33/275 151/25/275 148/19/275
f 148/19/276 150/34/276 142/33/276
f 149/24/277 150/34/277 148/19/277
f 151/25/278 150/34/278 149/24/278
f 147/25/279 151/25/279 149/24/279
f 150/34/280 151/25/280 142/33/280
f 153/20/281 155/26/282 165/19/283
f 165/19/283 155/26/282 154/27/284
f 154/27/285 155/26/286 156/21/287
f 156/21/287 155/26/286 157/28/288
f 156/21/289 157/28/290 164/22/291
f 164/22/291 157/28/290 166/29/292
f 159/35/293 153/30/294 158/38/295
f 158/38/295 153/30/294 152/23/296
f 158/34/297 152/33/298 170/34/299
f 170/34/299 152/33/298 169/19/300
f 154/27/301 168/27/302 165/19/303
f 165/19/303 168/27/302 169/19/304
f 156/25/305 167/25/305 154/27/305
f 154/27/305 167/25/305 168/27/305
f 156/25/306 164/24/307 167/25/308
f 167/25/308 164/24/307 171/24/309
f 153/20/310 159/36/311 162/20/312
f 162/20/312 159/36/311 161/36/313
f 157/32/314 163/31/314 166/31/314
f 155/26/315 162/20/316 157/32/317
f 157/32/317 162/20/316 163/31/318
f 155/26/319 153/20/319 162/20/319
f 158/34/320 170/34/321 164/24/322
f 164/24/322 170/34/321 171/24/323
f 152/33/324 165/19/324 169/19/324
f 152/33/325 153/20/325 165/19/325
f 162/20/326 161/36/326 163/31/326
f 159/36/327 166/31/328 161/36/329
f 161/36/329 166/31/328 163/31/330
f 166/29/331 159/35/332 164/22/333
f 164/22/333 159/35/332 158/38/334
f 167/25/335 172/25/335 168/27/335
f 168/27/336 172/25/337 169/19/338
f 169/19/338 172/25/337 173/19/339
f 174/34/340 169/19/340 173/19/340
f 170/34/341 169/19/341 174/34/341
f 170/34/342 174/34/343 171/24/344
f 171/24/344 174/34/343 175/24/345
f 167/25/346 171/24/347 172/25/348
f 172/25/348 171/24/347 175/24/349
f 172/25/350 160/33/350 173/19/350
f 174/34/351 173/19/351 160/33/351
f 174/34/352 160/33/352 175/24/352
f 172/25/353 175/24/353 160/33/353
f 189/20/354 179/26/355 188/19/356
f 188/19/356 179/26/355 178/27/357
f 178/27/358 179/26/359 180/21/360
f 180/21/360 179/26/359 181/28/361
f 180/21/362 181/28/363 187/22/364
f 187/22/364 181/28/363 191/29/365
f 183/35/366 177/30/367 182/38/368
f 182/38/368 177/30/367 176/23/369
f 190/31/370 186/32/370 185/20/370
f 182/34/371 176/33/372 195/34/373
f 195/34/373 176/33/372 194/19/374
f 178/27/375 193/27/376 188/19/377
f 188/19/377 193/27/376 194/19/378
f 180/25/379 192/25/379 178/27/379
f 178/27/379 192/25/379 193/27/379
f 180/25/380 187/24/381 192/25/382
f 192/25/382 187/24/381 196/24/383
f 177/37/384 183/36/385 185/20/386
f 185/20/386 183/36/385 190/31/387
f 181/32/388 186/32/389 191/31/390
f 191/31/390 186/32/389 190/31/391
f 179/26/392 185/20/393 181/32/394
f 181/32/394 185/20/393 186/32/395
f 179/26/396 189/20/396 185/20/396
f 182/34/397 195/34/398 187/24/399
f 187/24/399 195/34/398 196/24/400
f 176/33/401 188/19/401 194/19/401
f 176/33/402 177/37/403 188/19/404
f 188/19/404 177/37/403 189/20/405
f 185/20/406 189/20/406 177/37/406
f 183/36/407 191/31/407 190/31/407
f 191/29/408 183/35/409 187/22/410
f 187/22/410 183/35/409 182/38/411
f 192/25/412 197/25/412 193/27/412
f 193/27/413 197/25/414 194/19/415
f 194/19/415 197/25/414 198/19/416
f 199/34/417 194/19/417 198/19/417
f 195/34/418 194/19/418 199/34/418
f 195/34/419 199/34/420 196/24/421
f 196/24/421 199/34/420 200/24/422
f 192/25/423 196/24/424 197/25/425
f 197/25/425 196/24/424 200/24/426
f 197/25/427 184/33/427 198/19/427
f 199/34/428 198/19/428 184/33/428
f 199/34/429 184/33/429 200/24/429
f 197/25/430 200/24/430 184/33/430
f 12/1/1 9/4/1 3/2/2
f 9/4/3 10/6/3 5/5/4
f 10/6/5 11/16/5 7/7/6
f 7/7/7 11/16/8 12/8/8
f 8/10/9 6/39/9 4/11/9
f 1/3/10 3/2/10 5/13/10
f 9/4/3 4/11/11 6/15/11
f 11/16/5 10/6/5 6/15/12
f 11/16/8 8/17/13 2/18/13
f 12/1/1 2/12/14 4/11/14
f 13/3/15 24/1/431 21/4/16
f 21/4/17 22/6/26 17/5/18
f 22/6/19 23/16/28 19/7/20
f 19/7/21 23/16/29 24/8/22
f 20/10/23 18/39/23 16/11/23
f 13/3/24 15/2/24 17/13/24
f 16/11/25 18/15/432 22/6/26
f 22/6/19 18/15/27 20/17/27
f 23/16/29 20/17/433 14/18/30
f 21/4/16 24/1/431 14/12/31
f 25/3/32 36/1/434 33/4/33
f 33/4/34 34/6/43 29/5/35
f 34/6/36 35/16/45 31/7/37
f 31/7/38 35/16/435 36/8/39
f 32/10/40 30/39/40 28/11/40
f 25/3/41 27/2/41 29/13/41
f 33/4/34 28/11/42 30/15/42
f 34/6/36 30/15/44 32/17/44
f 36/8/39 35/16/435 32/17/46
f 33/4/33 36/1/434 26/12/47
f 37/3/48 48/1/49 45/4/49
f 39/2/50 45/4/59 46/6/51
f 46/6/52 47/16/61 43/7/53
f 43/7/54 47/16/55 48/8/55
f 44/10/56 42/39/56 40/11/56
f 43/14/57 37/3/57 39/2/57
f 40/11/58 42/15/58 46/6/51
f 46/6/52 42/15/60 44/17/60
f 47/16/55 44/17/62 38/18/62
f 45/4/49 48/1/49 38/12/63
