# Blender 5.0.0
# www.blender.org
mtllib land3.mtl
o Cylinder001
v 1.977267 -0.040311 -2.148753
v 1.977267 -0.040311 -3.786774
v 0.819011 -0.040311 -4.945030
v 0.819010 -0.040311 -0.990497
v 1.996397 0.023239 -2.140829
v 1.996397 0.023239 -3.794698
v 0.826935 0.023239 -4.964160
v 0.826934 0.023239 -0.971367
v 2.807632 0.023239 -1.804804
v 2.807633 0.023239 -4.130723
v 1.162960 0.023239 -5.775396
v 1.162959 0.023239 -0.160131
v 1.836485 -0.040311 -2.207067
v 1.836485 -0.040311 -3.728461
v 0.760697 -0.040311 -4.804249
v 0.760696 -0.040311 -1.131279
v 1.818887 -0.107452 -2.214356
v 1.818888 -0.107452 -3.721171
v 0.753408 -0.107452 -4.786651
v 0.753407 -0.107452 -1.148876
v 1.689382 -0.107452 -2.267999
v 1.689383 -0.107452 -3.667529
v 0.699765 -0.107452 -4.657146
v 0.699764 -0.107452 -1.278381
v 1.673194 -0.183603 -2.274704
v 1.673195 -0.183603 -3.660824
v 0.693060 -0.183603 -4.640958
v 0.693059 -0.183603 -1.294569
v 2.889124 -0.021958 -1.771049
v 2.889125 -0.021958 -4.164478
v 1.196715 -0.021958 -5.760940
v 1.196714 -0.021958 -0.078639
v 0.770605 0.023239 -7.455432
v 0.804360 -0.021958 -7.469157
v 0.000000 -0.040311 -0.990497
v 0.000000 0.023239 -0.160131
v 0.000000 -0.040311 -4.945031
v 0.000000 -0.107452 -4.657146
v 0.000000 0.023239 -7.455432
v 2.486580 0.023239 -6.280337
v 2.527216 -0.021958 -6.271903
v 1.770692 -0.021958 -7.815993
v 1.736937 0.023239 -7.802269
v 3.726599 0.023239 -7.156707
v 3.736751 -0.021958 -7.146426
v 2.572584 -0.021958 -8.383689
v 2.551055 0.023239 -8.353523
v 4.674565 0.023239 -8.232435
v 4.681486 -0.021958 -8.224354
v 3.332669 -0.021958 -9.194330
v 3.311580 0.023239 -9.164605
v 5.523170 0.023239 -9.631584
v 5.532021 -0.021958 -9.622299
v 3.971724 -0.021958 -10.165405
v 3.953085 0.023239 -10.182306
v 6.030480 0.023234 -11.097578
v 6.029063 -0.021964 -11.088174
v 4.341001 -0.021711 -11.133267
v 4.322008 0.023478 -11.150037
v 6.113395 0.023239 -13.489841
v 6.117334 -0.021958 -13.497587
v 6.113819 0.023234 -12.337079
v 6.117569 -0.021963 -12.332644
v 4.417827 -0.022482 -12.352045
v 4.397965 0.022676 -12.377631
v 2.551055 0.227005 -8.353523
v 3.726599 0.227005 -7.156707
v 4.674565 0.227005 -8.232435
v 5.523170 0.253004 -9.631584
v 6.030480 0.252998 -11.097578
v 6.113819 0.252998 -12.337079
v 6.113395 0.253004 -13.489841
v 4.397965 0.252440 -12.377631
v 4.322008 0.253243 -11.150037
v 3.953085 0.253004 -10.182306
v 3.311580 0.227005 -9.164605
v 3.311580 0.445854 -9.164605
v 4.674565 0.445854 -8.232435
v 5.523170 0.445854 -9.631584
v 6.030480 0.445848 -11.097578
v 6.113819 0.445848 -12.337079
v 6.113395 0.445854 -13.489841
v 4.397965 0.445290 -12.377631
v 4.322008 0.446093 -11.150037
v 3.953085 0.445854 -10.182306
v 3.953085 0.682083 -10.182306
v 5.523170 0.682083 -9.631584
v 6.030480 0.682077 -11.097578
v 6.113819 0.682077 -12.337079
v 6.113395 0.682083 -13.489841
v 4.397965 0.681519 -12.377631
v 4.322008 0.682322 -11.150037
v 4.322008 0.926166 -11.150037
v 6.030480 0.925921 -11.097578
v 6.113819 0.925921 -12.337079
v 6.113395 0.925927 -13.489841
v 4.397965 0.925363 -12.377631
v 4.397965 1.139360 -12.377631
v 6.113819 1.139918 -12.337079
v 6.113395 1.139923 -13.489841
v 4.377479 1.139923 -13.344306
v 6.113395 0.023239 -15.172801
v 6.117334 -0.021958 -15.180546
v 6.113395 0.253004 -15.172801
v 6.113395 0.445854 -15.172801
v 6.113395 0.682083 -15.172801
v 6.113395 0.925927 -15.172801
v 6.113395 1.139923 -15.172801
v 4.360656 1.139923 -15.198855
v 0.000000 0.023239 -4.964161
v 0.000000 0.023239 -5.775396
v 0.000000 -0.040311 -4.804249
v 0.000000 -0.107452 -4.786651
v 0.000000 -0.021958 -0.078639
v 0.000000 -0.021958 -7.469157
v 0.000000 0.445290 -13.799684
v 0.000000 1.139923 -14.582384
v 0.000000 1.139923 -15.198855
v 2.198982 0.445290 -12.457163
v 2.198982 0.681519 -12.457163
v 2.198982 0.925363 -12.457163
v 2.198982 1.139360 -12.457163
v 2.590396 1.139923 -13.440209
v 2.634456 1.139923 -15.198855
v 1.260502 0.445290 -13.517575
v 1.260502 0.681519 -13.517575
v 1.260502 0.925363 -13.517575
v 1.260502 1.139360 -13.517575
v 1.492382 1.139923 -14.298538
v 1.509202 1.139923 -15.198855
v 0.648751 0.445290 -13.750802
v 0.648751 0.681519 -13.750802
v 0.648751 0.925363 -13.750802
v 0.648751 1.139360 -13.750802
v 0.753532 1.139923 -14.528206
v 0.793809 1.139923 -15.198855
v 1.743564 0.681519 -13.184962
v 1.743564 0.925363 -13.184962
v 1.743564 1.139360 -13.184962
v 2.074750 1.139923 -13.793793
v 2.089374 1.139923 -15.198855
v 1.743564 0.445290 -13.184962
v 2.807271 1.139923 -15.198855
v 2.745638 1.139923 -13.378850
v 2.452749 1.139360 -12.377631
v 2.452749 0.925363 -12.377631
v 2.452749 0.681519 -12.377631
v 2.452749 0.445290 -12.377631
v -1.977267 -0.040311 -2.148753
v -1.996397 0.023239 -2.140829
v -1.996397 0.023239 -3.794698
v -1.977267 -0.040311 -3.786774
v -0.826935 0.023239 -4.964160
v -0.819011 -0.040311 -4.945030
v -0.819010 -0.040311 -0.990497
v -0.826934 0.023239 -0.971367
v -2.807632 0.023239 -1.804804
v -2.807633 0.023239 -4.130723
v -1.162960 0.023239 -5.775396
v -1.162959 0.023239 -0.160131
v -1.836485 -0.040311 -3.728461
v -1.836485 -0.040311 -2.207067
v -0.760697 -0.040311 -4.804249
v -0.760696 -0.040311 -1.131279
v -1.818888 -0.107452 -3.721171
v -1.818887 -0.107452 -2.214356
v -0.753408 -0.107452 -4.786651
v -0.753407 -0.107452 -1.148876
v -1.689383 -0.107452 -3.667529
v -1.689382 -0.107452 -2.267999
v -0.699765 -0.107452 -4.657146
v -0.699764 -0.107452 -1.278381
v -1.673195 -0.183603 -3.660824
v -1.673194 -0.183603 -2.274704
v -0.693060 -0.183603 -4.640958
v 0.000000 -0.183603 -4.640958
v -0.693059 -0.183603 -1.294569
v 0.000000 -0.183603 -2.967764
v -2.889124 -0.021958 -1.771049
v -2.889125 -0.021958 -4.164478
v -1.196714 -0.021958 -0.078639
v 0.000000 0.023239 -0.971367
v 0.000000 -0.040311 -1.131279
v 0.000000 -0.107452 -1.148877
v 0.000000 -0.107452 -1.278381
v 0.000000 -0.183603 -1.294569
v -0.770605 0.023239 -7.455432
v -0.804360 -0.021958 -7.469157
v -1.736937 0.023239 -7.802269
v -1.770692 -0.021958 -7.815993
v -2.486580 0.023239 -6.280337
v -3.726599 0.023239 -7.156707
v -2.551055 0.023239 -8.353523
v -2.572584 -0.021958 -8.383689
v -3.311580 0.023239 -9.164605
v -3.332669 -0.021958 -9.194330
v -2.551055 0.227005 -8.353523
v -3.726599 0.227005 -7.156707
v -4.674565 0.227005 -8.232435
v -3.311580 0.227005 -9.164605
v -3.311580 0.445854 -9.164605
v -4.674565 0.445854 -8.232435
v -5.523170 0.445854 -9.631584
v -3.953085 0.445854 -10.182306
v -3.953085 0.682083 -10.182306
v -5.523170 0.682083 -9.631584
v -6.030480 0.682077 -11.097578
v -4.322008 0.682322 -11.150037
v -4.674565 0.023239 -8.232435
v -5.523170 0.023239 -9.631584
v -5.523170 0.253004 -9.631584
v -6.030480 0.023234 -11.097578
v -6.030480 0.252998 -11.097578
v -6.113819 0.023234 -12.337079
v -6.113819 0.252998 -12.337079
v -6.113395 0.023239 -13.489841
v -6.113395 0.253004 -13.489841
v -4.397965 0.022676 -12.377631
v -4.322008 0.023478 -11.150037
v -4.322008 0.253243 -11.150037
v -4.397965 0.252440 -12.377631
v -3.953085 0.023239 -10.182306
v -3.953085 0.253004 -10.182306
v -6.030480 0.445848 -11.097578
v -6.113819 0.445848 -12.337079
v -6.113395 0.445854 -13.489841
v -4.322008 0.446093 -11.150037
v -4.397965 0.445290 -12.377631
v -6.113819 0.682077 -12.337079
v -6.113395 0.682083 -13.489841
v -4.397965 0.681519 -12.377631
v -6.030480 0.925921 -11.097578
v -4.322008 0.926166 -11.150037
v -6.113819 0.925921 -12.337079
v -6.113395 0.925927 -13.489841
v -4.397965 0.925363 -12.377631
v -6.113819 1.139918 -12.337079
v -4.397965 1.139360 -12.377631
v -6.113395 1.139923 -13.489841
v -1.196715 -0.021958 -5.760940
v -2.527216 -0.021958 -6.271903
v -3.736751 -0.021958 -7.146426
v -4.681486 -0.021958 -8.224354
v -5.532021 -0.021958 -9.622299
v -3.971724 -0.021958 -10.165405
v -6.029063 -0.021964 -11.088174
v -4.341001 -0.021711 -11.133267
v -6.117569 -0.021963 -12.332644
v -4.417827 -0.022482 -12.352045
v -6.117334 -0.021958 -13.497587
v -4.377479 1.139923 -13.344306
v -2.452749 0.681519 -12.377631
v -2.452749 0.445290 -12.377631
v -2.452749 0.925363 -12.377631
v -2.452749 1.139360 -12.377631
v -2.745638 1.139923 -13.378850
v -6.117334 -0.021958 -15.180546
v -6.113395 0.023239 -15.172801
v -6.113395 0.253004 -15.172801
v -6.113395 0.445854 -15.172801
v -6.113395 0.682083 -15.172801
v -6.113395 0.925927 -15.172801
v -6.113395 1.139923 -15.172801
v -4.360656 1.139923 -15.198855
v -0.753532 1.139923 -14.528206
v -0.793809 1.139923 -15.198855
v -2.198982 0.681519 -12.457163
v -1.743564 0.681519 -13.184962
v -1.743564 0.445290 -13.184962
v -2.198982 0.445290 -12.457163
v -2.198982 0.925363 -12.457163
v -1.743564 0.925363 -13.184962
v -2.198982 1.139360 -12.457163
v -1.743564 1.139360 -13.184962
v -2.590396 1.139923 -13.440209
v -2.074750 1.139923 -13.793793
v -2.807271 1.139923 -15.198855
v -2.634456 1.139923 -15.198855
v -1.492382 1.139923 -14.298538
v -2.089374 1.139923 -15.198855
v -1.509202 1.139923 -15.198855
v -1.260502 0.681519 -13.517575
v -0.648751 0.681519 -13.750802
v -0.648751 0.445290 -13.750802
v -1.260502 0.445290 -13.517575
v -1.260502 0.925363 -13.517575
v -0.648751 0.925363 -13.750802
v -1.260502 1.139360 -13.517575
v -0.648751 1.139360 -13.750802
v 0.000000 0.681519 -13.799684
v 0.000000 0.925363 -13.799684
v 0.000000 1.139360 -13.799684
vn -0.4385 0.8802 -0.1816
vn -0.6172 0.7441 0.2556
vn -0.6172 0.7441 -0.2556
vn -0.4385 0.8802 0.1816
vn -0.2556 0.7441 0.6172
vn -0.0000 0.8026 0.5966
vn -0.1816 0.8802 -0.4385
vn -0.2556 0.7441 -0.6172
vn 0.2663 0.9576 0.1103
vn 0.1627 0.9858 0.0423
vn -0.1816 0.8802 0.4385
vn -0.0000 1.0000 -0.0000
vn 0.1103 0.9576 0.2663
vn -0.4521 0.8721 -0.1873
vn -0.4521 0.8721 0.1873
vn -0.1873 0.8721 0.4521
vn -0.1873 0.8721 -0.4521
vn -0.6307 0.7308 -0.2612
vn -0.2612 0.7308 0.6307
vn -0.6307 0.7308 0.2612
vn -0.0000 0.7917 0.6109
vn -0.2612 0.7308 -0.6307
vn -0.4698 0.8611 -0.1946
vn -0.1946 0.8611 0.4698
vn -0.4698 0.8611 0.1946
vn -0.1946 0.8611 -0.4698
vn -0.6478 0.7130 -0.2683
vn -0.2683 0.7130 0.6478
vn -0.6478 0.7130 0.2683
vn -0.0000 0.7772 0.6293
vn -0.2683 0.7130 -0.6478
vn 0.2660 0.9570 -0.1162
vn 0.4213 0.8900 0.1745
vn 0.4192 0.8900 -0.1796
vn -0.0000 0.8745 0.4850
vn 0.1745 0.8900 0.4213
vn -0.0000 0.8026 -0.5966
vn -0.0000 0.9681 0.2505
vn -0.0000 0.7917 -0.6109
vn -0.0000 0.7772 -0.6293
vn -0.0592 0.8150 -0.5764
vn -0.0000 0.2906 -0.9569
vn -0.0000 0.8033 -0.5956
vn -0.2419 0.1120 -0.9638
vn -0.2770 0.7279 -0.6272
vn -0.4972 -0.1028 -0.8615
vn 0.2308 0.8444 0.4835
vn -0.7785 0.4513 -0.4363
vn -0.6807 0.1538 -0.7162
vn -0.7783 0.0328 -0.6271
vn -0.8157 -0.0066 -0.5785
vn 0.0221 0.5737 0.8188
vn -0.9013 0.3313 -0.2792
vn -0.8149 0.5795 0.0095
vn 0.1729 0.5745 0.8000
vn -0.9322 0.3499 -0.0924
vn -0.7981 0.5793 0.1653
vn 0.3553 0.5771 0.7353
vn -0.9134 0.3740 0.1604
vn -0.7415 0.5759 0.3443
vn 0.3878 0.4406 0.8096
vn 0.8013 0.1133 0.5875
vn 0.8997 0.1286 0.4171
vn 0.5765 0.2804 0.7675
vn 0.9800 -0.0000 0.1988
vn 0.9051 -0.0000 0.4252
vn 0.9986 0.0429 0.0323
vn 0.9815 0.0043 0.1913
vn 0.9991 0.0434 -0.0001
vn 0.9994 -0.0000 0.0334
vn -0.9540 -0.2278 -0.1947
vn -0.9981 -0.0000 -0.0618
vn -0.9813 -0.1825 -0.0606
vn -0.8946 -0.0000 -0.4469
vn -0.9774 -0.0000 -0.2114
vn -0.8673 -0.2446 -0.4336
vn 0.7259 0.2609 0.6364
vn 1.0000 -0.0000 -0.0002
vn -0.9156 -0.0000 0.4020
vn 0.8674 0.2407 0.4354
vn -0.7286 -0.0000 0.6849
vn 0.5475 0.5794 0.6038
vn -0.6042 0.5760 0.5506
vn 0.8997 0.2942 0.3226
vn -0.3122 0.3128 0.8971
vn -0.0084 0.7095 0.7046
vn 0.5712 0.5761 0.5847
vn 0.7846 0.6166 0.0641
vn 0.4324 0.5223 0.7350
vn 0.7832 0.2245 0.5798
vn 0.8735 0.2557 0.4142
vn -0.7802 -0.4743 -0.4079
vn 0.9759 0.0167 0.2174
vn -0.8715 -0.4437 -0.2088
vn 0.9958 0.0849 0.0353
vn -0.9022 -0.4277 -0.0556
vn -0.0001 1.0000 0.0002
vn 0.7071 0.7072 -0.0001
vn -0.1513 -0.0000 0.9885
vn -0.1117 0.6744 0.7299
vn -0.0001 1.0000 0.0003
vn 0.9962 0.0868 -0.0001
vn 0.9990 0.0457 -0.0000
vn 1.0000 -0.0000 -0.0000
vn 0.7038 0.7104 -0.0000
vn -0.0000 1.0000 0.0003
vn -0.7224 -0.0000 0.6914
vn -0.6113 -0.0000 0.7914
vn -0.4714 0.6366 0.6103
vn -0.4733 0.7555 0.4530
vn -0.0002 1.0000 0.0003
vn -0.2180 -0.0000 0.9760
vn -0.4650 -0.0000 0.8853
vn -0.3155 0.7347 0.6006
vn -0.1464 0.7408 0.6556
vn -0.0000 -0.0000 1.0000
vn -0.0000 0.7242 0.6896
vn 0.6172 0.7441 0.2556
vn 0.4385 0.8802 -0.1816
vn 0.6172 0.7441 -0.2556
vn 0.2556 0.7441 0.6172
vn 0.4385 0.8802 0.1816
vn 0.1816 0.8802 0.4385
vn 0.1816 0.8802 -0.4385
vn 0.2556 0.7441 -0.6172
vn -0.2663 0.9576 0.1103
vn -0.1627 0.9858 0.0423
vn -0.2660 0.9570 -0.1162
vn -0.1103 0.9576 0.2663
vn 0.4521 0.8721 -0.1873
vn 0.1873 0.8721 0.4521
vn 0.1873 0.8721 -0.4521
vn 0.6307 0.7308 -0.2612
vn 0.4521 0.8721 0.1873
vn 0.2612 0.7308 0.6307
vn 0.2612 0.7308 -0.6307
vn 0.4698 0.8611 -0.1946
vn 0.6307 0.7308 0.2612
vn 0.1946 0.8611 0.4698
vn 0.6478 0.7130 -0.2683
vn 0.4698 0.8611 0.1946
vn 0.2683 0.7130 0.6478
vn 0.1946 0.8611 -0.4698
vn 0.6478 0.7130 0.2683
vn 0.2683 0.7130 -0.6478
vn -0.4213 0.8900 0.1745
vn 0.0592 0.8150 -0.5764
vn 0.2419 0.1120 -0.9638
vn 0.2770 0.7279 -0.6272
vn -0.2308 0.8444 0.4835
vn 0.7785 0.4513 -0.4363
vn 0.6807 0.1538 -0.7162
vn 0.7783 0.0328 -0.6271
vn 0.9013 0.3313 -0.2792
vn -0.0221 0.5737 0.8188
vn 0.8149 0.5795 0.0095
vn 0.9322 0.3499 -0.0924
vn -0.1729 0.5745 0.8000
vn 0.7981 0.5793 0.1653
vn 0.9134 0.3740 0.1604
vn -0.3553 0.5771 0.7353
vn 0.7415 0.5759 0.3443
vn -0.3878 0.4406 0.8096
vn -0.8013 0.1133 0.5875
vn -0.5765 0.2804 0.7675
vn -0.8997 0.1286 0.4171
vn -0.9800 -0.0000 0.1988
vn -0.9815 0.0043 0.1913
vn -0.9986 0.0429 0.0323
vn -0.9994 -0.0000 0.0334
vn -0.9991 0.0434 -0.0001
vn 0.9981 -0.0000 -0.0618
vn 0.9540 -0.2278 -0.1947
vn 0.9813 -0.1825 -0.0606
vn 0.8946 -0.0000 -0.4469
vn 0.8673 -0.2446 -0.4336
vn -0.9051 -0.0000 0.4252
vn -1.0000 -0.0000 -0.0002
vn 0.9156 -0.0000 0.4020
vn 0.9774 -0.0000 -0.2114
vn -0.7259 0.2609 0.6364
vn -0.8675 0.2407 0.4354
vn 0.7286 -0.0000 0.6849
vn -0.5475 0.5794 0.6038
vn -0.8997 0.2942 0.3226
vn 0.3122 0.3128 0.8971
vn 0.0084 0.7095 0.7046
vn -0.5712 0.5761 0.5847
vn -0.7846 0.6166 0.0641
vn -0.4324 0.5223 0.7350
vn 0.4972 -0.1028 -0.8615
vn -0.7832 0.2245 0.5798
vn -0.6419 0.3043 0.7038
vn -0.8735 0.2557 0.4142
vn 0.8157 -0.0066 -0.5785
vn -0.9759 0.0167 0.2174
vn 0.8715 -0.4437 -0.2088
vn 0.7802 -0.4743 -0.4079
vn -0.9958 0.0849 0.0353
vn 0.9022 -0.4277 -0.0556
vn 0.6042 0.5760 0.5506
vn -0.9962 0.0868 -0.0001
vn 0.0001 1.0000 0.0002
vn -0.7071 0.7072 -0.0001
vn 0.1513 -0.0000 0.9885
vn 0.1117 0.6744 0.7299
vn 0.0001 1.0000 0.0003
vn -0.9990 0.0457 -0.0000
vn -1.0000 -0.0000 -0.0000
vn -0.7038 0.7104 -0.0000
vn 0.7224 -0.0000 0.6914
vn 0.6113 -0.0000 0.7914
vn 0.4714 0.6366 0.6103
vn 0.0002 1.0000 0.0003
vn 0.4733 0.7555 0.4530
vn 0.2180 -0.0000 0.9760
vn 0.4650 -0.0000 0.8853
vn 0.3155 0.7347 0.6006
vn 0.1464 0.7408 0.6556
vn 0.6419 0.3043 0.7038
vn 0.9962 0.0868 -0.0000
vn -0.4192 0.8900 -0.1796
vn -0.1745 0.8900 0.4213
vn -0.9962 0.0868 -0.0000
vt 0.624241 0.237128
vt 0.620268 0.334180
vt 0.620749 0.238555
vt 0.623757 0.335620
vt 0.552404 0.401624
vt 0.504240 0.406374
vt 0.504261 0.402675
vt 0.555319 0.167199
vt 0.553583 0.170524
vt 0.670527 0.218381
vt 0.572885 0.451268
vt 0.554130 0.404986
vt 0.503987 0.451812
vt 0.574574 0.121041
vt 0.612833 0.241771
vt 0.612375 0.330902
vt 0.549238 0.393677
vt 0.550354 0.178424
vt 0.609202 0.243228
vt 0.547462 0.390224
vt 0.608769 0.329394
vt 0.504305 0.394893
vt 0.548531 0.181878
vt 0.601959 0.246163
vt 0.544584 0.382965
vt 0.601548 0.326400
vt 0.504326 0.391007
vt 0.545593 0.189096
vt 0.597918 0.247777
vt 0.542595 0.379152
vt 0.597539 0.324724
vt 0.504367 0.383800
vt 0.543543 0.192916
vt 0.504913 0.285820
vt 0.504391 0.379385
vt 0.669751 0.354962
vt 0.675811 0.216235
vt 0.675009 0.357165
vt 0.505870 0.114409
vt 0.576879 0.115833
vt 0.505586 0.165227
vt 0.505566 0.168929
vt 0.505840 0.119733
vt 0.505522 0.176717
vt 0.505500 0.180606
vt 0.505460 0.187817
vt 0.505436 0.192236
vt 0.552137 0.100182
vt 0.508728 0.100849
vt 0.508781 0.098158
vt 0.510680 0.002505
vt 0.579070 0.004897
vt 0.553324 0.103246
vt 0.605283 0.123488
vt 0.605574 0.126756
vt 0.654831 0.039164
vt 0.647770 0.158987
vt 0.802557 0.005600
vt 0.820472 0.064105
vt 0.818492 0.066747
vt 0.724209 0.106197
vt 0.695157 0.216806
vt 0.655103 0.168368
vt 0.777548 0.177224
vt 0.738321 0.285781
vt 0.701415 0.228157
vt 0.827490 0.262956
vt 0.769017 0.352316
vt 0.742595 0.299268
vt 0.724154 0.095645
vt 0.788518 0.158394
vt 0.851492 0.237709
vt 0.779798 0.166219
vt 0.890417 0.326178
vt 0.840662 0.245279
vt 0.934442 0.389853
vt 0.901996 0.319887
vt 0.962876 0.454176
vt 0.922389 0.395366
vt 0.852506 0.187495
vt 0.883453 0.251615
vt 0.870854 0.255029
vt 0.850087 0.127127
vt 0.865138 0.184103
vt 0.837442 0.130415
vt 0.831687 0.061208
vt 0.804533 0.002926
vt 0.880724 0.331431
vt 0.831580 0.251613
vt 0.950670 0.459177
vt 0.912265 0.400058
vt 0.894033 0.248752
vt 0.860698 0.124364
vt 0.875738 0.181261
vt 0.843738 0.058118
vt 0.868878 0.337802
vt 0.940491 0.463478
vt 0.899853 0.405869
vt 0.906999 0.245242
vt 0.873679 0.120927
vt 0.888716 0.177778
vt 0.863586 0.348917
vt 0.770661 0.366907
vt 0.887017 0.411913
vt 0.928112 0.468864
vt 0.920381 0.241612
vt 0.791536 0.448036
vt 0.788804 0.435476
vt 0.915440 0.474559
vt 0.883069 0.421960
vt 0.576203 0.451797
vt 0.581724 0.002819
vt 0.657998 0.037563
vt 0.647525 0.162313
vt 0.790405 0.156500
vt 0.853533 0.235930
vt 0.834529 0.130786
vt 0.904005 0.318133
vt 0.849565 0.187545
vt 0.936713 0.388534
vt 0.867749 0.254445
vt 0.807158 0.502261
vt 0.904417 0.479679
vt 0.657411 0.422089
vt 0.769675 0.414314
vt 0.769091 0.427787
vt 0.659045 0.435520
vt 0.768512 0.441810
vt 0.660259 0.447159
vt 0.767862 0.454249
vt 0.668195 0.502820
vt 0.761451 0.510348
vt 0.965472 0.453634
vt 0.997392 0.546613
vt 0.984989 0.551306
vt 0.974574 0.555318
vt 0.961777 0.560290
vt 0.948484 0.565441
vt 0.841189 0.603785
vt 0.936714 0.569921
vt 0.545921 0.590499
vt 0.502953 0.553876
vt 0.546362 0.552172
vt 0.593249 0.444640
vt 0.640783 0.426775
vt 0.599904 0.456316
vt 0.644637 0.439229
vt 0.606434 0.468910
vt 0.647996 0.449581
vt 0.612641 0.480116
vt 0.658772 0.504771
vt 0.658661 0.604978
vt 0.617711 0.598837
vt 0.589944 0.543072
vt 0.626649 0.519090
vt 0.535735 0.468400
vt 0.571767 0.471603
vt 0.538172 0.481615
vt 0.576749 0.484605
vt 0.540699 0.495255
vt 0.581147 0.496141
vt 0.542922 0.507296
vt 0.585233 0.594440
vt 0.503511 0.470411
vt 0.503420 0.484022
vt 0.503327 0.497930
vt 0.503246 0.510044
vt 0.566787 0.459144
vt 0.648753 0.603551
vt 0.635786 0.414794
vt 0.389026 0.332890
vt 0.386137 0.235799
vt 0.389612 0.237265
vt 0.456133 0.401087
vt 0.385521 0.334291
vt 0.454369 0.404429
vt 0.455834 0.166644
vt 0.457534 0.169988
vt 0.340063 0.216537
vt 0.435099 0.450499
vt 0.339314 0.353118
vt 0.437096 0.120274
vt 0.397492 0.240570
vt 0.459388 0.393176
vt 0.460673 0.177924
vt 0.401107 0.242067
vt 0.396955 0.329700
vt 0.461202 0.389743
vt 0.462458 0.181398
vt 0.408316 0.245083
vt 0.400577 0.328232
vt 0.464160 0.382516
vt 0.412339 0.246742
vt 0.407832 0.325319
vt 0.466192 0.378726
vt 0.465315 0.188648
vt 0.411860 0.323688
vt 0.467323 0.192490
vt 0.334802 0.214332
vt 0.465380 0.098461
vt 0.464072 0.101476
vt 0.411348 0.119641
vt 0.365190 0.033414
vt 0.442249 0.002182
vt 0.367482 0.153424
vt 0.124847 0.005990
vt 0.105197 0.063936
vt 0.122952 0.003258
vt 0.317824 0.209311
vt 0.293205 0.097632
vt 0.359781 0.162506
vt 0.271933 0.276511
vt 0.237078 0.166472
vt 0.311117 0.220405
vt 0.238592 0.341767
vt 0.183749 0.250134
vt 0.267121 0.289817
vt 0.293680 0.087090
vt 0.226869 0.147219
vt 0.235270 0.155386
vt 0.160778 0.223947
vt 0.118339 0.310779
vt 0.107021 0.304028
vt 0.071793 0.372629
vt 0.083614 0.378623
vt 0.040794 0.435755
vt 0.036610 0.249471
vt 0.069477 0.186313
vt 0.049100 0.253263
vt 0.073711 0.126044
vt 0.086251 0.129709
vt 0.094074 0.060705
vt 0.171296 0.231944
vt 0.127813 0.316416
vt 0.093541 0.383718
vt 0.052790 0.441243
vt 0.026120 0.246290
vt 0.056953 0.182542
vt 0.063187 0.122964
vt 0.082121 0.057257
vt 0.180116 0.238637
vt 0.139394 0.323258
vt 0.105709 0.390023
vt 0.062787 0.445950
vt 0.013267 0.242391
vt 0.046443 0.179382
vt 0.050316 0.119138
vt 0.144235 0.334576
vt 0.118292 0.396579
vt 0.074939 0.451830
vt 0.000000 0.238359
vt 0.033575 0.175510
vt 0.212243 0.436510
vt 0.215478 0.424070
vt 0.121833 0.406776
vt 0.087372 0.458030
vt 0.431775 0.450991
vt 0.439679 -0.000000
vt 0.362089 0.031688
vt 0.410928 0.122895
vt 0.225059 0.145251
vt 0.291909 0.085005
vt 0.158809 0.222087
vt 0.107097 0.066635
vt 0.105084 0.302194
vt 0.072415 0.186451
vt 0.089152 0.130168
vt 0.069576 0.371220
vt 0.052222 0.252774
vt 0.236363 0.356281
vt 0.038222 0.435108
vt 0.194453 0.490064
vt 0.098180 0.463589
vt 0.350272 0.420034
vt 0.238121 0.410758
vt 0.351444 0.406709
vt 0.348458 0.433441
vt 0.238526 0.424237
vt 0.347088 0.445064
vt 0.238916 0.438266
vt 0.338408 0.500613
vt 0.239400 0.450713
vt 0.002586 0.526725
vt 0.014791 0.531914
vt 0.025035 0.536342
vt 0.037622 0.541826
vt 0.050697 0.547507
vt 0.156362 0.590138
vt 0.062277 0.552458
vt 0.459498 0.589920
vt 0.502721 0.588578
vt 0.414126 0.443442
vt 0.366836 0.424942
vt 0.371992 0.413029
vt 0.407316 0.455028
vt 0.362815 0.437343
vt 0.400617 0.467533
vt 0.359318 0.447650
vt 0.347804 0.502690
vt 0.394261 0.478655
vt 0.379733 0.517438
vt 0.346575 0.602889
vt 0.356501 0.601595
vt 0.387603 0.597297
vt 0.416114 0.541909
vt 0.420137 0.593336
vt 0.471317 0.467969
vt 0.435245 0.470690
vt 0.440392 0.458299
vt 0.468703 0.481151
vt 0.430090 0.483623
vt 0.465994 0.494755
vt 0.425538 0.495100
vt 0.463611 0.506765
vt 0.459570 0.551591
vt 0.245060 0.506893
vt 0.815747 0.000002
vt 0.902099 0.174141
vt 0.726007 0.093632
vt 0.656417 0.408750
vt 1.000000 0.546126
vt 0.746965 0.615637
vt 0.334031 0.355262
vt 0.434850 0.115040
vt 0.111829 0.000001
vt 0.020309 0.171470
vt 0.367594 0.156757
vt 0.000000 0.526134
vt 0.258136 0.612366
s 1
usemtl Material_#25
f 5/1/1 2/2/2 1/3/3
f 6/4/4 3/5/5 2/2/2
f 3/5/5 110/6/6 37/7/6
f 8/8/7 1/3/3 4/9/8
f 9/10/9 6/4/4 5/1/1
f 6/4/4 11/11/10 7/12/11
f 7/12/11 111/13/12 110/6/6
f 12/14/13 5/1/1 8/8/7
f 2/2/2 13/15/14 1/3/3
f 3/5/5 14/16/15 2/2/2
f 37/7/6 15/17/16 3/5/5
f 1/3/3 16/18/17 4/9/8
f 14/16/15 17/19/18 13/15/14
f 14/16/15 19/20/19 18/21/20
f 112/22/21 19/20/19 15/17/16
f 16/18/17 17/19/18 20/23/22
f 18/21/20 21/24/23 17/19/18
f 18/21/20 23/25/24 22/26/25
f 113/27/21 23/25/24 19/20/19
f 17/19/18 24/28/26 20/23/22
f 22/26/25 25/29/27 21/24/23
f 22/26/25 27/30/28 26/31/29
f 38/32/30 27/30/28 23/25/24
f 24/28/26 25/29/27 28/33/31
f 25/29/27 26/31/29 178/34/12
f 26/31/29 27/30/28 178/34/12
f 27/30/28 176/35/30 178/34/12
f 28/33/31 25/29/27 178/34/12
f 10/36/32 29/37/33 30/38/34
f 12/14/13 114/39/35 32/40/36
f 12/14/13 29/37/33 9/10/9
f 182/41/37 4/9/8 35/42/37
f 36/43/38 8/8/7 182/41/37
f 35/42/37 16/18/17 183/44/39
f 183/44/39 20/23/22 184/45/39
f 184/45/39 24/28/26 185/46/40
f 185/46/40 28/33/31 186/47/40
f 33/48/41 115/49/42 39/50/43
f 33/48/41 111/51/12 11/52/10
f 186/47/40 28/33/31 178/34/12
f 34/53/44 43/54/45 42/55/46
f 33/48/41 40/56/47 43/54/45
f 40/56/47 47/57/48 43/54/45
f 46/58/49 51/59/50 50/60/51
f 67/61/52 76/62/53 66/63/54
f 78/64/55 85/65/56 77/66/57
f 87/67/58 92/68/59 86/69/60
f 44/70/61 66/63/54 47/57/48
f 48/71/62 67/61/52 44/70/61
f 52/72/63 68/73/64 48/71/62
f 52/72/63 70/74/65 69/75/66
f 62/76/67 70/74/65 56/77/68
f 60/78/69 71/79/70 62/76/67
f 59/80/71 73/81/72 65/82/73
f 59/80/71 75/83/74 74/84/75
f 55/85/76 76/86/53 75/83/74
f 47/87/48 76/86/53 51/59/50
f 68/73/64 77/66/57 76/62/53
f 69/75/66 78/64/55 68/73/64
f 69/75/66 80/88/65 79/89/77
f 71/79/70 80/88/65 70/74/65
f 72/90/78 81/91/70 71/79/70
f 74/84/75 83/92/79 73/81/72
f 74/84/75 85/93/56 84/94/75
f 75/83/74 77/95/57 85/93/56
f 79/89/77 86/69/60 85/65/56
f 79/89/77 88/96/80 87/67/58
f 81/91/70 88/96/80 80/88/65
f 82/97/78 89/98/70 81/91/70
f 84/94/75 91/99/81 83/92/79
f 84/94/75 86/100/60 92/101/59
f 92/68/59 94/102/82 93/103/83
f 88/96/80 95/104/84 94/102/82
f 90/105/78 95/104/84 89/98/70
f 92/101/59 97/106/85 91/99/81
f 95/104/84 98/107/86 97/108/85
f 96/109/78 99/110/87 95/104/84
f 10/36/32 31/111/88 11/11/10
f 31/112/88 40/56/47 11/52/10
f 41/113/89 44/70/61 40/56/47
f 42/55/46 47/57/48 46/114/49
f 44/70/61 49/115/90 48/71/62
f 48/71/62 53/116/91 52/72/63
f 50/60/51 55/85/76 54/117/92
f 52/72/63 57/118/93 56/77/68
f 55/85/76 58/119/94 54/117/92
f 63/120/95 56/77/68 57/118/93
f 59/80/71 64/121/96 58/119/94
f 94/102/82 97/108/85 93/103/83
f 63/120/95 60/78/69 62/76/67
f 101/122/97 99/110/87 100/123/98
f 147/124/99 83/125/79 91/126/81
f 146/127/99 91/126/81 97/128/85
f 145/129/100 97/128/85 98/130/86
f 144/131/101 98/130/86 101/132/97
f 61/133/102 102/134/103 60/78/69
f 60/78/69 104/135/104 72/90/78
f 72/90/78 105/136/104 82/97/78
f 82/97/78 106/137/104 90/105/78
f 90/105/78 107/138/104 96/109/78
f 100/123/98 109/139/12 101/122/97
f 96/109/78 108/140/105 100/123/98
f 136/141/12 117/142/106 135/143/101
f 142/144/107 120/145/108 137/146/107
f 137/146/107 121/147/108 138/148/107
f 138/148/107 122/149/109 139/150/110
f 123/151/111 139/150/110 122/149/109
f 143/152/12 123/151/111 144/131/101
f 141/153/12 129/154/101 140/155/111
f 131/156/112 126/157/113 132/158/112
f 132/158/112 127/159/113 133/160/112
f 133/160/112 128/161/114 134/162/115
f 134/162/115 129/154/101 135/143/101
f 130/163/12 135/143/101 129/154/101
f 116/164/116 132/158/112 290/165/116
f 290/165/116 133/160/112 291/166/116
f 291/166/116 134/162/115 292/167/117
f 292/167/117 135/143/101 117/142/106
f 125/168/113 137/146/107 126/157/113
f 126/157/113 138/148/107 127/159/113
f 127/159/113 139/150/110 128/161/114
f 140/155/111 128/161/114 139/150/110
f 124/169/12 140/155/111 123/151/111
f 119/170/108 147/124/99 120/145/108
f 120/145/108 146/127/99 121/147/108
f 121/147/108 145/129/100 122/149/109
f 144/131/101 122/149/109 145/129/100
f 101/132/97 143/152/12 144/131/101
f 152/171/118 150/172/119 149/173/120
f 154/174/121 151/175/122 152/171/118
f 154/174/121 110/6/6 153/176/123
f 149/173/120 156/177/124 155/178/125
f 151/175/122 157/179/126 150/172/119
f 151/175/122 159/180/127 158/181/128
f 153/176/123 111/13/12 159/180/127
f 150/172/119 160/182/129 156/177/124
f 162/183/130 152/171/118 149/173/120
f 152/171/118 163/184/131 154/174/121
f 163/184/131 37/7/6 154/174/121
f 164/185/132 149/173/120 155/178/125
f 166/186/133 161/187/134 162/183/130
f 161/187/134 167/188/135 163/184/131
f 167/188/135 112/22/21 163/184/131
f 168/189/136 162/183/130 164/185/132
f 170/190/137 165/191/138 166/186/133
f 165/191/138 171/192/139 167/188/135
f 171/192/139 113/27/21 167/188/135
f 168/189/136 170/190/137 166/186/133
f 174/193/140 169/194/141 170/190/137
f 169/194/141 175/195/142 171/192/139
f 175/195/142 38/32/30 171/192/139
f 172/196/143 174/193/140 170/190/137
f 174/193/140 178/34/12 173/197/144
f 173/197/144 178/34/12 175/195/142
f 175/195/142 178/34/12 176/35/30
f 177/198/145 178/34/12 174/193/140
f 158/181/128 179/199/146 157/179/126
f 160/182/129 114/39/35 36/43/38
f 179/199/146 160/182/129 157/179/126
f 182/41/37 155/178/125 156/177/124
f 36/43/38 156/177/124 160/182/129
f 35/42/37 164/185/132 155/178/125
f 183/44/39 168/189/136 164/185/132
f 184/45/39 172/196/143 168/189/136
f 185/46/40 177/198/145 172/196/143
f 115/49/42 187/200/147 39/50/43
f 187/200/147 111/51/12 39/50/43
f 186/47/40 178/34/12 177/198/145
f 188/201/148 189/202/149 187/200/147
f 187/200/147 191/203/150 159/204/127
f 193/205/151 191/203/150 189/202/149
f 194/206/152 195/207/153 193/208/151
f 200/209/154 198/210/155 197/211/156
f 204/212/157 202/213/158 201/214/159
f 208/215/160 206/216/161 205/217/162
f 197/211/156 192/218/163 193/205/151
f 198/210/155 209/219/164 192/218/163
f 199/220/165 210/221/166 209/219/164
f 210/221/166 213/222/167 212/223/168
f 213/222/167 214/224/169 212/223/168
f 215/225/170 216/226/171 214/224/169
f 221/227/172 219/228/173 218/229/174
f 219/228/173 223/230/175 222/231/176
f 222/231/176 200/232/154 195/207/153
f 200/232/154 193/208/151 195/207/153
f 201/214/159 199/220/165 200/209/154
f 202/213/158 211/233/177 199/220/165
f 211/233/177 224/234/167 213/222/167
f 224/234/167 215/225/170 213/222/167
f 225/235/170 217/236/178 215/225/170
f 228/237/179 220/238/180 221/227/172
f 220/238/180 204/239/157 223/230/175
f 223/230/175 201/240/159 200/232/154
f 205/217/162 203/241/181 204/212/157
f 203/241/181 207/242/182 224/234/167
f 207/242/182 225/235/170 224/234/167
f 229/243/170 226/244/178 225/235/170
f 231/245/183 227/246/180 228/237/179
f 227/246/180 205/247/162 204/239/157
f 208/215/160 232/248/184 207/242/182
f 232/248/184 229/243/170 207/242/182
f 234/249/185 230/250/178 229/243/170
f 236/251/186 208/252/160 231/245/183
f 238/253/187 234/249/185 236/254/186
f 237/255/188 235/256/178 234/249/185
f 240/257/189 158/181/128 159/180/127
f 191/203/150 240/258/189 159/204/127
f 192/218/163 241/259/190 191/203/150
f 190/260/191 193/205/151 189/202/149
f 192/218/163 243/261/192 242/262/193
f 209/219/164 244/263/194 243/261/192
f 196/264/195 222/231/176 195/207/153
f 210/221/166 246/265/196 244/263/194
f 247/266/197 222/231/176 245/267/198
f 212/223/168 248/268/199 246/265/196
f 249/269/200 219/228/173 247/266/197
f 236/254/186 232/248/184 233/270/201
f 248/268/199 216/226/171 250/271/202
f 237/255/188 251/272/203 239/273/204
f 252/274/205 228/275/179 253/276/205
f 254/277/205 231/278/183 252/274/205
f 255/279/206 236/280/186 254/277/205
f 256/281/207 238/282/187 255/279/206
f 258/283/208 250/271/202 216/226/171
f 259/284/209 216/226/171 217/236/178
f 260/285/209 217/236/178 226/244/178
f 261/286/209 226/244/178 230/250/178
f 262/287/209 230/250/178 235/256/178
f 264/288/12 239/273/204 251/272/203
f 263/289/210 235/256/178 239/273/204
f 266/290/12 117/142/106 118/291/12
f 269/292/211 267/293/212 270/294/212
f 268/295/211 271/296/212 267/293/212
f 272/297/211 273/298/213 271/296/212
f 275/299/214 274/300/215 276/301/214
f 277/302/12 275/299/214 278/303/12
f 280/304/12 279/305/207 281/306/12
f 284/307/216 282/308/217 285/309/217
f 283/310/216 286/311/217 282/308/217
f 287/312/216 288/313/218 286/311/217
f 289/314/219 279/305/207 288/313/218
f 281/306/12 265/315/207 266/290/12
f 116/164/116 283/310/216 284/307/216
f 290/165/116 287/312/216 283/310/216
f 291/166/116 289/314/219 287/312/216
f 292/167/117 265/315/207 289/314/219
f 285/309/217 268/295/211 269/292/211
f 282/308/217 272/297/211 268/295/211
f 286/311/217 274/300/215 272/297/211
f 276/301/214 288/313/218 279/305/207
f 278/303/12 276/301/214 280/304/12
f 270/294/212 252/274/205 253/276/205
f 267/293/212 254/277/205 252/274/205
f 271/296/212 255/279/206 254/277/205
f 256/281/207 273/298/213 275/299/214
f 277/302/12 251/316/203 256/281/207
f 5/1/1 6/4/4 2/2/2
f 6/4/4 7/12/11 3/5/5
f 3/5/5 7/12/11 110/6/6
f 8/8/7 5/1/1 1/3/3
f 9/10/9 10/36/32 6/4/4
f 6/4/4 10/36/32 11/11/10
f 7/12/11 11/11/10 111/13/12
f 12/14/13 9/10/9 5/1/1
f 2/2/2 14/16/15 13/15/14
f 3/5/5 15/17/16 14/16/15
f 37/7/6 112/22/21 15/17/16
f 1/3/3 13/15/14 16/18/17
f 14/16/15 18/21/20 17/19/18
f 14/16/15 15/17/16 19/20/19
f 112/22/21 113/27/21 19/20/19
f 16/18/17 13/15/14 17/19/18
f 18/21/20 22/26/25 21/24/23
f 18/21/20 19/20/19 23/25/24
f 113/27/21 38/32/30 23/25/24
f 17/19/18 21/24/23 24/28/26
f 22/26/25 26/31/29 25/29/27
f 22/26/25 23/25/24 27/30/28
f 38/32/30 176/35/30 27/30/28
f 24/28/26 21/24/23 25/29/27
f 10/36/32 9/10/9 29/37/33
f 12/14/13 36/43/38 114/39/35
f 12/14/13 32/40/36 29/37/33
f 182/41/37 8/8/7 4/9/8
f 36/43/38 12/14/13 8/8/7
f 35/42/37 4/9/8 16/18/17
f 183/44/39 16/18/17 20/23/22
f 184/45/39 20/23/22 24/28/26
f 185/46/40 24/28/26 28/33/31
f 33/48/41 34/53/44 115/49/42
f 33/48/41 39/50/43 111/51/12
f 34/53/44 33/48/41 43/54/45
f 33/48/41 11/52/10 40/56/47
f 40/56/47 44/70/61 47/57/48
f 46/58/49 47/87/48 51/59/50
f 67/61/52 68/73/64 76/62/53
f 78/64/55 79/89/77 85/65/56
f 87/67/58 88/96/80 92/68/59
f 44/70/61 67/61/52 66/63/54
f 48/71/62 68/73/64 67/61/52
f 52/72/63 69/75/66 68/73/64
f 52/72/63 56/77/68 70/74/65
f 62/76/67 71/79/70 70/74/65
f 60/78/69 72/90/78 71/79/70
f 59/80/71 74/84/75 73/81/72
f 59/80/71 55/85/76 75/83/74
f 55/85/76 51/59/50 76/86/53
f 47/87/48 66/317/54 76/86/53
f 68/73/64 78/64/55 77/66/57
f 69/75/66 79/89/77 78/64/55
f 69/75/66 70/74/65 80/88/65
f 71/79/70 81/91/70 80/88/65
f 72/90/78 82/97/78 81/91/70
f 74/84/75 84/94/75 83/92/79
f 74/84/75 75/83/74 85/93/56
f 75/83/74 76/86/53 77/95/57
f 79/89/77 87/67/58 86/69/60
f 79/89/77 80/88/65 88/96/80
f 81/91/70 89/98/70 88/96/80
f 82/97/78 90/105/78 89/98/70
f 84/94/75 92/101/59 91/99/81
f 84/94/75 85/93/56 86/100/60
f 92/68/59 88/96/80 94/102/82
f 88/96/80 89/98/70 95/104/84
f 90/105/78 96/109/78 95/104/84
f 92/101/59 93/318/83 97/106/85
f 95/104/84 99/110/87 98/107/86
f 96/109/78 100/123/98 99/110/87
f 10/36/32 30/38/34 31/111/88
f 31/112/88 41/113/89 40/56/47
f 41/113/89 45/319/220 44/70/61
f 42/55/46 43/54/45 47/57/48
f 44/70/61 45/319/220 49/115/90
f 48/71/62 49/115/90 53/116/91
f 50/60/51 51/59/50 55/85/76
f 52/72/63 53/116/91 57/118/93
f 55/85/76 59/80/71 58/119/94
f 63/120/95 62/76/67 56/77/68
f 59/80/71 65/82/73 64/121/96
f 94/102/82 95/104/84 97/108/85
f 63/120/95 61/133/102 60/78/69
f 101/122/97 98/107/86 99/110/87
f 147/124/99 148/320/99 83/125/79
f 146/127/99 147/124/99 91/126/81
f 145/129/100 146/127/99 97/128/85
f 144/131/101 145/129/100 98/130/86
f 61/133/102 103/321/221 102/134/103
f 60/78/69 102/134/103 104/135/104
f 72/90/78 104/135/104 105/136/104
f 82/97/78 105/136/104 106/137/104
f 90/105/78 106/137/104 107/138/104
f 100/123/98 108/140/105 109/139/12
f 96/109/78 107/138/104 108/140/105
f 136/141/12 118/291/12 117/142/106
f 142/144/107 119/170/108 120/145/108
f 137/146/107 120/145/108 121/147/108
f 138/148/107 121/147/108 122/149/109
f 123/151/111 140/155/111 139/150/110
f 143/152/12 124/169/12 123/151/111
f 141/153/12 130/163/12 129/154/101
f 131/156/112 125/168/113 126/157/113
f 132/158/112 126/157/113 127/159/113
f 133/160/112 127/159/113 128/161/114
f 134/162/115 128/161/114 129/154/101
f 130/163/12 136/141/12 135/143/101
f 116/164/116 131/156/112 132/158/112
f 290/165/116 132/158/112 133/160/112
f 291/166/116 133/160/112 134/162/115
f 292/167/117 134/162/115 135/143/101
f 125/168/113 142/144/107 137/146/107
f 126/157/113 137/146/107 138/148/107
f 127/159/113 138/148/107 139/150/110
f 140/155/111 129/154/101 128/161/114
f 124/169/12 141/153/12 140/155/111
f 119/170/108 148/320/99 147/124/99
f 120/145/108 147/124/99 146/127/99
f 121/147/108 146/127/99 145/129/100
f 144/131/101 123/151/111 122/149/109
f 101/132/97 109/322/12 143/152/12
f 152/171/118 151/175/122 150/172/119
f 154/174/121 153/176/123 151/175/122
f 154/174/121 37/7/6 110/6/6
f 149/173/120 150/172/119 156/177/124
f 151/175/122 158/181/128 157/179/126
f 151/175/122 153/176/123 159/180/127
f 153/176/123 110/6/6 111/13/12
f 150/172/119 157/179/126 160/182/129
f 162/183/130 161/187/134 152/171/118
f 152/171/118 161/187/134 163/184/131
f 163/184/131 112/22/21 37/7/6
f 164/185/132 162/183/130 149/173/120
f 166/186/133 165/191/138 161/187/134
f 161/187/134 165/191/138 167/188/135
f 167/188/135 113/27/21 112/22/21
f 168/189/136 166/186/133 162/183/130
f 170/190/137 169/194/141 165/191/138
f 165/191/138 169/194/141 171/192/139
f 171/192/139 38/32/30 113/27/21
f 168/189/136 172/196/143 170/190/137
f 174/193/140 173/197/144 169/194/141
f 169/194/141 173/197/144 175/195/142
f 175/195/142 176/35/30 38/32/30
f 172/196/143 177/198/145 174/193/140
f 158/181/128 180/323/222 179/199/146
f 160/182/129 181/324/223 114/39/35
f 179/199/146 181/324/223 160/182/129
f 182/41/37 35/42/37 155/178/125
f 36/43/38 182/41/37 156/177/124
f 35/42/37 183/44/39 164/185/132
f 183/44/39 184/45/39 168/189/136
f 184/45/39 185/46/40 172/196/143
f 185/46/40 186/47/40 177/198/145
f 115/49/42 188/201/148 187/200/147
f 187/200/147 159/204/127 111/51/12
f 188/201/148 190/260/191 189/202/149
f 187/200/147 189/202/149 191/203/150
f 193/205/151 192/218/163 191/203/150
f 194/206/152 196/264/195 195/207/153
f 200/209/154 199/220/165 198/210/155
f 204/212/157 203/241/181 202/213/158
f 208/215/160 207/242/182 206/216/161
f 197/211/156 198/210/155 192/218/163
f 198/210/155 199/220/165 209/219/164
f 199/220/165 211/233/177 210/221/166
f 210/221/166 211/233/177 213/222/167
f 213/222/167 215/225/170 214/224/169
f 215/225/170 217/236/178 216/226/171
f 221/227/172 220/238/180 219/228/173
f 219/228/173 220/238/180 223/230/175
f 222/231/176 223/230/175 200/232/154
f 200/232/154 197/325/156 193/208/151
f 201/214/159 202/213/158 199/220/165
f 202/213/158 203/241/181 211/233/177
f 211/233/177 203/241/181 224/234/167
f 224/234/167 225/235/170 215/225/170
f 225/235/170 226/244/178 217/236/178
f 228/237/179 227/246/180 220/238/180
f 220/238/180 227/246/180 204/239/157
f 223/230/175 204/239/157 201/240/159
f 205/217/162 206/216/161 203/241/181
f 203/241/181 206/216/161 207/242/182
f 207/242/182 229/243/170 225/235/170
f 229/243/170 230/250/178 226/244/178
f 231/245/183 208/252/160 227/246/180
f 227/246/180 208/252/160 205/247/162
f 208/215/160 233/270/201 232/248/184
f 232/248/184 234/249/185 229/243/170
f 234/249/185 235/256/178 230/250/178
f 236/251/186 233/326/201 208/252/160
f 238/253/187 237/255/188 234/249/185
f 237/255/188 239/273/204 235/256/178
f 240/257/189 180/323/222 158/181/128
f 191/203/150 241/259/190 240/258/189
f 192/218/163 242/262/193 241/259/190
f 190/260/191 194/327/152 193/205/151
f 192/218/163 209/219/164 243/261/192
f 209/219/164 210/221/166 244/263/194
f 196/264/195 245/267/198 222/231/176
f 210/221/166 212/223/168 246/265/196
f 247/266/197 219/228/173 222/231/176
f 212/223/168 214/224/169 248/268/199
f 249/269/200 218/229/174 219/228/173
f 236/254/186 234/249/185 232/248/184
f 248/268/199 214/224/169 216/226/171
f 237/255/188 238/253/187 251/272/203
f 252/274/205 231/278/183 228/275/179
f 254/277/205 236/280/186 231/278/183
f 255/279/206 238/282/187 236/280/186
f 256/281/207 251/316/203 238/282/187
f 258/283/208 257/328/224 250/271/202
f 259/284/209 258/283/208 216/226/171
f 260/285/209 259/284/209 217/236/178
f 261/286/209 260/285/209 226/244/178
f 262/287/209 261/286/209 230/250/178
f 264/288/12 263/289/210 239/273/204
f 263/289/210 262/287/209 235/256/178
f 266/290/12 265/315/207 117/142/106
f 269/292/211 268/295/211 267/293/212
f 268/295/211 272/297/211 271/296/212
f 272/297/211 274/300/215 273/298/213
f 275/299/214 273/298/213 274/300/215
f 277/302/12 256/281/207 275/299/214
f 280/304/12 276/301/214 279/305/207
f 284/307/216 283/310/216 282/308/217
f 283/310/216 287/312/216 286/311/217
f 287/312/216 289/314/219 288/313/218
f 289/314/219 265/315/207 279/305/207
f 281/306/12 279/305/207 265/315/207
f 116/164/116 290/165/116 283/310/216
f 290/165/116 291/166/116 287/312/216
f 291/166/116 292/167/117 289/314/219
f 292/167/117 117/142/106 265/315/207
f 285/309/217 282/308/217 268/295/211
f 282/308/217 286/311/217 272/297/211
f 286/311/217 288/313/218 274/300/215
f 276/301/214 274/300/215 288/313/218
f 278/303/12 275/299/214 276/301/214
f 270/294/212 267/293/212 252/274/205
f 267/293/212 271/296/212 254/277/205
f 271/296/212 273/298/213 255/279/206
f 256/281/207 255/279/206 273/298/213
f 277/302/12 264/329/12 251/316/203
