# Blender 5.0.0
# www.blender.org
mtllib land4.mtl
o Plane001
v -21.880493 0.000000 17.449141
v 21.880491 0.000000 17.449141
v -21.880493 -0.000000 -11.112556
v 21.880493 -0.000000 -11.112556
v 0.000000 1.089010 -11.112556
v 0.000000 0.000000 17.449141
v -1.609131 0.000000 17.449141
v -3.283274 1.024483 -11.115077
v 3.295879 1.026914 -11.112556
v 1.609130 0.000000 17.449141
v -21.880487 -0.000000 -2.966272
v 21.880487 -0.000000 -2.966272
v -2.367186 -0.000000 -2.966272
v 2.367186 -0.000000 -2.966272
v -21.880487 -0.000000 -4.603190
v 21.880487 -0.000000 -4.603190
v -0.000000 -0.000000 -5.374337
v -1.718109 -0.000000 -4.714051
v 1.718109 -0.000000 -4.714051
v 21.880487 -0.000000 -1.329354
v -0.000000 -0.000000 -0.558207
v -1.718109 -0.000000 -1.218493
v 1.718109 -0.000000 -1.218493
v -21.880487 -0.000000 -1.329354
v -21.880489 -0.000000 -7.697955
v 21.880489 -0.000000 -7.697955
v 0.000000 -0.000000 -7.429240
v -1.609131 -0.000000 -7.697956
v 1.609131 -0.000000 -7.697956
v 4.327954 -0.000000 -11.112556
v 4.327953 -0.000000 -7.697956
v 4.327953 -0.000000 -4.603191
v 4.339296 -0.000000 -2.966272
v 4.327953 -0.000000 -1.329354
v 4.327954 0.000000 17.449141
v -4.520819 0.000000 17.449141
v -4.520819 -0.000000 -1.329354
v -4.524250 -0.000000 -2.966272
v -4.520819 -0.000000 -4.603191
v -4.520819 -0.000000 -7.697956
v -4.520819 -0.000000 -11.112556
v -21.880493 -0.000000 -13.494527
v 21.880493 -0.000000 -13.494527
v 0.000000 1.089010 -13.494526
v -3.286068 1.026914 -13.494526
v 3.295879 1.026914 -13.494526
v 4.327953 -0.000000 -13.494529
v -4.520820 -0.000000 -13.494529
v 2.246279 0.787993 -9.331020
v 0.004905 0.764549 -9.112822
v -2.205414 0.760979 -9.359043
v -4.337494 0.590750 -13.494527
v -4.257033 0.558885 -11.145612
v -2.014173 0.339734 -8.514120
v 0.009831 0.448775 -8.228776
v 2.033834 0.339734 -8.514120
v 4.118274 0.571139 -11.148337
v 4.233542 0.593468 -13.494527
v -3.436581 -0.000000 -9.240232
v -3.300570 0.470237 -9.628178
v -2.847249 0.883651 -10.059690
v 0.000000 0.988755 -10.090388
v 2.793083 0.934960 -9.924330
v 3.149885 0.473767 -9.545604
v 3.251890 -0.000000 -9.159734
v -21.880493 -0.000000 -15.110198
v 21.880489 -0.000000 -15.110198
v 0.000000 1.089010 -15.110196
v -3.286068 1.026914 -15.110196
v 3.295879 1.026914 -15.110196
v 4.327953 -0.000000 -15.110198
v -4.520820 -0.000000 -15.110198
v -4.337494 0.590750 -15.110196
v 4.233541 0.593468 -15.110196
v 21.880489 0.000000 8.059894
v -0.000000 0.000000 8.445466
v -1.663620 0.000000 8.115323
v 1.663620 0.000000 8.115323
v -21.880489 0.000000 8.059893
v 4.327954 0.000000 8.059894
v -4.520819 0.000000 8.059894
v -13.200657 0.000000 17.449141
v -13.202370 -0.000000 -2.966272
v -13.200654 -0.000000 -4.603190
v -13.200654 -0.000000 -1.329354
v -13.200654 -0.000000 -7.697955
v -13.200657 -0.000000 -11.112556
v -13.200657 -0.000000 -13.494529
v -13.200657 -0.000000 -15.110198
v -13.200654 0.000000 8.059894
v 13.104223 -0.000000 -11.112556
v 13.109892 -0.000000 -2.966272
v 13.104220 -0.000000 -4.603190
v 13.104220 -0.000000 -1.329354
v 13.104220 -0.000000 -7.697955
v 13.104223 0.000000 17.449141
v 13.104223 -0.000000 -13.494529
v 13.104220 -0.000000 -15.110198
v 13.104221 0.000000 8.059894
vn -0.0000 1.0000 -0.0000
vn 0.0754 0.9766 0.2016
vn -0.0743 0.9767 0.2012
vn 0.0005 0.9121 0.4101
vn 0.2903 0.8085 0.5119
vn -0.0002 0.9737 0.2277
vn 0.3059 0.9109 0.2769
vn 0.4773 0.8688 0.1318
vn -0.2861 0.9196 0.2693
vn -0.4412 0.8887 0.1243
vn -0.2558 0.9584 0.1265
vn -0.0001 1.0000 0.0001
vn -0.2082 0.9781 0.0051
vn -0.7077 0.6711 0.2209
vn -0.5884 0.8085 0.0095
vn 0.2954 0.9474 0.1234
vn -0.0045 0.9987 0.0505
vn 0.7536 0.6188 0.2218
vn 0.2283 0.9736 0.0057
vn 0.5852 0.6523 0.4817
vn -0.2687 0.8298 0.4892
vn 0.1762 0.8895 0.4216
vn -0.0100 0.9872 0.1592
vn -0.0046 0.9527 0.3038
vn -0.1628 0.9133 0.3734
vn 0.6431 0.7657 0.0137
vn -0.5287 0.7128 0.4608
vn 0.3032 0.9036 0.3028
vn -0.2439 0.9287 0.2794
vn -0.2046 0.9788 -0.0000
vn -0.7400 0.6723 0.0172
vn -0.7390 0.6737 -0.0000
vn 0.7974 0.6034 -0.0000
vn 0.7992 0.6007 0.0224
vn -0.5931 0.8051 -0.0000
vn 0.2240 0.9746 -0.0000
vn 0.6492 0.7606 -0.0000
vt 0.008200 0.564033
vt 0.198731 0.644400
vt 0.006007 0.639624
vt 0.538305 0.014812
vt 0.501359 0.214930
vt 0.502817 0.014585
vt 0.467333 0.014325
vt 0.464385 0.221975
vt 0.598295 0.015055
vt 0.538224 0.222519
vt 0.011736 0.423420
vt 0.204049 0.463898
vt 0.010930 0.459541
vt 0.988472 0.502739
vt 0.792924 0.468145
vt 0.988100 0.466618
vt 0.010051 0.495668
vt 0.535797 0.575901
vt 0.499074 0.523548
vt 0.537955 0.509066
vt 0.461477 0.575107
vt 0.460425 0.508393
vt 0.794148 0.573059
vt 0.989344 0.571085
vt 0.987801 0.430503
vt 0.208105 0.219163
vt 0.015307 0.215717
vt 0.201235 0.568746
vt 0.498638 0.589688
vt 0.544413 0.596077
vt 0.498668 0.569209
vt 0.795722 0.648901
vt 0.990514 0.646629
vt 0.792439 0.014955
vt 0.597356 0.223955
vt 0.596957 0.506500
vt 0.552661 0.469977
vt 0.596942 0.469906
vt 0.598195 0.575632
vt 0.596565 0.433344
vt 0.575308 0.608162
vt 0.601233 0.652467
vt 0.394963 0.573833
vt 0.417502 0.608551
vt 0.390855 0.650633
vt 0.398581 0.431672
vt 0.446296 0.469086
vt 0.397872 0.468194
vt 0.397169 0.504727
vt 0.403101 0.013708
vt 0.400948 0.222480
vt 0.796861 0.701845
vt 0.426947 0.654940
vt 0.497014 0.708572
vt 0.425519 0.706947
vt 0.403816 0.654128
vt 0.387495 0.704215
vt 0.568292 0.656220
vt 0.497408 0.655747
vt 0.588417 0.655985
vt 0.568576 0.708260
vt 0.196899 0.697256
vt 0.568683 0.619911
vt 0.452823 0.595126
vt 0.547128 0.616671
vt 0.497739 0.632926
vt 0.498197 0.610657
vt 0.449685 0.616026
vt 0.603811 0.706033
vt 0.424294 0.620426
vt 0.557964 0.630358
vt 0.436121 0.631723
vt 0.797533 0.737752
vt 0.424325 0.742667
vt 0.400862 0.705469
vt 0.399308 0.741155
vt 0.496679 0.744450
vt 0.591883 0.742913
vt 0.590962 0.707151
vt 0.195726 0.733143
vt 0.004516 0.692426
vt 0.385933 0.740191
vt 0.569156 0.744041
vt 0.499873 0.415795
vt 0.538231 0.430798
vt 0.210983 0.010532
vt 0.018390 0.007375
vt 0.792232 0.223524
vt 0.987336 0.222764
vt 0.461294 0.430196
vt 0.204904 0.427613
vt 0.203182 0.500177
vt 0.793158 0.504437
vt 0.792537 0.431846
vt 0.987185 0.014485
vt 0.991356 0.699491
vt 0.991841 0.735389
vt 0.604893 0.742034
vt 0.003569 0.728294
s 1
f 25/1/1 87/2/1 3/3/1
f 10/4/1 76/5/1 6/6/1
f 7/7/1 76/5/1 77/8/1
f 35/9/1 78/10/1 10/4/1
f 24/11/1 83/12/1 11/13/1
f 16/14/1 92/15/1 12/16/1
f 83/12/1 15/17/1 11/13/1
f 29/18/2 17/19/1 19/20/1
f 17/19/1 28/21/3 18/22/1
f 95/23/1 16/14/1 26/24/1
f 92/15/1 20/25/1 12/16/1
f 90/26/1 24/11/1 79/27/1
f 15/17/1 86/28/1 25/1/1
f 55/29/4 29/18/2 56/30/5
f 55/29/4 28/21/3 27/31/6
f 91/32/1 26/24/1 4/33/1
f 96/34/1 80/35/1 35/9/1
f 32/36/1 14/37/1 33/38/1
f 19/20/1 31/39/1 29/18/2
f 14/37/1 34/40/1 33/38/1
f 65/41/7 31/39/1 30/42/8
f 40/43/1 59/44/9 41/45/10
f 37/46/1 13/47/1 38/48/1
f 13/47/1 39/49/1 38/48/1
f 36/50/1 77/8/1 81/51/1
f 18/22/1 40/43/1 39/49/1
f 97/52/1 30/42/8 91/32/1
f 8/53/11 44/54/12 45/55/13
f 53/56/14 48/57/15 41/45/10
f 9/58/16 44/54/12 5/59/17
f 57/60/18 46/61/19 9/58/16
f 88/62/1 3/3/1 87/2/1
f 64/63/20 30/42/8 57/60/18
f 54/64/21 59/44/9 28/21/3
f 49/65/22 62/66/23 50/67/24
f 62/66/23 51/68/25 50/67/24
f 50/67/24 56/30/5 49/65/22
f 50/67/24 54/64/21 55/29/4
f 45/55/13 53/56/14 8/53/11
f 47/69/26 57/60/18 30/42/8
f 9/58/16 64/63/20 57/60/18
f 51/68/25 60/70/27 54/64/21
f 56/30/5 65/41/7 64/63/20
f 41/45/10 60/70/27 53/56/14
f 63/71/28 5/59/17 62/66/23
f 5/59/17 61/72/29 62/66/23
f 49/65/22 64/63/20 63/71/28
f 8/53/11 60/70/27 61/72/29
f 98/73/1 47/69/26 97/52/1
f 44/54/12 69/74/30 45/55/13
f 52/75/31 69/74/30 73/76/32
f 46/61/19 68/77/1 44/54/12
f 47/69/26 74/78/33 58/79/34
f 89/80/1 42/81/1 88/62/1
f 48/57/15 73/76/32 72/82/35
f 46/61/19 74/78/33 70/83/36
f 78/10/1 21/84/1 76/5/1
f 21/84/1 77/8/1 76/5/1
f 80/35/1 23/85/1 78/10/1
f 82/86/1 79/27/1 1/87/1
f 20/25/1 99/88/1 75/89/1
f 22/90/1 81/51/1 77/8/1
f 41/45/10 86/28/1 40/43/1
f 38/48/1 85/91/1 37/46/1
f 38/48/1 84/92/1 83/12/1
f 37/46/1 90/26/1 81/51/1
f 40/43/1 84/92/1 39/49/1
f 48/57/15 87/2/1 41/45/10
f 72/82/35 88/62/1 48/57/15
f 36/50/1 90/26/1 82/86/1
f 33/38/1 93/93/1 32/36/1
f 32/36/1 95/23/1 31/39/1
f 33/38/1 94/94/1 92/15/1
f 30/42/8 95/23/1 91/32/1
f 75/89/1 96/34/1 2/95/1
f 43/96/1 91/32/1 4/33/1
f 67/97/1 97/52/1 43/96/1
f 80/35/1 94/94/1 34/40/1
f 25/1/1 86/28/1 87/2/1
f 10/4/1 78/10/1 76/5/1
f 7/7/1 6/6/1 76/5/1
f 35/9/1 80/35/1 78/10/1
f 24/11/1 85/91/1 83/12/1
f 16/14/1 93/93/1 92/15/1
f 83/12/1 84/92/1 15/17/1
f 29/18/2 27/31/6 17/19/1
f 17/19/1 27/31/6 28/21/3
f 95/23/1 93/93/1 16/14/1
f 92/15/1 94/94/1 20/25/1
f 90/26/1 85/91/1 24/11/1
f 15/17/1 84/92/1 86/28/1
f 55/29/4 27/31/6 29/18/2
f 55/29/4 54/64/21 28/21/3
f 91/32/1 95/23/1 26/24/1
f 96/34/1 99/88/1 80/35/1
f 32/36/1 19/20/1 14/37/1
f 19/20/1 32/36/1 31/39/1
f 14/37/1 23/85/1 34/40/1
f 65/41/7 29/18/2 31/39/1
f 40/43/1 28/21/3 59/44/9
f 37/46/1 22/90/1 13/47/1
f 13/47/1 18/22/1 39/49/1
f 36/50/1 7/7/1 77/8/1
f 18/22/1 28/21/3 40/43/1
f 97/52/1 47/69/26 30/42/8
f 8/53/11 5/59/17 44/54/12
f 53/56/14 52/75/31 48/57/15
f 9/58/16 46/61/19 44/54/12
f 57/60/18 58/79/34 46/61/19
f 88/62/1 42/81/1 3/3/1
f 64/63/20 65/41/7 30/42/8
f 54/64/21 60/70/27 59/44/9
f 49/65/22 63/71/28 62/66/23
f 62/66/23 61/72/29 51/68/25
f 50/67/24 55/29/4 56/30/5
f 50/67/24 51/68/25 54/64/21
f 45/55/13 52/75/31 53/56/14
f 47/69/26 58/79/34 57/60/18
f 9/58/16 63/71/28 64/63/20
f 51/68/25 61/72/29 60/70/27
f 56/30/5 29/18/2 65/41/7
f 41/45/10 59/44/9 60/70/27
f 63/71/28 9/58/16 5/59/17
f 5/59/17 8/53/11 61/72/29
f 49/65/22 56/30/5 64/63/20
f 8/53/11 53/56/14 60/70/27
f 98/73/1 71/98/37 47/69/26
f 44/54/12 68/77/1 69/74/30
f 52/75/31 45/55/13 69/74/30
f 46/61/19 70/83/36 68/77/1
f 47/69/26 71/98/37 74/78/33
f 89/80/1 66/99/1 42/81/1
f 48/57/15 52/75/31 73/76/32
f 46/61/19 58/79/34 74/78/33
f 78/10/1 23/85/1 21/84/1
f 21/84/1 22/90/1 77/8/1
f 80/35/1 34/40/1 23/85/1
f 82/86/1 90/26/1 79/27/1
f 20/25/1 94/94/1 99/88/1
f 22/90/1 37/46/1 81/51/1
f 41/45/10 87/2/1 86/28/1
f 38/48/1 83/12/1 85/91/1
f 38/48/1 39/49/1 84/92/1
f 37/46/1 85/91/1 90/26/1
f 40/43/1 86/28/1 84/92/1
f 48/57/15 88/62/1 87/2/1
f 72/82/35 89/80/1 88/62/1
f 36/50/1 81/51/1 90/26/1
f 33/38/1 92/15/1 93/93/1
f 32/36/1 93/93/1 95/23/1
f 33/38/1 34/40/1 94/94/1
f 30/42/8 31/39/1 95/23/1
f 75/89/1 99/88/1 96/34/1
f 43/96/1 97/52/1 91/32/1
f 67/97/1 98/73/1 97/52/1
f 80/35/1 99/88/1 94/94/1
