# 3ds Max Wavefront OBJ Exporter v0.99 - (c)2007 guruware
# File Created: 08.06.2025 21:55:19

mtllib land.mtl

#
# object Plane001
#

v  -582.5982 0.0000 582.5982
v  -485.4985 0.0000 582.5982
v  -485.4985 0.0000 485.4985
v  -582.5982 0.0000 485.4985
v  -388.3988 0.0000 582.5982
v  -388.3988 0.0000 485.4985
v  -291.2991 0.0000 582.5982
v  -291.2991 0.0000 485.4985
v  -194.1994 0.0000 582.5982
v  -194.1994 0.0000 485.4985
v  -97.0997 0.0000 582.5982
v  -97.0997 0.0000 485.4985
v  -0.0000 0.0000 582.5982
v  -0.0000 0.0000 485.4985
v  97.0997 0.0000 582.5982
v  97.0997 0.0000 485.4985
v  194.1994 0.0000 582.5982
v  194.1994 0.0000 485.4985
v  291.2991 0.0000 582.5982
v  291.2991 0.0000 485.4985
v  388.3988 0.0000 582.5982
v  388.3988 0.0000 485.4985
v  485.4985 0.0000 582.5982
v  485.4985 0.0000 485.4985
v  582.5981 0.0000 582.5982
v  582.5981 0.0000 485.4985
v  -485.4985 0.0000 388.3988
v  -582.5982 0.0000 388.3988
v  -388.3988 0.0000 388.3988
v  -291.2991 0.0000 388.3988
v  -194.1994 0.0000 388.3988
v  -97.0997 0.0000 388.3988
v  -0.0000 0.0000 388.3988
v  97.0997 0.0000 388.3988
v  194.1994 0.0000 388.3988
v  291.2991 0.0000 388.3988
v  388.3988 0.0000 388.3988
v  485.4985 0.0000 388.3988
v  582.5981 0.0000 388.3988
v  -485.4985 0.0000 291.2991
v  -582.5982 0.0000 291.2991
v  -388.3988 6.4427 291.2991
v  -291.2991 6.4427 291.2991
v  -194.1994 0.0000 291.2991
v  -97.0997 -7.4426 291.2991
v  -0.0000 -7.4426 291.2991
v  97.0997 0.0000 291.2991
v  194.1994 0.0000 291.2991
v  291.2991 0.0000 291.2991
v  388.3988 0.0000 291.2991
v  485.4985 0.0000 291.2991
v  582.5981 0.0000 291.2991
v  -485.4985 0.0000 194.1994
v  -582.5982 0.0000 194.1994
v  -388.3988 6.4427 194.1994
v  -291.2991 6.4427 194.1994
v  -194.1994 0.0000 194.1994
v  -97.0997 -7.4426 194.1994
v  -0.0000 -7.4426 194.1994
v  97.0997 0.0000 194.1994
v  194.1994 0.0000 194.1994
v  291.2991 3.8088 194.1994
v  388.3988 3.8088 194.1994
v  485.4985 0.0000 194.1994
v  582.5981 0.0000 194.1994
v  -485.4985 0.0000 97.0997
v  -582.5982 0.0000 97.0997
v  -388.3988 0.0000 97.0997
v  -291.2991 -4.7867 97.0997
v  -194.1994 -4.7867 97.0997
v  -97.0997 0.0000 97.0997
v  -0.0000 0.0000 97.0997
v  97.0997 0.0000 97.0997
v  194.1994 0.0000 97.0997
v  291.2991 2.7217 97.0997
v  388.3988 2.7217 97.0997
v  485.4985 0.0000 97.0997
v  582.5981 0.0000 97.0997
v  -485.4985 0.0000 0.0000
v  -582.5982 0.0000 0.0000
v  -388.3988 0.0000 0.0000
v  -291.2991 -4.7867 0.0000
v  -194.1994 -4.7867 0.0000
v  -97.0997 0.0000 0.0000
v  -0.0000 0.0000 0.0000
v  97.0997 0.0000 0.0000
v  194.1994 0.0000 0.0000
v  291.2991 -1.0871 0.0000
v  388.3988 4.3796 0.0000
v  485.4985 5.4666 0.0000
v  582.5981 0.0000 0.0000
v  -485.4985 0.0000 -97.0997
v  -582.5982 0.0000 -97.0997
v  -388.3988 -1.5429 -97.0997
v  -291.2991 -1.5429 -97.0997
v  -194.1994 -7.4197 -97.0997
v  -97.0997 -7.4197 -97.0997
v  -0.0000 0.0000 -97.0997
v  97.0997 0.0000 -97.0997
v  194.1994 0.0000 -97.0997
v  291.2991 3.4624 -97.0997
v  388.3988 8.9291 -97.0997
v  485.4985 5.4666 -97.0997
v  582.5981 0.0000 -97.0997
v  -485.4985 0.0000 -194.1994
v  -582.5982 0.0000 -194.1994
v  -388.3988 -1.5429 -194.1994
v  -291.2991 3.7849 -194.1994
v  -194.1994 -2.0920 -194.1994
v  -97.0997 -7.4197 -194.1994
v  -0.0000 0.0000 -194.1994
v  97.0997 0.0000 -194.1994
v  194.1994 1.6749 -194.1994
v  291.2991 5.1374 -194.1994
v  388.3988 3.4624 -194.1994
v  485.4985 0.0000 -194.1994
v  582.5981 0.0000 -194.1994
v  -485.4985 0.0000 -291.2991
v  -582.5982 0.0000 -291.2991
v  -388.3988 -3.0287 -291.2991
v  -291.2991 2.2991 -291.2991
v  -194.1994 5.3277 -291.2991
v  -97.0997 0.0000 -291.2991
v  -0.0000 0.0000 -291.2991
v  97.0997 0.0000 -291.2991
v  194.1994 1.6749 -291.2991
v  291.2991 6.9897 -291.2991
v  388.3988 5.3147 -291.2991
v  485.4985 0.0000 -291.2991
v  582.5981 0.0000 -291.2991
v  -485.4985 0.0000 -388.3988
v  -582.5982 0.0000 -388.3988
v  -388.3988 -3.0287 -388.3988
v  -291.2991 1.0694 -388.3988
v  -194.1994 4.0980 -388.3988
v  -97.0997 0.0000 -388.3988
v  -0.0000 0.0000 -388.3988
v  97.0997 0.0000 -388.3988
v  194.1994 0.0000 -388.3988
v  291.2991 5.3147 -388.3988
v  388.3988 5.3147 -388.3988
v  485.4985 0.0000 -388.3988
v  582.5981 0.0000 -388.3988
v  -485.4985 0.0000 -485.4985
v  -582.5982 0.0000 -485.4985
v  -388.3988 0.0000 -485.4985
v  -291.2991 4.0980 -485.4985
v  -194.1994 4.0980 -485.4985
v  -97.0997 0.0000 -485.4985
v  -0.0000 0.0000 -485.4985
v  97.0997 0.0000 -485.4985
v  194.1994 0.0000 -485.4985
v  291.2991 0.0000 -485.4985
v  388.3988 0.0000 -485.4985
v  485.4985 0.0000 -485.4985
v  582.5981 0.0000 -485.4985
v  -485.4985 0.0000 -582.5981
v  -582.5982 0.0000 -582.5981
v  -388.3988 0.0000 -582.5981
v  -291.2991 0.0000 -582.5981
v  -194.1994 0.0000 -582.5981
v  -97.0997 0.0000 -582.5981
v  -0.0000 0.0000 -582.5981
v  97.0997 0.0000 -582.5981
v  194.1994 0.0000 -582.5981
v  291.2991 0.0000 -582.5981
v  388.3988 0.0000 -582.5981
v  485.4985 0.0000 -582.5981
v  582.5981 0.0000 -582.5981
# 169 vertices

vn 0.0000 1.0000 -0.0000
vn -0.0083 0.9999 0.0083
vn -0.0083 0.9997 0.0248
vn 0.0083 0.9997 0.0248
vn 0.0179 0.9998 -0.0013
vn 0.0096 0.9995 -0.0287
vn -0.0096 0.9995 -0.0287
vn -0.0096 0.9999 -0.0096
vn -0.0248 0.9997 0.0083
vn -0.0248 0.9994 0.0248
vn 0.0248 0.9994 0.0248
vn 0.0535 0.9986 -0.0013
vn 0.0287 0.9992 -0.0287
vn -0.0287 0.9992 -0.0287
vn -0.0287 0.9995 -0.0096
vn -0.0049 1.0000 0.0049
vn -0.0049 0.9999 0.0147
vn 0.0049 0.9999 0.0147
vn 0.0049 1.0000 0.0049
vn -0.0248 0.9997 -0.0083
vn -0.0187 0.9993 -0.0310
vn 0.0310 0.9986 -0.0432
vn 0.0474 0.9987 -0.0172
vn 0.0226 0.9995 0.0226
vn -0.0287 0.9992 0.0287
vn -0.0287 0.9995 0.0096
vn -0.0133 0.9999 0.0035
vn -0.0133 0.9999 0.0105
vn 0.0133 0.9999 0.0105
vn 0.0133 0.9999 0.0035
vn -0.0083 0.9999 -0.0083
vn 0.0102 0.9995 -0.0310
vn 0.0267 0.9987 -0.0432
vn -0.0006 0.9999 -0.0172
vn -0.0089 0.9997 0.0225
vn -0.0096 0.9995 0.0287
vn -0.0096 0.9999 0.0096
vn -0.0105 0.9999 -0.0063
vn -0.0175 0.9998 -0.0119
vn 0.0035 1.0000 0.0022
vn 0.0175 0.9997 0.0148
vn 0.0141 0.9998 0.0141
vn 0.0020 1.0000 -0.0020
vn 0.0205 0.9998 0.0002
vn 0.0260 0.9997 0.0030
vn -0.0109 0.9999 -0.0122
vn -0.0280 0.9994 -0.0225
vn -0.0095 0.9999 -0.0095
vn -0.0052 1.0000 0.0010
vn -0.0262 0.9996 0.0099
vn -0.0159 0.9996 0.0240
vn 0.0263 0.9994 0.0221
vn 0.0422 0.9990 0.0141
vn 0.0060 1.0000 -0.0020
vn 0.0053 1.0000 0.0071
vn 0.0220 0.9995 0.0235
vn 0.0234 0.9997 0.0084
vn -0.0279 0.9995 -0.0156
vn -0.0286 0.9995 -0.0095
vn -0.0022 1.0000 0.0022
vn -0.0141 0.9998 0.0123
vn -0.0309 0.9994 0.0170
vn -0.0070 1.0000 -0.0014
vn 0.0331 0.9993 -0.0152
vn 0.0422 0.9990 -0.0141
vn 0.0099 0.9999 -0.0019
vn -0.0107 0.9999 0.0011
vn -0.0018 0.9997 0.0244
vn 0.0393 0.9981 0.0472
vn -0.0081 0.9993 0.0354
vn -0.0286 0.9995 0.0095
vn -0.0065 1.0000 0.0022
vn -0.0267 0.9996 0.0088
vn -0.0208 0.9998 0.0066
vn 0.0196 0.9997 -0.0118
vn 0.0272 0.9995 -0.0187
vn 0.0141 0.9998 -0.0141
vn 0.0137 0.9999 -0.0019
vn -0.0121 0.9999 -0.0073
vn -0.0300 0.9996 -0.0009
vn 0.0217 0.9995 0.0219
vn 0.0163 0.9995 0.0270
vn -0.0095 0.9999 0.0095
vn -0.0065 1.0000 -0.0022
vn -0.0314 0.9995 -0.0041
vn -0.0185 0.9998 0.0007
vn 0.0314 0.9995 0.0050
vn 0.0250 0.9997 0.0024
vn 0.0117 0.9999 0.0039
vn -0.0110 0.9999 0.0101
vn -0.0344 0.9994 0.0069
vn 0.0110 0.9999 -0.0008
vn 0.0227 0.9997 -0.0016
vn -0.0022 1.0000 -0.0022
vn -0.0227 0.9997 -0.0133
vn -0.0184 0.9995 -0.0270
vn 0.0227 0.9995 -0.0227
vn 0.0205 0.9998 -0.0068
vn 0.0039 1.0000 0.0039
vn -0.0119 0.9999 0.0064
vn -0.0197 0.9998 -0.0041
vn 0.0119 0.9999 -0.0119
vn 0.0158 0.9999 -0.0053
vn -0.0068 1.0000 -0.0068
vn -0.0068 0.9998 -0.0205
vn 0.0068 0.9998 -0.0205
vn 0.0068 1.0000 -0.0068
vn -0.0105 0.9999 -0.0105
vn -0.0105 0.9994 -0.0316
vn 0.0105 0.9994 -0.0316
vn 0.0105 0.9999 -0.0105
# 111 vertex normals

vt 0.0000 0.0000 0.0000
vt 0.0833 0.0000 0.0000
vt 0.0833 0.0833 0.0000
vt 0.0000 0.0833 0.0000
vt 0.1667 0.0000 0.0000
vt 0.1667 0.0833 0.0000
vt 0.2500 0.0000 0.0000
vt 0.2500 0.0833 0.0000
vt 0.3333 0.0000 0.0000
vt 0.3333 0.0833 0.0000
vt 0.4167 0.0000 0.0000
vt 0.4167 0.0833 0.0000
vt 0.5000 0.0000 0.0000
vt 0.5000 0.0833 0.0000
vt 0.5833 0.0000 0.0000
vt 0.5833 0.0833 0.0000
vt 0.6667 0.0000 0.0000
vt 0.6667 0.0833 0.0000
vt 0.7500 0.0000 0.0000
vt 0.7500 0.0833 0.0000
vt 0.8333 0.0000 0.0000
vt 0.8333 0.0833 0.0000
vt 0.9167 0.0000 0.0000
vt 0.9167 0.0833 0.0000
vt 1.0000 0.0000 0.0000
vt 1.0000 0.0833 0.0000
vt 0.0833 0.1667 0.0000
vt 0.0000 0.1667 0.0000
vt 0.1667 0.1667 0.0000
vt 0.2500 0.1667 0.0000
vt 0.3333 0.1667 0.0000
vt 0.4167 0.1667 0.0000
vt 0.5000 0.1667 0.0000
vt 0.5833 0.1667 0.0000
vt 0.6667 0.1667 0.0000
vt 0.7500 0.1667 0.0000
vt 0.8333 0.1667 0.0000
vt 0.9167 0.1667 0.0000
vt 1.0000 0.1667 0.0000
vt 0.0833 0.2500 0.0000
vt 0.0000 0.2500 0.0000
vt 0.1667 0.2500 0.0000
vt 0.2500 0.2500 0.0000
vt 0.3333 0.2500 0.0000
vt 0.4167 0.2500 0.0000
vt 0.5000 0.2500 0.0000
vt 0.5833 0.2500 0.0000
vt 0.6667 0.2500 0.0000
vt 0.7500 0.2500 0.0000
vt 0.8333 0.2500 0.0000
vt 0.9167 0.2500 0.0000
vt 1.0000 0.2500 0.0000
vt 0.0833 0.3333 0.0000
vt 0.0000 0.3333 0.0000
vt 0.1667 0.3333 0.0000
vt 0.2500 0.3333 0.0000
vt 0.3333 0.3333 0.0000
vt 0.4167 0.3333 0.0000
vt 0.5000 0.3333 0.0000
vt 0.5833 0.3333 0.0000
vt 0.6667 0.3333 0.0000
vt 0.7500 0.3333 0.0000
vt 0.8333 0.3333 0.0000
vt 0.9167 0.3333 0.0000
vt 1.0000 0.3333 0.0000
vt 0.0833 0.4167 0.0000
vt 0.0000 0.4167 0.0000
vt 0.1667 0.4167 0.0000
vt 0.2500 0.4167 0.0000
vt 0.3333 0.4167 0.0000
vt 0.4167 0.4167 0.0000
vt 0.5000 0.4167 0.0000
vt 0.5833 0.4167 0.0000
vt 0.6667 0.4167 0.0000
vt 0.7500 0.4167 0.0000
vt 0.8333 0.4167 0.0000
vt 0.9167 0.4167 0.0000
vt 1.0000 0.4167 0.0000
vt 0.0833 0.5000 0.0000
vt 0.0000 0.5000 0.0000
vt 0.1667 0.5000 0.0000
vt 0.2500 0.5000 0.0000
vt 0.3333 0.5000 0.0000
vt 0.4167 0.5000 0.0000
vt 0.5000 0.5000 0.0000
vt 0.5833 0.5000 0.0000
vt 0.6667 0.5000 0.0000
vt 0.7500 0.5000 0.0000
vt 0.8333 0.5000 0.0000
vt 0.9167 0.5000 0.0000
vt 1.0000 0.5000 0.0000
vt 0.0833 0.5833 0.0000
vt 0.0000 0.5833 0.0000
vt 0.1667 0.5833 0.0000
vt 0.2500 0.5833 0.0000
vt 0.3333 0.5833 0.0000
vt 0.4167 0.5833 0.0000
vt 0.5000 0.5833 0.0000
vt 0.5833 0.5833 0.0000
vt 0.6667 0.5833 0.0000
vt 0.7500 0.5833 0.0000
vt 0.8333 0.5833 0.0000
vt 0.9167 0.5833 0.0000
vt 1.0000 0.5833 0.0000
vt 0.0833 0.6667 0.0000
vt 0.0000 0.6667 0.0000
vt 0.1667 0.6667 0.0000
vt 0.2500 0.6667 0.0000
vt 0.3333 0.6667 0.0000
vt 0.4167 0.6667 0.0000
vt 0.5000 0.6667 0.0000
vt 0.5833 0.6667 0.0000
vt 0.6667 0.6667 0.0000
vt 0.7500 0.6667 0.0000
vt 0.8333 0.6667 0.0000
vt 0.9167 0.6667 0.0000
vt 1.0000 0.6667 0.0000
vt 0.0833 0.7500 0.0000
vt 0.0000 0.7500 0.0000
vt 0.1667 0.7500 0.0000
vt 0.2500 0.7500 0.0000
vt 0.3333 0.7500 0.0000
vt 0.4167 0.7500 0.0000
vt 0.5000 0.7500 0.0000
vt 0.5833 0.7500 0.0000
vt 0.6667 0.7500 0.0000
vt 0.7500 0.7500 0.0000
vt 0.8333 0.7500 0.0000
vt 0.9167 0.7500 0.0000
vt 1.0000 0.7500 0.0000
vt 0.0833 0.8333 0.0000
vt 0.0000 0.8333 0.0000
vt 0.1667 0.8333 0.0000
vt 0.2500 0.8333 0.0000
vt 0.3333 0.8333 0.0000
vt 0.4167 0.8333 0.0000
vt 0.5000 0.8333 0.0000
vt 0.5833 0.8333 0.0000
vt 0.6667 0.8333 0.0000
vt 0.7500 0.8333 0.0000
vt 0.8333 0.8333 0.0000
vt 0.9167 0.8333 0.0000
vt 1.0000 0.8333 0.0000
vt 0.0833 0.9167 0.0000
vt 0.0000 0.9167 0.0000
vt 0.1667 0.9167 0.0000
vt 0.2500 0.9167 0.0000
vt 0.3333 0.9167 0.0000
vt 0.4167 0.9167 0.0000
vt 0.5000 0.9167 0.0000
vt 0.5833 0.9167 0.0000
vt 0.6667 0.9167 0.0000
vt 0.7500 0.9167 0.0000
vt 0.8333 0.9167 0.0000
vt 0.9167 0.9167 0.0000
vt 1.0000 0.9167 0.0000
vt 0.0833 1.0000 0.0000
vt 0.0000 1.0000 0.0000
vt 0.1667 1.0000 0.0000
vt 0.2500 1.0000 0.0000
vt 0.3333 1.0000 0.0000
vt 0.4167 1.0000 0.0000
vt 0.5000 1.0000 0.0000
vt 0.5833 1.0000 0.0000
vt 0.6667 1.0000 0.0000
vt 0.7500 1.0000 0.0000
vt 0.8333 1.0000 0.0000
vt 0.9167 1.0000 0.0000
vt 1.0000 1.0000 0.0000
# 169 texture coords

o Plane001
g Plane001
usemtl wire_135059008
s off
f 1/1/1 2/2/1 3/3/1 
f 3/3/1 4/4/1 1/1/1 
f 2/2/1 5/5/1 6/6/1 
f 6/6/1 3/3/1 2/2/1 
f 5/5/1 7/7/1 8/8/1 
f 8/8/1 6/6/1 5/5/1 
f 7/7/1 9/9/1 10/10/1 
f 10/10/1 8/8/1 7/7/1 
f 9/9/1 11/11/1 12/12/1 
f 12/12/1 10/10/1 9/9/1 
f 11/11/1 13/13/1 14/14/1 
f 14/14/1 12/12/1 11/11/1 
f 13/13/1 15/15/1 16/16/1 
f 16/16/1 14/14/1 13/13/1 
f 15/15/1 17/17/1 18/18/1 
f 18/18/1 16/16/1 15/15/1 
f 17/17/1 19/19/1 20/20/1 
f 20/20/1 18/18/1 17/17/1 
f 19/19/1 21/21/1 22/22/1 
f 22/22/1 20/20/1 19/19/1 
f 21/21/1 23/23/1 24/24/1 
f 24/24/1 22/22/1 21/21/1 
f 23/23/1 25/25/1 26/26/1 
f 26/26/1 24/24/1 23/23/1 
f 4/4/1 3/3/1 27/27/2 
f 27/27/2 28/28/1 4/4/1 
f 3/3/1 6/6/1 29/29/3 
f 29/29/3 27/27/2 3/3/1 
f 6/6/1 8/8/1 30/30/4 
f 30/30/4 29/29/3 6/6/1 
f 8/8/1 10/10/1 31/31/5 
f 31/31/5 30/30/4 8/8/1 
f 10/10/1 12/12/1 32/32/6 
f 32/32/6 31/31/5 10/10/1 
f 12/12/1 14/14/1 33/33/7 
f 33/33/7 32/32/6 12/12/1 
f 14/14/1 16/16/1 34/34/8 
f 34/34/8 33/33/7 14/14/1 
f 16/16/1 18/18/1 35/35/1 
f 35/35/1 34/34/8 16/16/1 
f 18/18/1 20/20/1 36/36/1 
f 36/36/1 35/35/1 18/18/1 
f 20/20/1 22/22/1 37/37/1 
f 37/37/1 36/36/1 20/20/1 
f 22/22/1 24/24/1 38/38/1 
f 38/38/1 37/37/1 22/22/1 
f 24/24/1 26/26/1 39/39/1 
f 39/39/1 38/38/1 24/24/1 
f 28/28/1 27/27/2 40/40/9 
f 40/40/9 41/41/1 28/28/1 
f 27/27/2 29/29/3 42/42/10 
f 42/42/10 40/40/9 27/27/2 
f 29/29/3 30/30/4 43/43/11 
f 43/43/11 42/42/10 29/29/3 
f 30/30/4 31/31/5 44/44/12 
f 44/44/12 43/43/11 30/30/4 
f 31/31/5 32/32/6 45/45/13 
f 45/45/13 44/44/12 31/31/5 
f 32/32/6 33/33/7 46/46/14 
f 46/46/14 45/45/13 32/32/6 
f 33/33/7 34/34/8 47/47/15 
f 47/47/15 46/46/14 33/33/7 
f 34/34/8 35/35/1 48/48/16 
f 48/48/16 47/47/15 34/34/8 
f 35/35/1 36/36/1 49/49/17 
f 49/49/17 48/48/16 35/35/1 
f 36/36/1 37/37/1 50/50/18 
f 50/50/18 49/49/17 36/36/1 
f 37/37/1 38/38/1 51/51/19 
f 51/51/19 50/50/18 37/37/1 
f 38/38/1 39/39/1 52/52/1 
f 52/52/1 51/51/19 38/38/1 
f 41/41/1 40/40/9 53/53/20 
f 53/53/20 54/54/1 41/41/1 
f 40/40/9 42/42/10 55/55/21 
f 55/55/21 53/53/20 40/40/9 
f 42/42/10 43/43/11 56/56/22 
f 56/56/22 55/55/21 42/42/10 
f 43/43/11 44/44/12 57/57/23 
f 57/57/23 56/56/22 43/43/11 
f 44/44/12 45/45/13 58/58/24 
f 58/58/24 57/57/23 44/44/12 
f 45/45/13 46/46/14 59/59/25 
f 59/59/25 58/58/24 45/45/13 
f 46/46/14 47/47/15 60/60/26 
f 60/60/26 59/59/25 46/46/14 
f 47/47/15 48/48/16 61/61/27 
f 61/61/27 60/60/26 47/47/15 
f 48/48/16 49/49/17 62/62/28 
f 62/62/28 61/61/27 48/48/16 
f 49/49/17 50/50/18 63/63/29 
f 63/63/29 62/62/28 49/49/17 
f 50/50/18 51/51/19 64/64/30 
f 64/64/30 63/63/29 50/50/18 
f 51/51/19 52/52/1 65/65/1 
f 65/65/1 64/64/30 51/51/19 
f 54/54/1 53/53/20 66/66/31 
f 66/66/31 67/67/1 54/54/1 
f 53/53/20 55/55/21 68/68/32 
f 68/68/32 66/66/31 53/53/20 
f 55/55/21 56/56/22 69/69/33 
f 69/69/33 68/68/32 55/55/21 
f 56/56/22 57/57/23 70/70/34 
f 70/70/34 69/69/33 56/56/22 
f 57/57/23 58/58/24 71/71/35 
f 71/71/35 70/70/34 57/57/23 
f 58/58/24 59/59/25 72/72/36 
f 72/72/36 71/71/35 58/58/24 
f 59/59/25 60/60/26 73/73/37 
f 73/73/37 72/72/36 59/59/25 
f 60/60/26 61/61/27 74/74/38 
f 74/74/38 73/73/37 60/60/26 
f 61/61/27 62/62/28 75/75/39 
f 75/75/39 74/74/38 61/61/27 
f 62/62/28 63/63/29 76/76/40 
f 76/76/40 75/75/39 62/62/28 
f 63/63/29 64/64/30 77/77/41 
f 77/77/41 76/76/40 63/63/29 
f 64/64/30 65/65/1 78/78/42 
f 78/78/42 77/77/41 64/64/30 
f 67/67/1 66/66/31 79/79/43 
f 79/79/43 80/80/1 67/67/1 
f 66/66/31 68/68/32 81/81/44 
f 81/81/44 79/79/43 66/66/31 
f 68/68/32 69/69/33 82/82/45 
f 82/82/45 81/81/44 68/68/32 
f 69/69/33 70/70/34 83/83/46 
f 83/83/46 82/82/45 69/69/33 
f 70/70/34 71/71/35 84/84/47 
f 84/84/47 83/83/46 70/70/34 
f 71/71/35 72/72/36 85/85/48 
f 85/85/48 84/84/47 71/71/35 
f 72/72/36 73/73/37 86/86/1 
f 86/86/1 85/85/48 72/72/36 
f 73/73/37 74/74/38 87/87/49 
f 87/87/49 86/86/1 73/73/37 
f 74/74/38 75/75/39 88/88/50 
f 88/88/50 87/87/49 74/74/38 
f 75/75/39 76/76/40 89/89/51 
f 89/89/51 88/88/50 75/75/39 
f 76/76/40 77/77/41 90/90/52 
f 90/90/52 89/89/51 76/76/40 
f 77/77/41 78/78/42 91/91/53 
f 91/91/53 90/90/52 77/77/41 
f 80/80/1 79/79/43 92/92/54 
f 92/92/54 93/93/1 80/80/1 
f 79/79/43 81/81/44 94/94/55 
f 94/94/55 92/92/54 79/79/43 
f 81/81/44 82/82/45 95/95/56 
f 95/95/56 94/94/55 81/81/44 
f 82/82/45 83/83/46 96/96/57 
f 96/96/57 95/95/56 82/82/45 
f 83/83/46 84/84/47 97/97/58 
f 97/97/58 96/96/57 83/83/46 
f 84/84/47 85/85/48 98/98/59 
f 98/98/59 97/97/58 84/84/47 
f 85/85/48 86/86/1 99/99/60 
f 99/99/60 98/98/59 85/85/48 
f 86/86/1 87/87/49 100/100/61 
f 100/100/61 99/99/60 86/86/1 
f 87/87/49 88/88/50 101/101/62 
f 101/101/62 100/100/61 87/87/49 
f 88/88/50 89/89/51 102/102/63 
f 102/102/63 101/101/62 88/88/50 
f 89/89/51 90/90/52 103/103/64 
f 103/103/64 102/102/63 89/89/51 
f 90/90/52 91/91/53 104/104/65 
f 104/104/65 103/103/64 90/90/52 
f 93/93/1 92/92/54 105/105/66 
f 105/105/66 106/106/1 93/93/1 
f 92/92/54 94/94/55 107/107/67 
f 107/107/67 105/105/66 92/92/54 
f 94/94/55 95/95/56 108/108/68 
f 108/108/68 107/107/67 94/94/55 
f 95/95/56 96/96/57 109/109/69 
f 109/109/69 108/108/68 95/95/56 
f 96/96/57 97/97/58 110/110/70 
f 110/110/70 109/109/69 96/96/57 
f 97/97/58 98/98/59 111/111/71 
f 111/111/71 110/110/70 97/97/58 
f 98/98/59 99/99/60 112/112/72 
f 112/112/72 111/111/71 98/98/59 
f 99/99/60 100/100/61 113/113/73 
f 113/113/73 112/112/72 99/99/60 
f 100/100/61 101/101/62 114/114/74 
f 114/114/74 113/113/73 100/100/61 
f 101/101/62 102/102/63 115/115/75 
f 115/115/75 114/114/74 101/101/62 
f 102/102/63 103/103/64 116/116/76 
f 116/116/76 115/115/75 102/102/63 
f 103/103/64 104/104/65 117/117/77 
f 117/117/77 116/116/76 103/103/64 
f 106/106/1 105/105/66 118/118/78 
f 118/118/78 119/119/1 106/106/1 
f 105/105/66 107/107/67 120/120/79 
f 120/120/79 118/118/78 105/105/66 
f 107/107/67 108/108/68 121/121/80 
f 121/121/80 120/120/79 107/107/67 
f 108/108/68 109/109/69 122/122/81 
f 122/122/81 121/121/80 108/108/68 
f 109/109/69 110/110/70 123/123/82 
f 123/123/82 122/122/81 109/109/69 
f 110/110/70 111/111/71 124/124/83 
f 124/124/83 123/123/82 110/110/70 
f 111/111/71 112/112/72 125/125/84 
f 125/125/84 124/124/83 111/111/71 
f 112/112/72 113/113/73 126/126/85 
f 126/126/85 125/125/84 112/112/72 
f 113/113/73 114/114/74 127/127/86 
f 127/127/86 126/126/85 113/113/73 
f 114/114/74 115/115/75 128/128/87 
f 128/128/87 127/127/86 114/114/74 
f 115/115/75 116/116/76 129/129/88 
f 129/129/88 128/128/87 115/115/75 
f 116/116/76 117/117/77 130/130/1 
f 130/130/1 129/129/88 116/116/76 
f 119/119/1 118/118/78 131/131/89 
f 131/131/89 132/132/1 119/119/1 
f 118/118/78 120/120/79 133/133/90 
f 133/133/90 131/131/89 118/118/78 
f 120/120/79 121/121/80 134/134/91 
f 134/134/91 133/133/90 120/120/79 
f 121/121/80 122/122/81 135/135/92 
f 135/135/92 134/134/91 121/121/80 
f 122/122/81 123/123/82 136/136/93 
f 136/136/93 135/135/92 122/122/81 
f 123/123/82 124/124/83 137/137/1 
f 137/137/1 136/136/93 123/123/82 
f 124/124/83 125/125/84 138/138/94 
f 138/138/94 137/137/1 124/124/83 
f 125/125/84 126/126/85 139/139/95 
f 139/139/95 138/138/94 125/125/84 
f 126/126/85 127/127/86 140/140/96 
f 140/140/96 139/139/95 126/126/85 
f 127/127/86 128/128/87 141/141/97 
f 141/141/97 140/140/96 127/127/86 
f 128/128/87 129/129/88 142/142/98 
f 142/142/98 141/141/97 128/128/87 
f 129/129/88 130/130/1 143/143/1 
f 143/143/1 142/142/98 129/129/88 
f 132/132/1 131/131/89 144/144/99 
f 144/144/99 145/145/1 132/132/1 
f 131/131/89 133/133/90 146/146/100 
f 146/146/100 144/144/99 131/131/89 
f 133/133/90 134/134/91 147/147/101 
f 147/147/101 146/146/100 133/133/90 
f 134/134/91 135/135/92 148/148/102 
f 148/148/102 147/147/101 134/134/91 
f 135/135/92 136/136/93 149/149/103 
f 149/149/103 148/148/102 135/135/92 
f 136/136/93 137/137/1 150/150/1 
f 150/150/1 149/149/103 136/136/93 
f 137/137/1 138/138/94 151/151/1 
f 151/151/1 150/150/1 137/137/1 
f 138/138/94 139/139/95 152/152/104 
f 152/152/104 151/151/1 138/138/94 
f 139/139/95 140/140/96 153/153/105 
f 153/153/105 152/152/104 139/139/95 
f 140/140/96 141/141/97 154/154/106 
f 154/154/106 153/153/105 140/140/96 
f 141/141/97 142/142/98 155/155/107 
f 155/155/107 154/154/106 141/141/97 
f 142/142/98 143/143/1 156/156/1 
f 156/156/1 155/155/107 142/142/98 
f 145/145/1 144/144/99 157/157/1 
f 157/157/1 158/158/1 145/145/1 
f 144/144/99 146/146/100 159/159/108 
f 159/159/108 157/157/1 144/144/99 
f 146/146/100 147/147/101 160/160/109 
f 160/160/109 159/159/108 146/146/100 
f 147/147/101 148/148/102 161/161/110 
f 161/161/110 160/160/109 147/147/101 
f 148/148/102 149/149/103 162/162/111 
f 162/162/111 161/161/110 148/148/102 
f 149/149/103 150/150/1 163/163/1 
f 163/163/1 162/162/111 149/149/103 
f 150/150/1 151/151/1 164/164/1 
f 164/164/1 163/163/1 150/150/1 
f 151/151/1 152/152/104 165/165/1 
f 165/165/1 164/164/1 151/151/1 
f 152/152/104 153/153/105 166/166/1 
f 166/166/1 165/165/1 152/152/104 
f 153/153/105 154/154/106 167/167/1 
f 167/167/1 166/166/1 153/153/105 
f 154/154/106 155/155/107 168/168/1 
f 168/168/1 167/167/1 154/154/106 
f 155/155/107 156/156/1 169/169/1 
f 169/169/1 168/168/1 155/155/107 
# 288 faces

