# Blender 5.0.0
# www.blender.org
mtllib Untitled.mtl
o Lantern
v 0.000000 -0.000000 -0.214000
v -0.185329 -0.000000 -0.107000
v -0.185329 0.000000 0.107000
v 0.000000 0.000000 0.214000
v 0.185329 0.000000 0.107000
v 0.185329 -0.000000 -0.107000
v 0.000000 0.041245 -0.208266
v -0.180364 0.041245 -0.104133
v -0.180364 0.041245 0.104133
v 0.000000 0.041245 0.208266
v 0.180364 0.041245 0.104133
v 0.180364 0.041245 -0.104133
v 0.000000 0.041245 -0.160060
v -0.138616 0.041245 -0.080030
v -0.138616 0.041245 0.080030
v 0.000000 0.041245 0.160060
v 0.138616 0.041245 0.080030
v 0.138616 0.041245 -0.080030
v 0.000000 0.613796 -0.160061
v -0.138616 0.613796 -0.080030
v -0.138616 0.613796 0.080030
v 0.000000 0.613796 0.160060
v 0.138616 0.613796 0.080030
v 0.138616 0.613796 -0.080030
v 0.000000 0.697841 -0.098853
v -0.085609 0.697841 -0.049427
v -0.085609 0.697841 0.049426
v 0.000000 0.697841 0.098853
v 0.085609 0.697841 0.049426
v 0.085609 0.697841 -0.049427
v 0.000000 0.838859 -0.098853
v -0.085609 0.838859 -0.049427
v -0.085609 0.838859 0.049426
v 0.000000 0.838859 0.098853
v 0.085609 0.838859 0.049426
v 0.085609 0.838859 -0.049427
v 0.000000 0.892600 -0.098853
v -0.085609 0.892600 -0.049427
v -0.085609 0.892600 0.049426
v 0.000000 0.892600 0.098853
v 0.085609 0.892600 0.049426
v 0.085609 0.892600 -0.049427
v 0.000000 2.252832 -0.098854
v -0.085609 2.252832 -0.049427
v -0.085609 2.252832 0.049426
v 0.000000 2.252832 0.098853
v 0.085609 2.252832 0.049426
v 0.085609 2.252832 -0.049427
v 0.000000 2.313607 -0.098854
v -0.085609 2.313607 -0.049427
v -0.085609 2.313607 0.049426
v 0.000000 2.313607 0.098853
v 0.085609 2.313607 0.049426
v 0.085609 2.313607 -0.049427
v 0.000000 2.523054 -0.098854
v -0.085609 2.523054 -0.049427
v -0.085609 2.523054 0.049426
v 0.000000 2.523054 0.098853
v 0.085609 2.523054 0.049426
v 0.085609 2.523054 -0.049427
v 0.000000 2.541808 -0.195434
v -0.169250 2.541808 -0.097718
v -0.169250 2.541808 0.097716
v 0.000000 2.541808 0.195433
v 0.169250 2.541808 0.097716
v 0.169250 2.541808 -0.097718
v 0.000000 2.940752 -0.255517
v -0.221284 2.940752 -0.127759
v -0.221284 2.940752 0.127757
v 0.000000 2.940752 0.255515
v 0.221284 2.940752 0.127757
v 0.221284 2.940752 -0.127759
v 0.000000 2.940751 -0.383576
v -0.332186 2.940751 -0.191788
v -0.332186 2.940751 0.191787
v 0.000000 2.940751 0.383574
v 0.332186 2.940751 0.191787
v 0.332186 2.940751 -0.191788
v 0.000000 2.977597 -0.383576
v -0.332186 2.977597 -0.191788
v -0.332186 2.977597 0.191787
v 0.000000 2.977597 0.383574
v 0.332186 2.977597 0.191787
v 0.332186 2.977597 -0.191788
v 0.000000 3.046268 -0.028606
v -0.024772 3.046268 -0.014303
v -0.024772 3.046268 0.014301
v 0.000000 3.046268 0.028604
v 0.024772 3.046268 0.014301
v 0.024772 3.046268 -0.014303
v 0.000000 3.150551 -0.012585
v -0.010898 3.150551 -0.006293
v -0.010898 3.150551 0.006291
v 0.000000 3.150551 0.012583
v 0.010898 3.150551 0.006291
v 0.010898 3.150551 -0.006293
v -0.143727 0.838859 -0.082981
v 0.000000 0.838859 -0.165962
v -0.143727 0.838859 0.082981
v 0.000000 0.838859 0.165962
v 0.143727 0.838859 0.082981
v 0.143727 0.838859 -0.082981
v -0.143727 0.892600 -0.082981
v 0.000000 0.892600 -0.165962
v -0.143727 0.892600 0.082981
v 0.000000 0.892600 0.165961
v 0.143727 0.892600 0.082981
v 0.143727 0.892600 -0.082981
v -0.143727 2.252832 -0.082982
v 0.000000 2.252832 -0.165962
v -0.143727 2.252832 0.082980
v 0.000000 2.252832 0.165961
v 0.143727 2.252832 0.082980
v 0.143727 2.252832 -0.082982
v -0.143727 2.313607 -0.082982
v 0.000000 2.313607 -0.165962
v -0.143727 2.313607 0.082980
v 0.000000 2.313607 0.165961
v 0.143727 2.313607 0.082980
v 0.143727 2.313607 -0.082982
v -0.147077 2.571556 0.114998
v -0.026053 2.571556 0.184871
v -0.026053 2.911004 0.235994
v -0.191351 2.911004 0.140559
v -0.026053 2.571556 -0.184873
v -0.147077 2.571556 -0.114999
v -0.191351 2.911004 -0.140561
v -0.026053 2.911004 -0.235995
v 0.147077 2.571556 -0.114999
v 0.026053 2.571556 -0.184873
v 0.026053 2.911004 -0.235995
v 0.191351 2.911004 -0.140561
v 0.026053 2.571556 0.184871
v 0.147077 2.571556 0.114998
v 0.191351 2.911004 0.140559
v 0.026053 2.911004 0.235994
v -0.173130 2.571556 -0.069874
v -0.173130 2.571556 0.069873
v -0.217404 2.911004 0.095434
v -0.217404 2.911004 -0.095435
v 0.173130 2.571556 0.069873
v 0.173130 2.571556 -0.069874
v 0.217404 2.911004 -0.095435
v 0.217404 2.911004 0.095434
v -0.133724 2.575039 0.091869
v -0.012699 2.575039 0.161742
v -0.012699 2.914487 0.212864
v -0.177997 2.914487 0.117430
v -0.012699 2.575039 -0.161743
v -0.133724 2.575039 -0.091870
v -0.177997 2.914487 -0.117431
v -0.012699 2.914487 -0.212866
v 0.133724 2.575039 -0.091870
v 0.012699 2.575039 -0.161743
v 0.012699 2.914487 -0.212866
v 0.177997 2.914487 -0.117431
v 0.012699 2.575039 0.161742
v 0.133724 2.575039 0.091869
v 0.177997 2.914487 0.117430
v 0.012699 2.914487 0.212864
v -0.146423 2.575039 -0.069874
v -0.146423 2.575039 0.069873
v -0.190696 2.914487 0.095434
v -0.190696 2.914487 -0.095435
v 0.146423 2.575039 0.069873
v 0.146423 2.575039 -0.069874
v 0.190696 2.914487 -0.095435
v 0.190696 2.914487 0.095434
vn 0.9928 0.1195 -0.0000
vn -0.4964 0.1195 0.8598
vn -0.4964 0.1195 -0.8598
vn 0.4964 0.1195 -0.8598
vn 0.4964 0.1195 0.8598
vn -0.9928 0.1195 -0.0000
vn -0.0000 1.0000 -0.0000
vn 1.0000 -0.0000 -0.0000
vn -0.5000 -0.0000 0.8660
vn -0.5000 -0.0000 -0.8660
vn 0.5000 -0.0000 -0.8660
vn 0.5000 -0.0000 0.8660
vn -1.0000 -0.0000 -0.0000
vn 0.4229 0.5335 -0.7325
vn 0.4229 0.5335 0.7325
vn -0.8458 0.5335 -0.0000
vn 0.8458 0.5335 -0.0000
vn -0.4229 0.5335 0.7325
vn -0.4229 0.5335 -0.7325
vn -0.0000 -1.0000 -0.0000
vn 0.1094 -0.9758 0.1895
vn -0.2188 -0.9758 -0.0000
vn 0.2188 -0.9758 -0.0000
vn -0.1094 -0.9758 0.1895
vn -0.1094 -0.9758 -0.1895
vn 0.1094 -0.9758 -0.1895
vn 0.2180 0.9759 -0.0000
vn -0.1090 0.9759 0.1888
vn -0.1090 0.9759 -0.1888
vn 0.1090 0.9759 -0.1888
vn 0.1090 0.9759 0.1888
vn -0.2180 0.9759 -0.0000
vn 0.4956 0.1319 -0.8585
vn 0.4956 0.1319 0.8585
vn -0.9913 0.1319 -0.0000
vn 0.9913 0.1319 -0.0000
vn -0.4956 0.1319 0.8585
vn -0.4956 0.1319 -0.8585
vn -0.4958 -0.1293 0.8588
vn -0.4958 -0.1293 -0.8588
vn 0.4958 -0.1293 -0.8588
vn 0.4958 -0.1293 0.8588
vn -0.9916 -0.1293 -0.0000
vn 0.9916 -0.1293 -0.0000
vn -0.0647 0.9916 0.1120
vn -0.8684 0.0738 -0.4903
vn 0.0647 -0.9916 -0.1120
vn 0.8588 0.0738 0.5070
vn -0.0647 0.9916 -0.1120
vn 0.8588 0.0738 -0.5070
vn 0.0647 -0.9916 0.1120
vn -0.8684 0.0738 0.4903
vn 0.0647 0.9916 -0.1120
vn 0.8684 0.0738 0.4903
vn -0.0647 -0.9916 0.1120
vn -0.8588 0.0738 -0.5070
vn 0.0647 0.9916 0.1120
vn -0.8588 0.0738 0.5070
vn -0.0647 -0.9916 -0.1120
vn 0.8684 0.0738 -0.4903
vn -0.1293 0.9916 -0.0000
vn -0.0096 0.0738 -0.9972
vn 0.1293 -0.9916 -0.0000
vn -0.0096 0.0738 0.9972
vn 0.1293 0.9916 -0.0000
vn 0.0096 0.0738 0.9972
vn -0.1293 -0.9916 -0.0000
vn 0.0096 0.0738 -0.9972
vt 0.935936 0.583804
vt 0.918080 0.492636
vt 0.935936 0.491398
vt 0.703513 0.855753
vt 0.720152 0.933635
vt 0.702378 0.935779
vt 0.940752 0.346787
vt 0.959631 0.426814
vt 0.941888 0.426814
vt 0.958526 0.504696
vt 0.940752 0.506840
vt 0.702378 0.775727
vt 0.721257 0.855753
vt 0.287164 0.938301
vt 0.269308 0.847132
vt 0.287164 0.845894
vt 0.000642 0.813876
vt 0.078524 0.838026
vt 0.078524 0.858842
vt 0.138380 0.803468
vt 0.156406 0.813876
vt 0.156406 0.723946
vt 0.078524 0.699796
vt 0.078524 0.678980
vt 0.000642 0.723946
vt 0.018669 0.803468
vt 0.138380 0.734353
vt 0.018669 0.734353
vt 0.463979 0.678047
vt 0.533094 0.430886
vt 0.533094 0.678047
vt 0.060497 0.676847
vt 0.120353 0.430540
vt 0.120353 0.677696
vt 0.121637 0.677696
vt 0.181492 0.429690
vt 0.181492 0.676847
vt 0.241348 0.430540
vt 0.241348 0.677696
vt 0.000642 0.677696
vt 0.060497 0.429690
vt 0.815343 0.345503
vt 0.884458 0.098342
vt 0.884458 0.345503
vt 0.218459 0.394585
vt 0.000642 0.430540
vt 0.060497 0.394060
vt 0.815343 0.098342
vt 0.871243 0.061517
vt 0.477194 0.394061
vt 0.519879 0.394061
vt 0.097464 0.394585
vt 0.121637 0.430540
vt 0.181492 0.394060
vt 0.519879 0.333186
vt 0.097464 0.333711
vt 0.144526 0.394585
vt 0.181492 0.333186
vt 0.218459 0.333711
vt 0.023531 0.394585
vt 0.060497 0.333186
vt 0.828558 0.061517
vt 0.871243 0.000642
vt 0.313901 0.810966
vt 0.288806 0.753792
vt 0.313901 0.768281
vt 0.800368 0.874041
vt 0.738306 0.867187
vt 0.763401 0.852698
vt 0.602065 0.826047
vt 0.639031 0.775727
vt 0.639031 0.804704
vt 0.350868 0.832309
vt 0.288806 0.825455
vt 0.738306 0.795524
vt 0.763401 0.810013
vt 0.602065 0.868733
vt 0.576969 0.811558
vt 0.727404 0.587832
vt 0.770089 0.000642
vt 0.770089 0.587832
vt 0.613936 0.587821
vt 0.650902 0.001167
vt 0.650902 0.588345
vt 0.652187 0.588345
vt 0.689153 0.000642
vt 0.689153 0.587821
vt 0.726120 0.001167
vt 0.726120 0.588345
vt 0.576969 0.588345
vt 0.613936 0.000642
vt 0.771374 0.587832
vt 0.814059 0.000642
vt 0.814059 0.587832
vt 0.877405 0.461136
vt 0.815343 0.454282
vt 0.840439 0.439793
vt 0.800368 0.759692
vt 0.800368 0.788670
vt 0.639031 0.890075
vt 0.576969 0.883221
vt 0.815343 0.382619
vt 0.840439 0.397108
vt 0.387834 0.810966
vt 0.350868 0.861287
vt 0.862430 0.795524
vt 0.837335 0.810013
vt 0.414214 0.808376
vt 0.456900 0.717960
vt 0.456900 0.808376
vt 0.852310 0.581811
vt 0.889277 0.491923
vt 0.889277 0.582336
vt 0.000642 0.951064
vt 0.037609 0.860126
vt 0.037609 0.950539
vt 0.074575 0.860650
vt 0.074575 0.951064
vt 0.815343 0.582336
vt 0.852310 0.491398
vt 0.414214 0.900075
vt 0.456900 0.809660
vt 0.456900 0.900075
vt 0.811389 0.631333
vt 0.884473 0.631824
vt 0.848356 0.652676
vt 0.848356 0.695362
vt 0.811389 0.758408
vt 0.811389 0.716704
vt 0.774423 0.652676
vt 0.811389 0.589630
vt 0.884473 0.716214
vt 0.738306 0.716214
vt 0.774423 0.695362
vt 0.738306 0.631824
vt 0.239633 0.111105
vt 0.287521 0.249087
vt 0.239633 0.221439
vt 0.048530 0.221439
vt 0.000642 0.083457
vt 0.048530 0.111105
vt 0.144082 0.000642
vt 0.287521 0.083457
vt 0.144082 0.331902
vt 0.144082 0.276605
vt 0.000642 0.249087
vt 0.144082 0.055939
vt 0.242632 0.333186
vt 0.260573 0.476626
vt 0.244667 0.476626
vt 0.258537 0.620065
vt 0.242632 0.620065
vt 0.261857 0.333186
vt 0.279798 0.476626
vt 0.263892 0.476626
vt 0.285214 0.844610
vt 0.269308 0.678980
vt 0.285214 0.678980
vt 0.974315 0.313636
vt 0.958410 0.148006
vt 0.974316 0.148006
vt 0.277762 0.620065
vt 0.261857 0.620065
vt 0.575685 0.083457
vt 0.432245 0.153920
vt 0.432245 0.000642
vt 0.288806 0.083457
vt 0.421548 0.172448
vt 0.288806 0.249087
vt 0.432245 0.331902
vt 0.442942 0.172448
vt 0.575685 0.249087
vt 0.442942 0.160096
vt 0.421548 0.160096
vt 0.432245 0.178624
vt 0.253329 0.666195
vt 0.258035 0.621416
vt 0.264025 0.666347
vt 0.265310 0.666347
vt 0.276007 0.621349
vt 0.276007 0.666195
vt 0.562056 0.675929
vt 0.570949 0.630769
vt 0.574408 0.675929
vt 0.885742 0.341509
vt 0.894635 0.296349
vt 0.898094 0.341509
vt 0.280712 0.621416
vt 0.286703 0.666347
vt 0.242632 0.666347
vt 0.253329 0.621349
vt 0.543790 0.659667
vt 0.539084 0.667818
vt 0.539084 0.656950
vt 0.534378 0.659667
vt 0.534378 0.665101
vt 0.656995 0.589630
vt 0.576969 0.728239
vt 0.576969 0.635833
vt 0.656995 0.774442
vt 0.737022 0.635833
vt 0.737022 0.728239
vt 0.948298 0.821755
vt 0.970615 0.883817
vt 0.947417 0.883817
vt 0.230358 0.851948
vt 0.254438 0.914010
vt 0.231239 0.914010
vt 0.559845 0.923962
vt 0.536647 0.852299
vt 0.559845 0.852299
vt 0.099058 0.931789
vt 0.075860 0.860126
vt 0.099058 0.860126
vt 0.253557 0.976072
vt 0.230358 0.976072
vt 0.947417 0.759692
vt 0.971496 0.821755
vt 0.535259 0.395248
vt 0.560613 0.457310
vt 0.534378 0.457310
vt 0.534378 0.458594
vt 0.561494 0.520657
vt 0.535259 0.520657
vt 0.560613 0.655666
vt 0.534378 0.584003
vt 0.560613 0.584003
vt 0.916796 0.563061
vt 0.890561 0.491398
vt 0.916796 0.491398
vt 0.560613 0.582719
vt 0.534378 0.582719
vt 0.534378 0.333186
vt 0.561494 0.395248
vt 0.914372 0.439793
vt 0.877405 0.490114
vt 0.701093 0.811558
vt 0.675998 0.826047
vt 0.350868 0.717960
vt 0.350868 0.746938
vt 0.914372 0.397108
vt 0.939468 0.454282
vt 0.701093 0.883221
vt 0.675998 0.868733
vt 0.837335 0.852698
vt 0.800368 0.903019
vt 0.412930 0.753792
vt 0.387834 0.768281
vt 0.877405 0.375765
vt 0.939468 0.382619
vt 0.639031 0.919053
vt 0.862430 0.867187
vt 0.412930 0.825455
vt 0.877405 0.346787
vt 0.289843 0.428737
vt 0.301831 0.492246
vt 0.288806 0.501821
vt 0.449646 0.439987
vt 0.302572 0.439987
vt 0.461338 0.524289
vt 0.462695 0.428737
vt 0.448633 0.511364
vt 0.288806 0.548041
vt 0.302572 0.609875
vt 0.289843 0.621125
vt 0.448633 0.538498
vt 0.301831 0.557616
vt 0.462695 0.621125
vt 0.461338 0.525573
vt 0.449646 0.609875
vt 0.301831 0.684634
vt 0.288806 0.694208
vt 0.449646 0.632375
vt 0.302572 0.632375
vt 0.461338 0.716676
vt 0.448633 0.703751
vt 0.288806 0.355654
vt 0.302572 0.417488
vt 0.448633 0.346111
vt 0.301831 0.365229
vt 0.461338 0.333186
vt 0.449646 0.417488
vt 0.170663 0.850664
vt 0.243029 0.837862
vt 0.255052 0.850664
vt 0.171648 0.691782
vt 0.182686 0.837862
vt 0.268024 0.678980
vt 0.157691 0.678980
vt 0.254066 0.691782
vt 0.476951 0.851015
vt 0.549317 0.838213
vt 0.561340 0.851015
vt 0.477936 0.692133
vt 0.488974 0.838213
vt 0.574312 0.679331
vt 0.463979 0.679331
vt 0.560355 0.692133
vt 0.887830 0.295065
vt 0.957126 0.148006
vt 0.940094 0.295065
vt 0.300338 0.862571
vt 0.288806 0.922915
vt 0.288806 0.862571
vt 0.971036 0.346787
vt 0.960915 0.495109
vt 0.960915 0.346922
vt 0.125976 0.942544
vt 0.137508 0.860126
vt 0.137508 0.942544
vt 0.975600 0.295408
vt 0.985662 0.148621
vt 0.985662 0.296023
vt 0.902789 0.736688
vt 0.957140 0.589629
vt 0.955053 0.736688
vt 0.325971 0.862571
vt 0.314439 0.922915
vt 0.314439 0.862571
vt 0.983724 0.347402
vt 0.993786 0.494189
vt 0.983724 0.494804
vt 0.100343 0.942544
vt 0.111875 0.860126
vt 0.111875 0.942544
vt 0.981459 0.737952
vt 0.971339 0.589630
vt 0.981459 0.589764
vt 0.159778 0.999007
vt 0.229074 0.851948
vt 0.212042 0.999007
vt 0.301622 0.922915
vt 0.313155 0.862571
vt 0.313155 0.922915
vt 0.982440 0.346787
vt 0.972320 0.495109
vt 0.972320 0.346922
vt 0.124692 0.860126
vt 0.113159 0.942544
vt 0.113159 0.860126
vt 0.982743 0.737031
vt 0.992805 0.590244
vt 0.992805 0.737646
vt 0.481011 0.999358
vt 0.535362 0.852299
vt 0.533275 0.999358
vt 0.327255 0.922915
vt 0.338788 0.862571
vt 0.338788 0.922915
vt 0.984185 0.760307
vt 0.994247 0.907094
vt 0.984185 0.907709
vt 0.150325 0.860126
vt 0.138792 0.942544
vt 0.138792 0.860126
vt 0.982901 0.908014
vt 0.972780 0.759692
vt 0.982901 0.759827
vt 0.874752 0.905772
vt 0.946133 0.759692
vt 0.935095 0.905772
vt 0.351605 0.862571
vt 0.340072 0.922915
vt 0.340072 0.862571
vt 0.574408 0.333190
vt 0.562778 0.480690
vt 0.562778 0.333186
vt 0.255722 0.934366
vt 0.267254 0.851948
vt 0.267254 0.934366
vt 0.737022 0.923230
vt 0.725392 0.775730
vt 0.737022 0.775726
vt 0.896780 0.146722
vt 0.968161 0.000642
vt 0.957123 0.146722
vt 0.352889 0.922915
vt 0.364421 0.862571
vt 0.364421 0.922915
vt 0.574408 0.481981
vt 0.562778 0.629481
vt 0.562778 0.481978
vt 0.574312 0.852299
vt 0.562780 0.934717
vt 0.562780 0.852299
vt 0.970055 0.737133
vt 0.958425 0.589633
vt 0.970055 0.589629
vt 0.918080 0.582567
vt 0.958526 0.348932
vt 0.720152 0.777871
vt 0.269308 0.937063
vt 0.463979 0.430886
vt 0.477194 0.333186
vt 0.144526 0.333711
vt 0.023531 0.333711
vt 0.828558 0.000642
vt 0.727404 0.000642
vt 0.652187 0.001167
vt 0.576969 0.001167
vt 0.771374 0.000642
vt 0.414214 0.717960
vt 0.000642 0.860650
vt 0.815343 0.491923
vt 0.414214 0.809660
vt 0.258537 0.333186
vt 0.277762 0.333186
vt 0.269308 0.844610
vt 0.958410 0.313636
vt 0.271301 0.621416
vt 0.565515 0.630769
vt 0.889201 0.296349
vt 0.248623 0.621416
vt 0.543790 0.665101
vt 0.253557 0.851948
vt 0.536647 0.923962
vt 0.075860 0.931789
vt 0.970615 0.759692
vt 0.560613 0.458594
vt 0.534378 0.655666
vt 0.890561 0.563061
vt 0.560613 0.333186
vt 0.885742 0.148006
vt 0.300338 0.922915
vt 0.971036 0.494975
vt 0.125976 0.860126
vt 0.975600 0.148006
vt 0.885757 0.589629
vt 0.325971 0.922915
vt 0.993786 0.346787
vt 0.100343 0.860126
vt 0.971339 0.737817
vt 0.157691 0.851948
vt 0.301622 0.862571
vt 0.982440 0.494975
vt 0.124692 0.942544
vt 0.982743 0.589629
vt 0.463979 0.852299
vt 0.327255 0.862571
vt 0.994247 0.759692
vt 0.150325 0.942544
vt 0.972780 0.907880
vt 0.863714 0.759692
vt 0.351605 0.922915
vt 0.574408 0.480694
vt 0.255722 0.851948
vt 0.725392 0.923234
vt 0.885742 0.000642
vt 0.352889 0.862571
vt 0.574408 0.629485
vt 0.574312 0.934717
vt 0.958425 0.737137
s 1
usemtl Material.001
f 6/1/1 11/2/1 5/3/1
f 4/4/2 9/5/2 3/6/2
f 2/7/3 7/8/3 1/9/3
f 1/9/4 12/10/4 6/11/4
f 5/12/5 10/13/5 4/4/5
f 3/14/6 8/15/6 2/16/6
f 8/17/7 13/18/7 7/19/7
f 7/19/7 18/20/7 12/21/7
f 11/22/7 16/23/7 10/24/7
f 9/25/7 14/26/7 8/17/7
f 12/21/7 17/27/7 11/22/7
f 10/24/7 15/28/7 9/25/7
f 18/29/8 23/30/8 17/31/8
f 16/32/9 21/33/9 15/34/9
f 14/35/10 19/36/10 13/37/10
f 13/37/11 24/38/11 18/39/11
f 17/40/12 22/41/12 16/32/12
f 15/42/13 20/43/13 14/44/13
f 19/36/14 30/45/14 24/38/14
f 23/46/15 28/47/15 22/41/15
f 21/48/16 26/49/16 20/43/16
f 23/30/17 30/50/17 29/51/17
f 22/41/18 27/52/18 21/33/18
f 20/53/19 25/54/19 19/36/19
f 30/50/8 35/55/8 29/51/8
f 28/47/9 33/56/9 27/52/9
f 26/57/10 31/58/10 25/54/10
f 25/54/11 36/59/11 30/45/11
f 29/60/12 34/61/12 28/47/12
f 27/62/13 32/63/13 26/49/13
f 50/64/7 117/65/7 51/66/7
f 43/67/20 114/68/20 48/69/20
f 39/70/7 106/71/7 40/72/7
f 49/73/7 115/74/7 50/64/7
f 48/69/20 113/75/20 47/76/20
f 38/77/7 105/78/7 39/70/7
f 42/79/8 47/80/8 41/81/8
f 40/82/9 45/83/9 39/84/9
f 38/85/10 43/86/10 37/87/10
f 37/87/11 48/88/11 42/89/11
f 41/90/12 46/91/12 40/82/12
f 39/92/13 44/93/13 38/94/13
f 31/95/20 102/96/20 36/97/20
f 47/76/20 112/98/20 46/99/20
f 37/100/7 103/101/7 38/77/7
f 36/97/20 101/102/20 35/103/20
f 54/104/7 116/105/7 49/73/7
f 46/99/20 111/106/20 45/107/20
f 54/108/8 59/109/8 53/110/8
f 52/111/9 57/112/9 51/113/9
f 50/114/10 55/115/10 49/116/10
f 49/116/11 60/117/11 54/118/11
f 53/119/12 58/120/12 52/111/12
f 51/121/13 56/122/13 50/123/13
f 59/124/21 64/125/21 58/126/21
f 57/127/22 62/128/22 56/129/22
f 60/130/23 65/131/23 59/124/23
f 57/127/24 64/125/24 63/132/24
f 56/129/25 61/133/25 55/134/25
f 55/134/26 66/135/26 60/130/26
f 69/136/20 74/137/20 68/138/20
f 72/139/20 77/140/20 71/141/20
f 69/136/20 76/142/20 75/143/20
f 68/138/20 73/144/20 67/145/20
f 72/139/20 73/144/20 78/146/20
f 71/141/20 76/142/20 70/147/20
f 74/148/10 79/149/10 73/150/10
f 73/150/11 84/151/11 78/152/11
f 77/153/12 82/154/12 76/155/12
f 75/156/13 80/157/13 74/158/13
f 78/159/8 83/160/8 77/161/8
f 76/155/9 81/162/9 75/163/9
f 84/164/27 89/165/27 83/166/27
f 82/167/28 87/168/28 81/169/28
f 80/170/29 85/171/29 79/172/29
f 84/164/30 85/171/30 90/173/30
f 82/167/31 89/165/31 88/174/31
f 81/169/32 86/175/32 80/170/32
f 85/176/33 96/177/33 90/178/33
f 89/179/34 94/180/34 88/181/34
f 87/182/35 92/183/35 86/184/35
f 90/185/36 95/186/36 89/187/36
f 88/181/37 93/188/37 87/189/37
f 86/190/38 91/191/38 85/176/38
f 95/192/7 91/193/7 94/194/7
f 93/195/7 91/193/7 92/196/7
f 4/197/20 6/198/20 5/199/20
f 1/200/20 3/201/20 2/202/20
f 98/203/11 108/204/11 102/205/11
f 101/206/12 106/207/12 100/208/12
f 99/209/13 103/210/13 97/211/13
f 102/212/8 107/213/8 101/214/8
f 100/208/9 105/215/9 99/216/9
f 97/217/10 104/218/10 98/203/10
f 110/219/11 120/220/11 114/221/11
f 113/222/12 118/223/12 112/224/12
f 111/225/13 115/226/13 109/227/13
f 114/228/8 119/229/8 113/230/8
f 112/224/9 117/231/9 111/232/9
f 109/233/10 116/234/10 110/219/10
f 32/235/20 98/236/20 31/95/20
f 40/72/7 107/237/7 41/238/7
f 51/66/7 118/239/7 52/240/7
f 33/241/20 97/242/20 32/235/20
f 41/238/7 108/243/7 42/244/7
f 44/245/20 110/246/20 43/67/20
f 52/240/7 119/247/7 53/248/7
f 34/249/20 99/250/20 33/241/20
f 42/244/7 104/251/7 37/100/7
f 45/107/20 109/252/20 44/245/20
f 53/248/7 120/253/7 54/104/7
f 35/103/20 100/254/20 34/249/20
f 64/255/39 121/256/39 63/257/39
f 64/255/39 123/258/39 122/259/39
f 69/260/39 123/258/39 70/261/39
f 63/257/39 124/262/39 69/260/39
f 62/263/40 125/264/40 61/265/40
f 62/263/40 127/266/40 126/267/40
f 67/268/40 127/266/40 68/269/40
f 61/265/40 128/270/40 67/268/40
f 61/265/41 129/271/41 66/272/41
f 61/265/41 131/273/41 130/274/41
f 72/275/41 131/273/41 67/268/41
f 66/272/41 132/276/41 72/275/41
f 65/277/42 133/278/42 64/255/42
f 65/277/42 135/279/42 134/280/42
f 70/261/42 135/279/42 71/281/42
f 64/255/42 136/282/42 70/261/42
f 63/283/43 137/284/43 62/285/43
f 63/283/43 139/286/43 138/287/43
f 68/288/43 139/286/43 69/289/43
f 62/285/43 140/290/43 68/288/43
f 66/291/44 141/292/44 65/293/44
f 66/291/44 143/294/44 142/295/44
f 71/296/44 143/294/44 72/297/44
f 65/293/44 144/298/44 71/296/44
f 146/299/39 148/300/39 145/301/39
f 146/302/45 121/303/45 122/304/45
f 147/305/46 122/306/46 123/307/46
f 148/308/47 123/309/47 124/310/47
f 145/311/48 124/312/48 121/313/48
f 150/314/40 152/315/40 149/316/40
f 150/317/49 125/318/49 126/319/49
f 127/320/50 150/321/50 126/322/50
f 152/323/51 127/324/51 128/325/51
f 125/326/52 152/327/52 128/328/52
f 154/329/41 156/330/41 153/331/41
f 154/332/53 129/333/53 130/334/53
f 155/335/54 130/336/54 131/337/54
f 156/338/55 131/339/55 132/340/55
f 153/341/56 132/342/56 129/343/56
f 158/344/42 160/345/42 157/346/42
f 158/347/57 133/348/57 134/349/57
f 135/350/58 158/351/58 134/352/58
f 160/353/59 135/354/59 136/355/59
f 133/356/60 160/357/60 136/358/60
f 162/359/43 164/360/43 161/361/43
f 162/362/61 137/363/61 138/364/61
f 163/365/62 138/366/62 139/367/62
f 164/368/63 139/369/63 140/370/63
f 137/371/64 164/372/64 140/373/64
f 166/374/44 168/375/44 165/376/44
f 166/377/65 141/378/65 142/379/65
f 167/380/66 142/381/66 143/382/66
f 168/383/67 143/384/67 144/385/67
f 141/386/68 168/387/68 144/388/68
f 6/1/1 12/389/1 11/2/1
f 4/4/2 10/13/2 9/5/2
f 2/7/3 8/390/3 7/8/3
f 1/9/4 7/8/4 12/10/4
f 5/12/5 11/391/5 10/13/5
f 3/14/6 9/392/6 8/15/6
f 8/17/7 14/26/7 13/18/7
f 7/19/7 13/18/7 18/20/7
f 11/22/7 17/27/7 16/23/7
f 9/25/7 15/28/7 14/26/7
f 12/21/7 18/20/7 17/27/7
f 10/24/7 16/23/7 15/28/7
f 18/29/8 24/393/8 23/30/8
f 16/32/9 22/41/9 21/33/9
f 14/35/10 20/53/10 19/36/10
f 13/37/11 19/36/11 24/38/11
f 17/40/12 23/46/12 22/41/12
f 15/42/13 21/48/13 20/43/13
f 19/36/14 25/54/14 30/45/14
f 23/46/15 29/60/15 28/47/15
f 21/48/16 27/62/16 26/49/16
f 23/30/17 24/393/17 30/50/17
f 22/41/18 28/47/18 27/52/18
f 20/53/19 26/57/19 25/54/19
f 30/50/8 36/394/8 35/55/8
f 28/47/9 34/61/9 33/56/9
f 26/57/10 32/395/10 31/58/10
f 25/54/11 31/58/11 36/59/11
f 29/60/12 35/396/12 34/61/12
f 27/62/13 33/397/13 32/63/13
f 50/64/7 115/74/7 117/65/7
f 43/67/20 110/246/20 114/68/20
f 39/70/7 105/78/7 106/71/7
f 49/73/7 116/105/7 115/74/7
f 48/69/20 114/68/20 113/75/20
f 38/77/7 103/101/7 105/78/7
f 42/79/8 48/398/8 47/80/8
f 40/82/9 46/91/9 45/83/9
f 38/85/10 44/399/10 43/86/10
f 37/87/11 43/86/11 48/88/11
f 41/90/12 47/400/12 46/91/12
f 39/92/13 45/401/13 44/93/13
f 31/95/20 98/236/20 102/96/20
f 47/76/20 113/75/20 112/98/20
f 37/100/7 104/251/7 103/101/7
f 36/97/20 102/96/20 101/102/20
f 54/104/7 120/253/7 116/105/7
f 46/99/20 112/98/20 111/106/20
f 54/108/8 60/402/8 59/109/8
f 52/111/9 58/120/9 57/112/9
f 50/114/10 56/403/10 55/115/10
f 49/116/11 55/115/11 60/117/11
f 53/119/12 59/404/12 58/120/12
f 51/121/13 57/405/13 56/122/13
f 59/124/21 65/131/21 64/125/21
f 57/127/22 63/132/22 62/128/22
f 60/130/23 66/135/23 65/131/23
f 57/127/24 58/126/24 64/125/24
f 56/129/25 62/128/25 61/133/25
f 55/134/26 61/133/26 66/135/26
f 69/136/20 75/143/20 74/137/20
f 72/139/20 78/146/20 77/140/20
f 69/136/20 70/147/20 76/142/20
f 68/138/20 74/137/20 73/144/20
f 72/139/20 67/145/20 73/144/20
f 71/141/20 77/140/20 76/142/20
f 74/148/10 80/406/10 79/149/10
f 73/150/11 79/149/11 84/151/11
f 77/153/12 83/407/12 82/154/12
f 75/156/13 81/408/13 80/157/13
f 78/159/8 84/409/8 83/160/8
f 76/155/9 82/154/9 81/162/9
f 84/164/27 90/173/27 89/165/27
f 82/167/28 88/174/28 87/168/28
f 80/170/29 86/175/29 85/171/29
f 84/164/30 79/172/30 85/171/30
f 82/167/31 83/166/31 89/165/31
f 81/169/32 87/168/32 86/175/32
f 85/176/33 91/191/33 96/177/33
f 89/179/34 95/410/34 94/180/34
f 87/182/35 93/411/35 92/183/35
f 90/185/36 96/412/36 95/186/36
f 88/181/37 94/180/37 93/188/37
f 86/190/38 92/413/38 91/191/38
f 95/192/7 96/414/7 91/193/7
f 93/195/7 94/194/7 91/193/7
f 4/197/20 1/200/20 6/198/20
f 1/200/20 4/197/20 3/201/20
f 98/203/11 104/218/11 108/204/11
f 101/206/12 107/415/12 106/207/12
f 99/209/13 105/416/13 103/210/13
f 102/212/8 108/417/8 107/213/8
f 100/208/9 106/207/9 105/215/9
f 97/217/10 103/418/10 104/218/10
f 110/219/11 116/234/11 120/220/11
f 113/222/12 119/419/12 118/223/12
f 111/225/13 117/420/13 115/226/13
f 114/228/8 120/421/8 119/229/8
f 112/224/9 118/223/9 117/231/9
f 109/233/10 115/422/10 116/234/10
f 32/235/20 97/242/20 98/236/20
f 40/72/7 106/71/7 107/237/7
f 51/66/7 117/65/7 118/239/7
f 33/241/20 99/250/20 97/242/20
f 41/238/7 107/237/7 108/243/7
f 44/245/20 109/252/20 110/246/20
f 52/240/7 118/239/7 119/247/7
f 34/249/20 100/254/20 99/250/20
f 42/244/7 108/243/7 104/251/7
f 45/107/20 111/106/20 109/252/20
f 53/248/7 119/247/7 120/253/7
f 35/103/20 101/102/20 100/254/20
f 64/255/39 122/259/39 121/256/39
f 64/255/39 70/261/39 123/258/39
f 69/260/39 124/262/39 123/258/39
f 63/257/39 121/256/39 124/262/39
f 62/263/40 126/267/40 125/264/40
f 62/263/40 68/269/40 127/266/40
f 67/268/40 128/270/40 127/266/40
f 61/265/40 125/264/40 128/270/40
f 61/265/41 130/274/41 129/271/41
f 61/265/41 67/268/41 131/273/41
f 72/275/41 132/276/41 131/273/41
f 66/272/41 129/271/41 132/276/41
f 65/277/42 134/280/42 133/278/42
f 65/277/42 71/281/42 135/279/42
f 70/261/42 136/282/42 135/279/42
f 64/255/42 133/278/42 136/282/42
f 63/283/43 138/287/43 137/284/43
f 63/283/43 69/289/43 139/286/43
f 68/288/43 140/290/43 139/286/43
f 62/285/43 137/284/43 140/290/43
f 66/291/44 142/295/44 141/292/44
f 66/291/44 72/297/44 143/294/44
f 71/296/44 144/298/44 143/294/44
f 65/293/44 141/292/44 144/298/44
f 146/299/39 147/423/39 148/300/39
f 146/302/45 145/424/45 121/303/45
f 147/305/46 146/425/46 122/306/46
f 148/308/47 147/426/47 123/309/47
f 145/311/48 148/427/48 124/312/48
f 150/314/40 151/428/40 152/315/40
f 150/317/49 149/429/49 125/318/49
f 127/320/50 151/430/50 150/321/50
f 152/323/51 151/431/51 127/324/51
f 125/326/52 149/432/52 152/327/52
f 154/329/41 155/433/41 156/330/41
f 154/332/53 153/434/53 129/333/53
f 155/335/54 154/435/54 130/336/54
f 156/338/55 155/436/55 131/339/55
f 153/341/56 156/437/56 132/342/56
f 158/344/42 159/438/42 160/345/42
f 158/347/57 157/439/57 133/348/57
f 135/350/58 159/440/58 158/351/58
f 160/353/59 159/441/59 135/354/59
f 133/356/60 157/442/60 160/357/60
f 162/359/43 163/443/43 164/360/43
f 162/362/61 161/444/61 137/363/61
f 163/365/62 162/445/62 138/366/62
f 164/368/63 163/446/63 139/369/63
f 137/371/64 161/447/64 164/372/64
f 166/374/44 167/448/44 168/375/44
f 166/377/65 165/449/65 141/378/65
f 167/380/66 166/450/66 142/381/66
f 168/383/67 167/451/67 143/384/67
f 141/386/68 165/452/68 168/387/68
